<?xml version="1.0" encoding="utf-8"?>
<!-- Generator: Adobe Illustrator 22.1.0, SVG Export Plug-In . SVG Version: 6.00 Build 0)  -->
<svg version="1.1" id="Figment.observer_Layer" xmlns="http://www.w3.org/2000/svg" xmlns:xlink="http://www.w3.org/1999/xlink"
	 x="0px" y="0px" viewBox="0 0 900.6 781.2" style="enable-background:new 0 0 900.6 781.2;" xml:space="preserve">
<style type="text/css">
	.st0{display:none;fill:url(#Background_1_);}
	.st1{display:none;}
	.st2{display:inline;}
	.st3{filter:url(#Adobe_OpacityMaskFilter);}
	.st4{filter:url(#Adobe_OpacityMaskFilter_1_);}
	.st5{mask:url(#SVGID_1_);fill:url(#SVGID_2_);}
	.st6{fill:url(#SVGID_3_);}
	.st7{fill:#1C5371;}
	.st8{fill:#F9ED32;}
	.st9{fill:url(#SVGID_4_);}
	.st10{fill:#0D1E32;}
	.st11{fill:#527E9B;}
	.st12{fill:url(#SVGID_5_);}
	.st13{fill:#0E405B;}
	.st14{fill:#2D6C8A;}
	.st15{filter:url(#Adobe_OpacityMaskFilter_2_);}
	.st16{filter:url(#Adobe_OpacityMaskFilter_3_);}
	.st17{mask:url(#SVGID_6_);fill:url(#SVGID_7_);}
	.st18{opacity:0.6;fill:url(#SVGID_8_);}
	.st19{filter:url(#Adobe_OpacityMaskFilter_4_);}
	.st20{filter:url(#Adobe_OpacityMaskFilter_5_);}
	.st21{mask:url(#SVGID_9_);fill:url(#SVGID_10_);}
	.st22{opacity:0.6;fill:url(#SVGID_11_);}
	.st23{filter:url(#Adobe_OpacityMaskFilter_6_);}
	.st24{filter:url(#Adobe_OpacityMaskFilter_7_);}
	.st25{mask:url(#SVGID_12_);fill:url(#SVGID_13_);}
	.st26{opacity:0.6;fill:url(#SVGID_14_);}
	.st27{fill:url(#SVGID_15_);}
	.st28{fill:url(#SVGID_16_);}
	.st29{fill:url(#SVGID_17_);}
	.st30{fill:url(#SVGID_18_);}
	.st31{fill:url(#SVGID_19_);}
	.st32{fill:url(#SVGID_20_);}
	.st33{fill:url(#SVGID_21_);}
	.st34{fill:url(#SVGID_22_);}
	.st35{fill:url(#SVGID_23_);}
	.st36{fill:url(#SVGID_24_);}
	.st37{fill:url(#SVGID_25_);}
	.st38{fill:#FFFFFF;}
	.st39{filter:url(#Adobe_OpacityMaskFilter_8_);}
	.st40{filter:url(#Adobe_OpacityMaskFilter_9_);}
	.st41{mask:url(#SVGID_26_);fill:url(#SVGID_27_);}
	.st42{fill:url(#SVGID_28_);}
	.st43{filter:url(#Adobe_OpacityMaskFilter_10_);}
	.st44{filter:url(#Adobe_OpacityMaskFilter_11_);}
	.st45{mask:url(#SVGID_29_);fill:url(#SVGID_30_);}
	.st46{fill:url(#SVGID_31_);}
	.st47{filter:url(#Adobe_OpacityMaskFilter_12_);}
	.st48{filter:url(#Adobe_OpacityMaskFilter_13_);}
	.st49{mask:url(#SVGID_32_);fill:url(#SVGID_33_);}
	.st50{fill:url(#SVGID_34_);}
	.st51{fill:#F3F4C4;}
	.st52{filter:url(#Adobe_OpacityMaskFilter_14_);}
	.st53{filter:url(#Adobe_OpacityMaskFilter_15_);}
	.st54{mask:url(#SVGID_35_);fill:url(#SVGID_36_);}
	.st55{fill:url(#SVGID_37_);}
	.st56{fill:#EFA139;}
	.st57{fill:#CC7429;}
	.st58{fill:#D88228;}
	.st59{opacity:0.4;fill:#D88228;}
	.st60{fill:#FCC948;}
	.st61{fill:#D68128;}
	.st62{fill:#B25F27;}
	.st63{fill:#F59425;}
	.st64{display:inline;fill:#FFECDE;}
	.st65{fill:#FFECDE;}
	.st66{fill:#00A5BD;}
	.st67{fill:#DFF2F8;}
	.st68{fill:#DF4F51;}
	.st69{display:inline;fill:#E72B4B;}
	.st70{filter:url(#Adobe_OpacityMaskFilter_16_);}
	.st71{filter:url(#Adobe_OpacityMaskFilter_17_);}
	.st72{mask:url(#SVGID_38_);fill:url(#SVGID_39_);}
	.st73{fill:url(#SVGID_40_);}
	.st74{fill:#56595C;}
	.st75{fill:#F2F3F6;}
	.st76{fill:#AEB2BE;}
	.st77{fill:#6B4C2A;}
	.st78{fill:#AFB4BF;}
	.st79{fill:#F1F2F6;}
	.st80{fill:#110F0D;}
	.st81{fill:#4F4D4B;}
	.st82{fill:#D3D4D9;}
	.st83{fill:#989BA5;}
	.st84{fill:none;}
	.st85{fill:#9B9B9B;}
	.st86{fill:#9E4E34;}
	.st87{fill:#484340;}
	.st88{fill:#393432;}
	.st89{fill:#A65F41;}
	.st90{fill:#8A412F;}
	.st91{fill:#B36952;}
	.st92{fill:#EA8B4A;}
	.st93{fill:#713221;}
	.st94{fill:#5F241A;}
	.st95{fill:#381814;}
	.st96{fill:#B6634D;}
	.st97{fill:#D1732C;}
	.st98{fill:#6ACBDA;}
	.st99{fill:#1FB7BE;}
	.st100{fill:#FDB92E;}
	.st101{fill:#F6B662;}
	.st102{fill:#5E5E5E;}
</style>
<linearGradient id="Background_1_" gradientUnits="userSpaceOnUse" x1="462.6527" y1="820.9046" x2="462.6527" y2="-263.1703">
	<stop  offset="0.3265" style="stop-color:#72C4CC"/>
	<stop  offset="0.4304" style="stop-color:#6ABAC5"/>
	<stop  offset="0.5967" style="stop-color:#58A2B6"/>
	<stop  offset="0.8033" style="stop-color:#3E81A0"/>
	<stop  offset="1" style="stop-color:#206188"/>
</linearGradient>
<rect id="Background" x="-497.3" y="-261.9" class="st0" width="1920" height="1081"/>
<g id="Fire" class="st1">
	<g class="st2">
		<defs>
			<filter id="Adobe_OpacityMaskFilter" filterUnits="userSpaceOnUse" x="555.9" y="405.4" width="139.2" height="139.2">
				<feColorMatrix  type="matrix" values="1 0 0 0 0  0 1 0 0 0  0 0 1 0 0  0 0 0 1 0"/>
			</filter>
		</defs>
		<mask maskUnits="userSpaceOnUse" x="555.9" y="405.4" width="139.2" height="139.2" id="SVGID_1_">
			<g class="st3">
				<defs>
					<filter id="Adobe_OpacityMaskFilter_1_" filterUnits="userSpaceOnUse" x="555.9" y="405.4" width="139.2" height="139.2">
						<feFlood  style="flood-color:white;flood-opacity:1" result="back"/>
						<feBlend  in="SourceGraphic" in2="back" mode="normal"/>
					</filter>
				</defs>
				<mask maskUnits="userSpaceOnUse" x="555.9" y="405.4" width="139.2" height="139.2" id="SVGID_1_">
				</mask>
				<radialGradient id="SVGID_2_" cx="625.5024" cy="475.0034" r="69.6037" gradientUnits="userSpaceOnUse">
					<stop  offset="0" style="stop-color:#FFFFFF"/>
					<stop  offset="0.2735" style="stop-color:#AFAFAF"/>
					<stop  offset="0.5868" style="stop-color:#595959"/>
					<stop  offset="0.7296" style="stop-color:#363636"/>
					<stop  offset="0.8991" style="stop-color:#101010"/>
					<stop  offset="0.9949" style="stop-color:#000000"/>
				</radialGradient>
				<path class="st5" d="M625.5,405.4c-38.4,0-69.6,31.2-69.6,69.6c0,38.4,31.2,69.6,69.6,69.6c38.4,0,69.6-31.2,69.6-69.6
					C695.1,436.6,663.9,405.4,625.5,405.4z"/>
			</g>
		</mask>
		<radialGradient id="SVGID_3_" cx="625.5024" cy="475.0034" r="69.6037" gradientUnits="userSpaceOnUse">
			<stop  offset="0" style="stop-color:#F5BE35"/>
			<stop  offset="0.432" style="stop-color:#F6DC6F"/>
			<stop  offset="0.7296" style="stop-color:#F6F190"/>
			<stop  offset="0.8519" style="stop-color:#DEECC1"/>
			<stop  offset="0.9467" style="stop-color:#CDE9E0"/>
			<stop  offset="0.9949" style="stop-color:#C6E8EB"/>
		</radialGradient>
		<path class="st6" d="M625.5,405.4c-38.4,0-69.6,31.2-69.6,69.6c0,38.4,31.2,69.6,69.6,69.6c38.4,0,69.6-31.2,69.6-69.6
			C695.1,436.6,663.9,405.4,625.5,405.4z"/>
	</g>
	<g class="st2">
		<path class="st7" d="M693,530.5c0,3.2-30.2,5.8-67.5,5.8s-67.5-2.6-67.5-5.8c0-3.2,30.2-5.8,67.5-5.8S693,527.3,693,530.5z"/>
		<g>
			<g>
				<path class="st8" d="M655,488.8c0-13.5-10.8-21.8-20.5-40c-2.7-5-7.2-12.4-8.6-25.2c-3.4,10.6-14.6,25.5-7.3,45.6
					c-4-4.1-7.7-9.3-7.9-15.1c-5.1,8.9-14.8,23.9-13.6,39.7c0.1,1.9,0.7,3.6,1.2,5.3h0c3.9,11.5,14.7,16.6,27.5,16.6
					c16,0,29.1-9.9,29.1-26C655.1,489.5,655.1,489.2,655,488.8z"/>
				<linearGradient id="SVGID_4_" gradientUnits="userSpaceOnUse" x1="625.9479" y1="515.4293" x2="625.9479" y2="466.2762">
					<stop  offset="0" style="stop-color:#F15A29"/>
					<stop  offset="7.017936e-02" style="stop-color:#F16D2A"/>
					<stop  offset="0.2369" style="stop-color:#F28E2E"/>
					<stop  offset="0.3959" style="stop-color:#F4A831"/>
					<stop  offset="0.5431" style="stop-color:#F6BA33"/>
					<stop  offset="0.6741" style="stop-color:#F7C633"/>
					<stop  offset="0.7755" style="stop-color:#F7CA34"/>
				</linearGradient>
				<path class="st9" d="M643.8,498.3c0-0.2,0-0.5,0-0.7c0-0.1,0-0.2,0-0.2c0,0,0-0.1,0-0.1c0-12.7-7.1-21.7-15.8-30.9
					c0.2,5.1,0.7,24.4-4.7,27c-6.2,2.9-9.7-8.4-9.4-12.6c-3.8,5.4-5.3,10-5.6,13.9c-0.2,1-0.3,2-0.3,3c0,9.9,8,17.9,17.9,17.9
					c9.5,0,17.3-7.5,17.8-16.9C643.8,498.5,643.8,498.4,643.8,498.3z"/>
			</g>
			<g>
				<g>
					<path class="st10" d="M656,531l0-8.8h-45.1c-4.2,0-7.7,3.7-7.7,8.8H656z"/>
					<path class="st11" d="M663.7,531c-0.2-4.9-3.5-8.8-7.6-8.8c-4.1,0-7.4,3.9-7.6,8.8H663.7z"/>
				</g>
				<g>
					<path class="st10" d="M647.8,522.2l0-8.8h-45.1c-4.2,0-7.7,3.7-7.7,8.8H647.8z"/>
					<path class="st11" d="M655.5,522.2c-0.2-4.9-3.5-8.8-7.6-8.8c-4.1,0-7.4,3.9-7.6,8.8H655.5z"/>
				</g>
				<g>
					<path class="st10" d="M639.7,531l0-8.8h-45.1c-4.2,0-7.7,3.7-7.7,8.8H639.7z"/>
					<path class="st11" d="M647.4,531c-0.2-4.9-3.5-8.8-7.6-8.8c-4.1,0-7.4,3.9-7.6,8.8H647.4z"/>
				</g>
			</g>
		</g>
	</g>
</g>
<g>
	<g id="Floating">
		<linearGradient id="SVGID_5_" gradientUnits="userSpaceOnUse" x1="461.5433" y1="564.2179" x2="461.5433" y2="870.7474">
			<stop  offset="0" style="stop-color:#2D6C8A"/>
			<stop  offset="0.2652" style="stop-color:#3D7D96"/>
			<stop  offset="0.8345" style="stop-color:#64B1BD"/>
			<stop  offset="1" style="stop-color:#72C4CC"/>
		</linearGradient>
		<path class="st12" d="M854.7,558.1H68.4c-4.8,0-8.8,4-8.8,8.8c0,4.8,4,8.8,8.8,8.8h201.2c4.5,0.4,8.1,4.1,8.1,8.7
			c0,4.6-3.6,8.4-8.1,8.7H144c-4.8,0-8.8,4-8.8,8.8c0,4.8,4,8.8,8.8,8.8h83.8c-4.8,0.1-8.7,4-8.7,8.8c0,4.8,4,8.8,8.8,8.8h88.8
			c4.8,0,8.8,4,8.8,8.8c0,4.8-4,8.8-8.8,8.8H210.4c-4.8,0-8.8,4-8.8,8.8v0c0,4.8,4,8.8,8.8,8.8h202.3c4.8,0,8.8,4,8.8,8.8v0
			c0,4.8-4,8.8-8.8,8.8h-74.7c-4.8,0-8.8,4-8.8,8.8c0,4.8,4,8.8,8.8,8.8h167.4c-4.4,0.5-7.8,4.2-7.8,8.7c0,4.8,4,8.8,8.8,8.8H589
			c4.8,0,8.8-4,8.8-8.8c0-4.8-4-8.8-8.8-8.8h-30.9c-4.4-0.5-7.8-4.2-7.8-8.7c0-4.8,4-8.8,8.8-8.8h100.2c4.8,0,8.8-4,8.8-8.8v0
			c0-4.8-4-8.8-8.8-8.8H497.8c-4.8,0-8.8-4-8.8-8.8v0c0-4.8,4-8.8,8.8-8.8h222.8c4.8,0,8.8-4,8.8-8.8c0-4.8-4-8.8-8.8-8.8h61.3
			c4.8,0,8.8-4,8.8-8.8c0-4.8-4-8.8-8.8-8.8h-80.2c-4.8-0.1-8.7-4-8.7-8.8c0-4.6,3.6-8.4,8.1-8.7h93.5c4.8,0,8.8-4,8.8-8.8
			c0-4.6-3.6-8.4-8.1-8.7h59.4c4.8,0,8.8-4,8.8-8.8C863.5,562.1,859.5,558.1,854.7,558.1z M354.9,628.3c-4.8,0-8.8-4-8.8-8.8
			c0-4.8,3.9-8.7,8.7-8.8h38.5c4.8,0.1,8.7,4,8.7,8.8c0,4.8-4,8.8-8.8,8.8H354.9z M675,601.9c0,4.8-3.9,8.7-8.7,8.8h-32.2
			c-4.8-0.1-8.7-4-8.7-8.8c0-4.6,3.6-8.4,8.1-8.7H667C671.5,593.6,675,597.4,675,601.9z"/>
		<path class="st13" d="M875.6,558.1H47.5c-13.8,0-25-11.2-25-25v-2.3c0-13.8,11.2-25,25-25h828.1c13.8,0,25,11.2,25,25v2.3
			C900.6,546.9,889.3,558.1,875.6,558.1z"/>
	</g>
	<g id="Mountains__x26__Trees">
		<g id="Mountains">
			<g>
				<polygon class="st14" points="756.9,505.8 464.4,0 171.9,505.8 				"/>
				<defs>
					<filter id="Adobe_OpacityMaskFilter_2_" filterUnits="userSpaceOnUse" x="464.4" y="0" width="292.5" height="505.8">
						<feFlood  style="flood-color:white;flood-opacity:1" result="back"/>
						<feBlend  in="SourceGraphic" in2="back" mode="normal"/>
					</filter>
				</defs>
				<mask maskUnits="userSpaceOnUse" x="464.4" y="0" width="292.5" height="505.8" id="SVGID_6_">
					<g class="st15">
						<defs>
							<filter id="Adobe_OpacityMaskFilter_3_" filterUnits="userSpaceOnUse" x="464.4" y="0" width="292.5" height="505.8">
								<feFlood  style="flood-color:white;flood-opacity:1" result="back"/>
								<feBlend  in="SourceGraphic" in2="back" mode="normal"/>
							</filter>
						</defs>
						<mask maskUnits="userSpaceOnUse" x="464.4" y="0" width="292.5" height="505.8" id="SVGID_6_">
						</mask>
						<linearGradient id="SVGID_7_" gradientUnits="userSpaceOnUse" x1="610.6772" y1="505.8254" x2="610.6772" y2="-9.094947e-13">
							<stop  offset="0.561" style="stop-color:#000000"/>
							<stop  offset="0.6418" style="stop-color:#2A2A2A"/>
							<stop  offset="0.8224" style="stop-color:#949494"/>
							<stop  offset="0.9949" style="stop-color:#FFFFFF"/>
						</linearGradient>
						<polygon class="st17" points="756.9,505.8 464.4,0 464.4,505.8 						"/>
					</g>
				</mask>
				<linearGradient id="SVGID_8_" gradientUnits="userSpaceOnUse" x1="610.6772" y1="505.8254" x2="610.6772" y2="-9.094947e-13">
					<stop  offset="0.561" style="stop-color:#C6E8EB"/>
					<stop  offset="0.9065" style="stop-color:#CED7D8"/>
					<stop  offset="0.9949" style="stop-color:#D1D3D4"/>
				</linearGradient>
				<polygon class="st18" points="756.9,505.8 464.4,0 464.4,505.8 				"/>
			</g>
			<g>
				<polygon class="st14" points="465.9,505.8 268.7,164.7 71.4,505.8 				"/>
				<defs>
					<filter id="Adobe_OpacityMaskFilter_4_" filterUnits="userSpaceOnUse" x="268.7" y="164.7" width="197.2" height="341.1">
						<feFlood  style="flood-color:white;flood-opacity:1" result="back"/>
						<feBlend  in="SourceGraphic" in2="back" mode="normal"/>
					</filter>
				</defs>
				<mask maskUnits="userSpaceOnUse" x="268.7" y="164.7" width="197.2" height="341.1" id="SVGID_9_">
					<g class="st19">
						<defs>
							<filter id="Adobe_OpacityMaskFilter_5_" filterUnits="userSpaceOnUse" x="268.7" y="164.7" width="197.2" height="341.1">
								<feFlood  style="flood-color:white;flood-opacity:1" result="back"/>
								<feBlend  in="SourceGraphic" in2="back" mode="normal"/>
							</filter>
						</defs>
						<mask maskUnits="userSpaceOnUse" x="268.7" y="164.7" width="197.2" height="341.1" id="SVGID_9_">
						</mask>
						
							<linearGradient id="SVGID_10_" gradientUnits="userSpaceOnUse" x1="4874.3633" y1="759.9799" x2="4874.3633" y2="164.7495" gradientTransform="matrix(-1 0 0 1 5241.6367 0)">
							<stop  offset="0.6427" style="stop-color:#000000"/>
							<stop  offset="0.7082" style="stop-color:#2A2A2A"/>
							<stop  offset="0.8548" style="stop-color:#949494"/>
							<stop  offset="0.9949" style="stop-color:#FFFFFF"/>
						</linearGradient>
						<polygon class="st21" points="465.9,505.8 268.7,164.7 268.7,505.8 						"/>
					</g>
				</mask>
				
					<linearGradient id="SVGID_11_" gradientUnits="userSpaceOnUse" x1="4874.3633" y1="759.9799" x2="4874.3633" y2="164.7495" gradientTransform="matrix(-1 0 0 1 5241.6367 0)">
					<stop  offset="0.6427" style="stop-color:#C6E8EB"/>
					<stop  offset="0.9232" style="stop-color:#CED7D8"/>
					<stop  offset="0.9949" style="stop-color:#D1D3D4"/>
				</linearGradient>
				<polygon class="st22" points="465.9,505.8 268.7,164.7 268.7,505.8 				"/>
			</g>
			<g>
				<polygon class="st14" points="852.5,505.8 615.2,95.4 377.9,505.8 				"/>
				<defs>
					<filter id="Adobe_OpacityMaskFilter_6_" filterUnits="userSpaceOnUse" x="615.2" y="95.4" width="237.3" height="410.4">
						<feFlood  style="flood-color:white;flood-opacity:1" result="back"/>
						<feBlend  in="SourceGraphic" in2="back" mode="normal"/>
					</filter>
				</defs>
				<mask maskUnits="userSpaceOnUse" x="615.2" y="95.4" width="237.3" height="410.4" id="SVGID_12_">
					<g class="st23">
						<defs>
							<filter id="Adobe_OpacityMaskFilter_7_" filterUnits="userSpaceOnUse" x="615.2" y="95.4" width="237.3" height="410.4">
								<feFlood  style="flood-color:white;flood-opacity:1" result="back"/>
								<feBlend  in="SourceGraphic" in2="back" mode="normal"/>
							</filter>
						</defs>
						<mask maskUnits="userSpaceOnUse" x="615.2" y="95.4" width="237.3" height="410.4" id="SVGID_12_">
						</mask>
						
							<linearGradient id="SVGID_13_" gradientUnits="userSpaceOnUse" x1="4507.7451" y1="811.6427" x2="4507.7451" y2="95.4179" gradientTransform="matrix(-1 0 0 1 5241.6367 0)">
							<stop  offset="0.561" style="stop-color:#000000"/>
							<stop  offset="0.6418" style="stop-color:#2A2A2A"/>
							<stop  offset="0.8224" style="stop-color:#949494"/>
							<stop  offset="0.9949" style="stop-color:#FFFFFF"/>
						</linearGradient>
						<polygon class="st25" points="852.5,505.8 615.2,95.4 615.2,505.8 						"/>
					</g>
				</mask>
				
					<linearGradient id="SVGID_14_" gradientUnits="userSpaceOnUse" x1="4507.7451" y1="811.6427" x2="4507.7451" y2="95.4179" gradientTransform="matrix(-1 0 0 1 5241.6367 0)">
					<stop  offset="0.561" style="stop-color:#C6E8EB"/>
					<stop  offset="0.9065" style="stop-color:#CED7D8"/>
					<stop  offset="0.9949" style="stop-color:#D1D3D4"/>
				</linearGradient>
				<polygon class="st26" points="852.5,505.8 615.2,95.4 615.2,505.8 				"/>
			</g>
		</g>
		<g id="Back_Bushes">
			<g>
				<linearGradient id="SVGID_15_" gradientUnits="userSpaceOnUse" x1="174.3628" y1="192.3172" x2="174.3628" y2="504.3055">
					<stop  offset="0" style="stop-color:#0E405B"/>
					<stop  offset="0.373" style="stop-color:#0E3E59"/>
					<stop  offset="0.8418" style="stop-color:#0F3851"/>
					<stop  offset="1" style="stop-color:#0F354D"/>
				</linearGradient>
				<path class="st27" d="M285.9,505.8v-15.9c8.2-2.9,14.1-10.7,14.1-19.9c0-11.7-9.5-21.1-21.1-21.1c-5.9,0-11.1,2.4-15,6.2
					c-2.4-5.9-8.2-10.1-15-10.1c-5.4,0-10.1,2.6-13.1,6.7c-3.4-2.3-7.4-3.6-11.7-3.6c-10.1,0-18.5,7-20.6,16.5
					c-2.9-3.1-7.1-5-11.7-5c-4.3,0-8.3,1.7-11.2,4.5c-2.6-8.7-10.7-15.1-20.2-15.1c-11.7,0-21.1,9.5-21.1,21.1c0,0.6,0,1.1,0.1,1.7
					c0,0-0.1,0-0.1,0c-4.5,0-8.5,1.8-11.5,4.8c-3-5.2-8.6-8.7-15-8.7c-5.9,0-11.1,2.9-14.2,7.4c-3.3-2.2-7.3-3.5-11.6-3.5
					c-10.7,0-19.5,7.9-20.9,18.3c-0.4,0-0.8-0.1-1.2-0.1c-8.9,0-16,7.1-16.2,16H285.9z"/>
				<linearGradient id="SVGID_16_" gradientUnits="userSpaceOnUse" x1="747.2946" y1="192.3172" x2="747.2946" y2="504.3055">
					<stop  offset="0" style="stop-color:#0E405B"/>
					<stop  offset="0.373" style="stop-color:#0E3E59"/>
					<stop  offset="0.8418" style="stop-color:#0F3851"/>
					<stop  offset="1" style="stop-color:#0F354D"/>
				</linearGradient>
				<path class="st28" d="M635.7,505.8v-15.9c-8.2-2.9-14.1-10.7-14.1-19.9c0-11.7,9.5-21.1,21.1-21.1c5.9,0,11.1,2.4,15,6.2
					c2.4-5.9,8.2-10.1,15-10.1c5.4,0,10.1,2.6,13.1,6.7c3.4-2.3,7.4-3.6,11.7-3.6c10.1,0,18.5,7,20.6,16.5c2.9-3.1,7.1-5,11.7-5
					c4.3,0,8.3,1.7,11.2,4.5c2.6-8.7,10.7-15.1,20.2-15.1c11.7,0,21.1,9.5,21.1,21.1c0,0.6,0,1.1-0.1,1.7c0,0,0.1,0,0.1,0
					c4.5,0,8.5,1.8,11.5,4.8c3-5.2,8.6-8.7,15-8.7c5.9,0,11.1,2.9,14.2,7.4c3.3-2.2,7.3-3.5,11.6-3.5c10.7,0,19.5,7.9,20.9,18.3
					c0.4,0,0.8-0.1,1.2-0.1c8.9,0,16,7.1,16.2,16H635.7z"/>
			</g>
		</g>
		<g id="Back_Trees">
			<g>
				<g>
					<g>
						<linearGradient id="SVGID_17_" gradientUnits="userSpaceOnUse" x1="358.044" y1="192.317" x2="358.044" y2="504.3062">
							<stop  offset="0" style="stop-color:#0E405B"/>
							<stop  offset="0.373" style="stop-color:#0E3E59"/>
							<stop  offset="0.8418" style="stop-color:#0F3851"/>
							<stop  offset="1" style="stop-color:#0F354D"/>
						</linearGradient>
						<polygon class="st29" points="288,459 257.8,505.8 458.3,505.8 428.1,459 452.2,459 413.4,398.8 431.4,398.8 398.2,347.4 
							415.2,347.4 382.3,296.5 399.7,296.5 358,231.9 316.4,296.5 333.8,296.5 300.9,347.4 317.9,347.4 284.7,398.8 302.7,398.8 
							263.9,459 						"/>
					</g>
				</g>
				<g>
					<g>
						<linearGradient id="SVGID_18_" gradientUnits="userSpaceOnUse" x1="307.8996" y1="533.9752" x2="307.8996" y2="231.939">
							<stop  offset="0" style="stop-color:#0F354D"/>
							<stop  offset="0.4261" style="stop-color:#184762"/>
							<stop  offset="1" style="stop-color:#225D7E"/>
						</linearGradient>
						<polygon class="st30" points="291.6,453.3 257.8,505.8 358,505.8 358,231.9 316.4,296.5 337.2,291.2 300.9,347.4 321.7,341.5 
							284.7,398.8 307.2,391.8 263.9,459 						"/>
					</g>
				</g>
			</g>
			<g>
				<g>
					<g>
						<linearGradient id="SVGID_19_" gradientUnits="userSpaceOnUse" x1="464.5487" y1="192.3171" x2="464.5487" y2="504.3051">
							<stop  offset="0" style="stop-color:#0E405B"/>
							<stop  offset="0.373" style="stop-color:#0E3E59"/>
							<stop  offset="0.8418" style="stop-color:#0F3851"/>
							<stop  offset="1" style="stop-color:#0F354D"/>
						</linearGradient>
						<polygon class="st31" points="590,505.8 538.8,426.4 564.3,426.4 523.2,362.7 542.2,362.7 507.1,308.2 525.1,308.2 
							490.3,254.3 508.7,254.3 464.5,185.9 420.4,254.3 438.8,254.3 404,308.2 422,308.2 386.9,362.7 405.9,362.7 364.8,426.4 
							390.3,426.4 339.1,505.8 						"/>
					</g>
				</g>
				<g>
					<linearGradient id="SVGID_20_" gradientUnits="userSpaceOnUse" x1="401.8089" y1="505.8254" x2="401.8089" y2="185.886">
						<stop  offset="0" style="stop-color:#0F354D"/>
						<stop  offset="0.4261" style="stop-color:#184762"/>
						<stop  offset="1" style="stop-color:#225D7E"/>
					</linearGradient>
					<polygon class="st32" points="464.5,505.8 464.5,185.9 420.4,254.3 442.5,248.7 404,308.2 426.1,301.9 386.9,362.7 
						410.7,355.2 364.8,426.4 394.2,420.4 339.1,505.8 					"/>
				</g>
			</g>
			<g>
				<g>
					<g>
						<g>
							<linearGradient id="SVGID_21_" gradientUnits="userSpaceOnUse" x1="592.2183" y1="192.317" x2="592.2183" y2="504.3057">
								<stop  offset="0" style="stop-color:#0E405B"/>
								<stop  offset="0.373" style="stop-color:#0E3E59"/>
								<stop  offset="0.8418" style="stop-color:#0F3851"/>
								<stop  offset="1" style="stop-color:#0F354D"/>
							</linearGradient>
							<polygon class="st33" points="533.7,466.7 508.5,505.8 676,505.8 650.7,466.7 670.9,466.7 638.4,416.5 653.5,416.5 
								625.7,373.5 639.9,373.5 612.5,331 627,331 592.2,277.1 557.4,331 571.9,331 544.5,373.5 558.7,373.5 531,416.5 546,416.5 
								513.6,466.7 							"/>
						</g>
					</g>
				</g>
				<g>
					<linearGradient id="SVGID_22_" gradientUnits="userSpaceOnUse" x1="550.3405" y1="529.3345" x2="550.3405" y2="277.0911">
						<stop  offset="0" style="stop-color:#0F354D"/>
						<stop  offset="0.4261" style="stop-color:#184762"/>
						<stop  offset="1" style="stop-color:#225D7E"/>
					</linearGradient>
					<polygon class="st34" points="536.8,462 508.5,505.8 592.2,505.8 592.2,277.1 557.4,331 574.8,326.6 544.5,373.5 561.9,368.6 
						531,416.5 549.8,410.6 513.6,466.7 					"/>
				</g>
			</g>
		</g>
		<g id="Front_Trees">
			<g>
				<g>
					<linearGradient id="SVGID_23_" gradientUnits="userSpaceOnUse" x1="693.8802" y1="479.8013" x2="693.8802" y2="398.5126">
						<stop  offset="0.2755" style="stop-color:#2D6C8A"/>
						<stop  offset="0.4163" style="stop-color:#306F8C"/>
						<stop  offset="0.5876" style="stop-color:#387893"/>
						<stop  offset="0.7746" style="stop-color:#46889F"/>
						<stop  offset="0.9717" style="stop-color:#59A1B2"/>
						<stop  offset="1" style="stop-color:#5CA5B5"/>
					</linearGradient>
					<circle class="st35" cx="693.9" cy="439.2" r="40.6"/>
				</g>
				<path class="st10" d="M715.3,446.7h-3.7c-1.5,2.9-5.4,9.3-12.2,14.1l0,0c0,0-1.3,0.9-2.2,0.6c-1.1-0.4-1.6-1.6-1.7-5.8V439h-3.3
					v15.4c-0.1,5.2-0.5,6.6-1.7,7c-1,0.3-2.2-0.6-2.2-0.6l0,0c-6.7-4.8-10.6-11.2-12.2-14.1h-3.7c0.7,1.5,4.5,9.5,12.4,15.7l0,0
					c0,0,5.2,3.9,5.2,8.9v34.6h7.7v-35c0.3-4.8,5.2-8.5,5.2-8.5l0,0C710.8,456.2,714.6,448.3,715.3,446.7z"/>
			</g>
			<g>
				<g>
					<g>
						<linearGradient id="SVGID_24_" gradientUnits="userSpaceOnUse" x1="274.0736" y1="466.1237" x2="274.0736" y2="355.4501">
							<stop  offset="0.2755" style="stop-color:#2D6C8A"/>
							<stop  offset="0.4163" style="stop-color:#306F8C"/>
							<stop  offset="0.5876" style="stop-color:#387893"/>
							<stop  offset="0.7746" style="stop-color:#46889F"/>
							<stop  offset="0.9717" style="stop-color:#59A1B2"/>
							<stop  offset="1" style="stop-color:#5CA5B5"/>
						</linearGradient>
						<circle class="st36" cx="274.1" cy="410.8" r="55.3"/>
					</g>
					<path class="st10" d="M303.2,421.1h-5c-2.1,3.9-7.4,12.7-16.6,19.2l0,0c0,0-1.8,1.3-3.1,0.8c-1.5-0.5-2.2-2.2-2.3-7.9v-22.6
						h-4.5v20.9c-0.1,7.1-0.7,9-2.4,9.6c-1.3,0.5-3.1-0.8-3.1-0.8l0,0c-9.1-6.5-14.5-15.3-16.6-19.2h-5c0.9,2.1,6.2,12.9,16.9,21.3
						l0,0c0,0,7.1,5.3,7.1,12.1v51.3h10.5v-51.9c0.4-6.5,7-11.5,7-11.5l0,0C297.1,434,302.3,423.2,303.2,421.1z"/>
				</g>
				<g>
					<g>
						<linearGradient id="SVGID_25_" gradientUnits="userSpaceOnUse" x1="222.677" y1="479.5833" x2="222.677" y2="406.4301">
							<stop  offset="0.2755" style="stop-color:#2D6C8A"/>
							<stop  offset="0.4163" style="stop-color:#306F8C"/>
							<stop  offset="0.5876" style="stop-color:#387893"/>
							<stop  offset="0.7746" style="stop-color:#46889F"/>
							<stop  offset="0.9717" style="stop-color:#59A1B2"/>
							<stop  offset="1" style="stop-color:#5CA5B5"/>
						</linearGradient>
						<circle class="st37" cx="222.7" cy="443" r="36.6"/>
					</g>
					<path class="st10" d="M242,449.8h-3.3c-1.4,2.6-4.9,8.4-11,12.7l0,0c0,0-1.2,0.8-2,0.5c-1-0.4-1.4-1.5-1.5-5.2v-14.9h-3v13.8
						c-0.1,4.7-0.5,6-1.6,6.3c-0.9,0.3-2-0.5-2-0.5l0,0c-6-4.3-9.6-10.1-11-12.7h-3.3c0.6,1.4,4.1,8.5,11.2,14.1l0,0
						c0,0,4.7,3.5,4.7,8v33.9h6.9v-34.3c0.2-4.3,4.7-7.6,4.7-7.6l0,0C237.9,458.3,241.3,451.2,242,449.8z"/>
				</g>
			</g>
		</g>
	</g>
	<g id="Clouds__x26__Shadows__x28_Left_to_Right_x29_">
		<g>
			<path class="st38" d="M786.7,224.2c-2.6,0-5,0.6-7.1,1.6c-2.7-15.6-16.2-27.4-32.6-27.4c-13.6,0-25.3,8.2-30.4,20
				c-3.1-1.7-6.6-2.7-10.4-2.7c-10.8,0-19.7,7.9-21.3,18.2c-1.9-3.7-5.8-6.2-10.2-6.2c-4,0-7.5,2-9.6,5.1c-3.5-5.4-9.5-9-16.4-9
				c-9.4,0-17.2,6.6-19.1,15.5h173.6C802.5,230.8,795.4,224.2,786.7,224.2z"/>
			<defs>
				<filter id="Adobe_OpacityMaskFilter_8_" filterUnits="userSpaceOnUse" x="629.7" y="239.3" width="244.3" height="122">
					<feFlood  style="flood-color:white;flood-opacity:1" result="back"/>
					<feBlend  in="SourceGraphic" in2="back" mode="normal"/>
				</filter>
			</defs>
			<mask maskUnits="userSpaceOnUse" x="629.7" y="239.3" width="244.3" height="122" id="SVGID_26_">
				<g class="st39">
					<defs>
						<filter id="Adobe_OpacityMaskFilter_9_" filterUnits="userSpaceOnUse" x="629.7" y="239.3" width="244.3" height="122">
							<feFlood  style="flood-color:white;flood-opacity:1" result="back"/>
							<feBlend  in="SourceGraphic" in2="back" mode="normal"/>
						</filter>
					</defs>
					<mask maskUnits="userSpaceOnUse" x="629.7" y="239.3" width="244.3" height="122" id="SVGID_26_">
					</mask>
					<linearGradient id="SVGID_27_" gradientUnits="userSpaceOnUse" x1="751.8137" y1="374.1801" x2="751.8137" y2="230.2191">
						<stop  offset="0.3774" style="stop-color:#000000"/>
						<stop  offset="0.4933" style="stop-color:#2A2A2A"/>
						<stop  offset="0.7524" style="stop-color:#949494"/>
						<stop  offset="1" style="stop-color:#FFFFFF"/>
					</linearGradient>
					<polygon class="st41" points="803.4,239.3 629.7,239.3 700.2,361.4 874,361.4 					"/>
				</g>
			</mask>
			<linearGradient id="SVGID_28_" gradientUnits="userSpaceOnUse" x1="751.8137" y1="374.1801" x2="751.8137" y2="230.2191">
				<stop  offset="0.3774" style="stop-color:#F1F2F2"/>
				<stop  offset="0.8964" style="stop-color:#CED0D1"/>
				<stop  offset="1" style="stop-color:#C7C8CA"/>
			</linearGradient>
			<polygon class="st42" points="803.4,239.3 629.7,239.3 700.2,361.4 874,361.4 			"/>
		</g>
		<g>
			<g>
				<defs>
					<filter id="Adobe_OpacityMaskFilter_10_" filterUnits="userSpaceOnUse" x="287.6" y="139.1" width="295.6" height="122">
						<feFlood  style="flood-color:white;flood-opacity:1" result="back"/>
						<feBlend  in="SourceGraphic" in2="back" mode="normal"/>
					</filter>
				</defs>
				<mask maskUnits="userSpaceOnUse" x="287.6" y="139.1" width="295.6" height="122" id="SVGID_29_">
					<g class="st43">
						<defs>
							<filter id="Adobe_OpacityMaskFilter_11_" filterUnits="userSpaceOnUse" x="287.6" y="139.1" width="295.6" height="122">
								<feFlood  style="flood-color:white;flood-opacity:1" result="back"/>
								<feBlend  in="SourceGraphic" in2="back" mode="normal"/>
							</filter>
						</defs>
						<mask maskUnits="userSpaceOnUse" x="287.6" y="139.1" width="295.6" height="122" id="SVGID_29_">
						</mask>
						<linearGradient id="SVGID_30_" gradientUnits="userSpaceOnUse" x1="435.373" y1="273.9829" x2="435.373" y2="130.0218">
							<stop  offset="0.3774" style="stop-color:#000000"/>
							<stop  offset="0.4933" style="stop-color:#2A2A2A"/>
							<stop  offset="0.7524" style="stop-color:#949494"/>
							<stop  offset="1" style="stop-color:#FFFFFF"/>
						</linearGradient>
						<polygon class="st45" points="512.6,139.1 287.6,139.1 358.1,261.2 583.2,261.2 						"/>
					</g>
				</mask>
				<linearGradient id="SVGID_31_" gradientUnits="userSpaceOnUse" x1="435.373" y1="273.9829" x2="435.373" y2="130.0218">
					<stop  offset="0.3774" style="stop-color:#F1F2F2"/>
					<stop  offset="0.8964" style="stop-color:#CED0D1"/>
					<stop  offset="1" style="stop-color:#C7C8CA"/>
				</linearGradient>
				<polygon class="st46" points="512.6,139.1 287.6,139.1 358.1,261.2 583.2,261.2 				"/>
			</g>
			<path class="st38" d="M287.6,139.1c1.2-5.5,6.1-9.7,12-9.7c4,0,7.5,1.9,9.8,4.9c2.6-8.5,10.5-14.7,19.9-14.7
				c3.4,0,6.6,0.8,9.4,2.2c0.3-15.2,12.7-27.5,28-27.5c13.3,0,24.4,9.2,27.3,21.6c3.8-3,8.7-4.9,13.9-4.9c10.6,0,19.5,7.4,21.9,17.4
				c2.7-2.3,6.3-3.8,10.2-3.8c5.9,0,11.1,3.3,13.7,8.1c2.3-9,10.4-15.7,20.2-15.7c9.8,0,18,6.8,20.2,15.9c2-1.5,4.5-2.3,7.2-2.3
				c5.4,0,10,3.5,11.7,8.4H287.6z"/>
		</g>
		<g>
			<g>
				<defs>
					<filter id="Adobe_OpacityMaskFilter_12_" filterUnits="userSpaceOnUse" x="94" y="297.3" width="223" height="116.4">
						<feFlood  style="flood-color:white;flood-opacity:1" result="back"/>
						<feBlend  in="SourceGraphic" in2="back" mode="normal"/>
					</filter>
				</defs>
				<mask maskUnits="userSpaceOnUse" x="94" y="297.3" width="223" height="116.4" id="SVGID_32_">
					<g class="st47">
						<defs>
							<filter id="Adobe_OpacityMaskFilter_13_" filterUnits="userSpaceOnUse" x="94" y="297.3" width="223" height="116.4">
								<feFlood  style="flood-color:white;flood-opacity:1" result="back"/>
								<feBlend  in="SourceGraphic" in2="back" mode="normal"/>
							</filter>
						</defs>
						<mask maskUnits="userSpaceOnUse" x="94" y="297.3" width="223" height="116.4" id="SVGID_32_">
						</mask>
						<linearGradient id="SVGID_33_" gradientUnits="userSpaceOnUse" x1="205.4608" y1="425.9202" x2="205.4608" y2="288.6397">
							<stop  offset="0.3774" style="stop-color:#000000"/>
							<stop  offset="0.4933" style="stop-color:#2A2A2A"/>
							<stop  offset="0.7524" style="stop-color:#949494"/>
							<stop  offset="1" style="stop-color:#FFFFFF"/>
						</linearGradient>
						<polygon class="st49" points="249.7,297.3 94,297.3 161.3,413.7 317,413.7 						"/>
					</g>
				</mask>
				<linearGradient id="SVGID_34_" gradientUnits="userSpaceOnUse" x1="205.4608" y1="425.9202" x2="205.4608" y2="288.6397">
					<stop  offset="0.3774" style="stop-color:#F1F2F2"/>
					<stop  offset="0.8964" style="stop-color:#CED0D1"/>
					<stop  offset="1" style="stop-color:#C7C8CA"/>
				</linearGradient>
				<polygon class="st50" points="249.7,297.3 94,297.3 161.3,413.7 317,413.7 				"/>
			</g>
			<path class="st38" d="M238.9,288.7c-3.7,0-6.9,1.8-8.9,4.5c0-0.1-0.1-0.2-0.1-0.2c0.3-3.1-0.9-7.4-0.9-7.4
				c-2.8-8.6-10.8-14.8-20.3-14.8c-5,0-9.6,1.7-13.3,4.6c-2.8-11.8-13.4-20.6-26-20.6c-14.6,0-26.5,11.7-26.7,26.2
				c-2.7-1.4-5.7-2.1-8.9-2.1c-8.9,0-16.5,5.9-19,14c-2.1-2.8-5.5-4.6-9.3-4.6c-5.6,0-10.3,4-11.5,9.3h155.7
				C248.7,292.5,244.2,288.7,238.9,288.7z"/>
		</g>
	</g>
	<g id="Stars__x26__Moon">
		<g id="Stars__x28_Left_to_Right_x29_">
			<polygon class="st51" points="795.1,65.8 796.4,69.3 799.9,70.6 796.4,71.9 795.1,75.5 793.8,71.9 790.2,70.6 793.8,69.3 			"/>
			<polygon class="st51" points="718,87.8 719.7,92.8 724.7,94.6 719.7,96.4 718,101.4 716.2,96.4 711.2,94.6 716.2,92.8 			"/>
			<polygon class="st51" points="693.7,26.4 695.4,32.7 701.6,34.3 695.4,35.9 693.7,42.2 692.1,35.9 685.9,34.3 692.1,32.7 			"/>
			<polygon class="st51" points="672.2,40.6 673.5,44.1 677.1,45.4 673.5,46.7 672.2,50.2 670.9,46.7 667.4,45.4 670.9,44.1 			"/>
			<polygon class="st51" points="587.6,65.4 588.6,68.3 591.6,69.3 588.6,70.4 587.6,73.3 586.5,70.4 583.6,69.3 586.5,68.3 			"/>
			<polygon class="st51" points="553.7,52.9 555.2,57 559.2,58.4 555.2,59.8 553.7,63.8 552.3,59.8 548.3,58.4 552.3,57 			"/>
			<polygon class="st51" points="379.5,26.4 381.2,32.7 387.4,34.3 381.2,35.9 379.5,42.2 377.9,35.9 371.7,34.3 377.9,32.7 			"/>
			<polygon class="st51" points="346.6,54.4 347.7,57.3 350.6,58.4 347.7,59.4 346.6,62.4 345.6,59.4 342.7,58.4 345.6,57.3 			"/>
			<polygon class="st51" points="289,73 290,76 292.9,77 290,78.1 289,81 287.9,78.1 285,77 287.9,76 			"/>
			<polygon class="st51" points="270.1,57.1 271.9,62 276.9,63.8 271.9,65.6 270.1,70.6 268.3,65.6 263.4,63.8 268.3,62 			"/>
			<polygon class="st51" points="186.3,28.9 187.7,32.9 191.7,34.3 187.7,35.7 186.3,39.7 184.9,35.7 180.9,34.3 184.9,32.9 			"/>
			<polygon class="st51" points="109,74.2 110.8,79.2 115.8,81 110.8,82.8 109,87.8 107.2,82.8 102.2,81 107.2,79.2 			"/>
		</g>
		<g id="Moon">
			<defs>
				<filter id="Adobe_OpacityMaskFilter_14_" filterUnits="userSpaceOnUse" x="135.5" y="86.2" width="80" height="80">
					<feColorMatrix  type="matrix" values="1 0 0 0 0  0 1 0 0 0  0 0 1 0 0  0 0 0 1 0"/>
				</filter>
			</defs>
			<mask maskUnits="userSpaceOnUse" x="135.5" y="86.2" width="80" height="80" id="SVGID_35_">
				<g class="st52">
					<defs>
						<filter id="Adobe_OpacityMaskFilter_15_" filterUnits="userSpaceOnUse" x="135.5" y="86.2" width="80" height="80">
							<feFlood  style="flood-color:white;flood-opacity:1" result="back"/>
							<feBlend  in="SourceGraphic" in2="back" mode="normal"/>
						</filter>
					</defs>
					<mask maskUnits="userSpaceOnUse" x="135.5" y="86.2" width="80" height="80" id="SVGID_35_">
					</mask>
					<radialGradient id="SVGID_36_" cx="175.5429" cy="126.1854" r="40" gradientUnits="userSpaceOnUse">
						<stop  offset="0.5765" style="stop-color:#595959"/>
						<stop  offset="0.7032" style="stop-color:#3B3B3B"/>
						<stop  offset="0.8995" style="stop-color:#101010"/>
						<stop  offset="1" style="stop-color:#000000"/>
					</radialGradient>
					<circle class="st54" cx="175.5" cy="126.2" r="40"/>
				</g>
			</mask>
			<radialGradient id="SVGID_37_" cx="175.5429" cy="126.1854" r="40" gradientUnits="userSpaceOnUse">
				<stop  offset="0.5765" style="stop-color:#FFFDE9"/>
				<stop  offset="1" style="stop-color:#FFFDE9"/>
			</radialGradient>
			<circle class="st55" cx="175.5" cy="126.2" r="40"/>
			<g>
				<path class="st51" d="M174.8,150.6c1.6,0,3.2-0.2,4.7-0.5c-11.2-2.2-19.6-12-19.6-23.8s8.4-21.6,19.6-23.8
					c-1.5-0.3-3.1-0.5-4.7-0.5c-13.4,0-24.3,10.9-24.3,24.3C150.5,139.8,161.4,150.6,174.8,150.6z"/>
			</g>
		</g>
	</g>
	<g id="Tent">
		<g id="Outer_Tent">
			<g>
				<polygon class="st56" points="572.4,462.1 464.5,340.9 357.3,462.1 370.7,505.8 559,505.8 				"/>
				<polygon class="st57" points="572.4,462.1 464.5,340.9 464.5,505.8 559,505.8 				"/>
			</g>
			<g>
				<g>
					<g>
						<path class="st10" d="M316.6,505.4v-4.6c0-0.7-0.6-1.4-1.4-1.4c-0.7,0-1.4,0.6-1.4,1.4v4.6H316.6z"/>
						<path class="st58" d="M313.9,505.9h3.6l51.3-55c0.3-0.4,0.3-0.9,0-1.3c-0.4-0.3-0.9-0.3-1.3,0L316.6,504h-2.8
							c-0.5,0-0.9,0.4-0.9,0.9C313,505.4,313.4,505.9,313.9,505.9z"/>
					</g>
					<g>
						<polygon class="st59" points="464.5,387.7 464.5,366.2 345.2,473.4 						"/>
						<polygon class="st60" points="345,473.5 464.5,377.6 464.5,340.9 						"/>
						<polygon class="st61" points="345,473.5 360,470.8 357.7,463.4 						"/>
					</g>
				</g>
				<g>
					<g>
						<path class="st10" d="M612.5,505.5v-4.6c0-0.7,0.6-1.4,1.4-1.4s1.4,0.6,1.4,1.4v4.6H612.5z"/>
						<path class="st62" d="M611.6,505.9h3.6c0.5,0,0.9-0.4,0.9-0.9c0-0.5-0.4-0.9-0.9-0.9h-2.8l-50.8-54.5c-0.3-0.4-0.9-0.4-1.3,0
							c-0.4,0.3-0.4,0.9,0,1.3L611.6,505.9z"/>
					</g>
					<g>
						<polygon class="st59" points="464.5,387.7 464.5,366.2 583.9,473.5 						"/>
						<polygon class="st56" points="584,473.5 464.5,377.6 464.5,340.9 						"/>
						<polygon class="st62" points="584,473.5 569.6,471 571.9,463.8 						"/>
					</g>
				</g>
			</g>
		</g>
		<g id="Outer_Flaps__x26__Inside">
			<path class="st10" d="M504.1,505.8c-30.7-43.6-38-97.3-39.3-109l-0.2-2.2c0-0.1,0-0.1,0-0.1l0,0l0,0c0,0,0,0.1,0,0.4l-0.2,1.7
				c-1.2,11.1-8.4,65.4-39.4,109.3L504.1,505.8z"/>
			<path class="st62" d="M464.5,394.4c0,0,4.3,64.9,39.6,111.4c0,0,13.5-4.4,20.1-14.1C524.2,491.7,482.2,457,464.5,394.4z"/>
			<path class="st57" d="M464.5,394.4c0,0-4.3,64.9-39.6,111.4c0,0-13.5-4.4-20.1-14.1C404.8,491.7,446.8,457,464.5,394.4z"/>
		</g>
	</g>
	<g id="Book">
		<path class="st38" d="M859.7,722.6c-7.9-7.4-13.7-16.2-17.3-26.4c-0.6-1.8-2.1-2.1-3.8-2.4c-4.4-0.8-8.7-1.7-13-2.8
			c-7.3-1.9-14.6-3.9-21.8-6c-8.6-2.6-17.2-5.3-25.8-8c-5.6-1.8-11.2-3.7-16.9-5.6c-2.7-1.2-5.6-2.2-8.4-3.1c-2-0.7-4-1.3-5.9-2
			l-45.9-15.5c-3.9-1.3-7.8-2.7-11.8-4c0,0-0.1,0-0.1,0l-6.9-2.3c-6.8-2.3-13.8-3.8-20.8-5.4c-13.4-3-27-5.7-40.8-5.7
			c-8.7,0-17.5-0.4-26.1,0.2c-7.5,0.5-14.9,2.2-22.3,3.9c-18.3,4.2-35.3,11.5-51.1,21.2c-23.6,14.4-44.4,32.3-61.4,54.3
			c-0.5,0.6-0.9,1.2-2.3,1.5c7.1-13.2,15.7-24.5,25.1-35.4c14.1-16.3,30.2-30.1,49-40.4c24.9-13.5,51.5-18.1,79.7-14.5
			c15.6,2,30.7,5.6,45.6,9.8c9.2,2.6,18.1,5.8,27.2,8.8c0.2,0.1,0.3,0.1,0.5,0.2c0.8,0.3,2.5,0.9,5,1.7c0,0,0,0,0,0l32.6,11
			c0,0,0,0,0,0c0.1,0,0.1,0,0.2,0.1c0,0,0.1,0,0.1,0c0,0,0,0,0,0c0.9,0.3,2.1,0.7,2.9,1c0,0,0,0,0,0c0,0,0,0,0.1,0
			c0.1,0,0.1,0,0.2,0.1c0,0,0,0,0,0c1.3,0.4,2.5,0.8,3.8,1.3c1.9,0.6,3.8,1.3,5.8,1.9c0.7,0.3,1.4,0.6,2.2,0.8
			c4.5,1.6,9,2.9,13.6,4.2c3.4,1.1,6.6,2,9.5,2.8c0.7,0.2,1.3,0.4,1.9,0.5c0.1,0,0.1-0.1,0.2-0.1c0.6,0.2,1.2,0.3,1.7,0.5
			c0,0.1,0.1,0.1,0.1,0.2c1.9,0.5,3.5,0.9,4.9,1.2c6.6,1.6,13.2,3.3,19.9,4.1c3.1,0.4,5.1-0.9,5.8-3.8c0.6-2.4-1.6-5.3-4.4-5.4
			c-2.9-0.1-5.6-1.1-8.4-1.7c-4.9-1-9.9-2-14.8-3.3c-5-1.3-9.9-2.8-14.9-4.2c-9.1-2.7-18.1-5.5-27-8.6c-7.6-2.6-15.3-5-22.9-7.6
			c-12-4.1-23.9-8.7-36.1-12.4c-16.7-5.1-33.6-9.4-50.9-11.9c-18.7-2.7-37.1-2.3-55.4,2.3c-2.4,0.6-4.6,2.1-7.1,1.9
			c-0.4,0.6-0.9,0.7-1.6,0.6c-10.1,3-19.6,7.5-28.7,12.8c-15.8,9.3-29.7,20.9-42.1,34.3c-11.6,12.6-22.2,25.9-30.5,41
			c-1.4,2.5-1.6,5.7-4.1,7.9c-2.7-5-5-10-8-14.6c-10.1-15.8-21.8-30.4-35.5-43.2c-18.4-17.3-39-31.1-63.4-38.7
			c-11.7-3.6-23.7-5.5-35.8-6.1c-18.6-0.8-36.8,2.7-54.8,7.1c-15.2,3.7-30.2,8.6-45,13.9c-19.5,6.9-38.9,13.9-58.7,19.9
			c-14.3,4.4-28.8,8.1-43.6,10.7c-2.5,0.4-5,3.4-4.4,5.6c0.8,2.7,2.8,4.2,5.6,3.8c3.8-0.5,7.6-1.1,11.3-2.1c4.5-1.2,9-2.3,13.5-3.3
			c2.7-0.6,5.4-1.3,8.1-2.1c4.4-1.2,8.8-2.6,13.2-4c14.7-4.6,29.1-10,43.6-15c3.2-1.1,6.5-2.1,9.8-3.1c8.9-2.8,17.7-6,26.6-8.7
			c14.5-4.5,29.1-8.5,44.1-10.8c14.8-2.3,29.9-3,44.7-0.9c24.8,3.6,48,15,67.5,30.7c19.5,15.7,35.2,35.7,48.1,57.1
			c-33.2-37.9-76.6-69.6-126.4-77.3c-11.7-1.8-23.5-2.2-35.3-1.6c-14.8,0.8-29.5,3.2-44,6.6c-14.4,3.4-28.4,7.9-42.4,12.7
			c-5.6,2-11.2,3.9-16.8,5.8c-12.4,4.3-24.9,8.5-37.4,12.8c-3.7,1.3-7.3,2.6-11,3.8c-7.3,2.5-14.6,5.1-22,7.4
			c-10.7,3.4-21.6,6.5-32.5,9c-4.3,1-8.5,2.8-13.1,2.7c-1.4,0-2.1,0.9-2.6,2.2c-1,2.7-2.2,5.3-3.4,7.8c-3.7,7.6-9.2,13.7-15,19.6
			c0.1,0.1,0.2,0.3,0.2,0.5c21,0,41.9,0,62.9,0c10.4,0,20.8,0.2,31.2,0.2c10.3,0.1,20.5-0.2,30.8-0.1c10.5,0.1,20.9,0.2,31.4,0.1
			c20.7-0.1,41.3-0.3,62-0.3c1.7,0,3.3,0,5,0c21,0,41.9,0,62.9,0c21,0,41.9,0,62.9,0c0.2,0,0.4,0,0.6,0l22.4,28.3l45.5,17.3
			c0,0,30.7-9.9,31.5-10c0.9-0.2,28.2-29.6,28.2-29.6l4.5-5.9c46.2,0.2,93,1.3,139,1.3l48.1-0.3c52.4,0,104.5-1,156.9-1
			c1.2,0,2.5-0.2,3.7-0.3C860.2,723.4,860,723,859.7,722.6z"/>
		<path class="st63" d="M868.7,723.7c-60.9,0.3-121.7,0.6-182.6,0.9l-15.3-0.1l-56.8-0.5c0,0,0,0,0,0c-33.5,0-67-0.1-100.5-0.1
			c-7.2,0-15.1,0.2-20.6,4.9c-2.9,2.5-4.8,6-7,9.2c-9.4,13.6-25.9,21.9-42.4,21.3c-16.5-0.6-32.4-10.1-40.7-24.3
			c-1.9-3.3-3.7-7-6.9-9c-2.9-1.8-6.5-1.8-9.9-1.8c-121.5,0-243,0-364.5,0.1c-9.5,0-22.6,3.7-21.4,13.2c1,8.1,11.6,10.1,19.7,10.1
			c115.2,0.1,230.3,0.2,345.5,0.3c5.2,0,10.6,0,15.3,2.2c5.1,2.3,8.7,6.7,12.7,10.6c27.2,26.7,75.5,27.8,103.8,2.2
			c5.3-4.7,10.1-10.4,16.5-13.3c6.2-2.8,13.2-2.8,19.9-2.7c10.5,0.1,20.9,0.1,31.4,0.2c10.5,0.1,20.9,0.1,31.4,0.2c2,0,4,0,6,0
			c1.5,0,3,0,4.5,0c1.8,0,3.6,0,5.3,0c0.9,0,1.9,0.1,2.8,0l18.2,0.1c0.4,0,0.7,0,1.1,0c1.8,0,3.6,0,5.4,0l0.1,0l0,0
			c8.5,0,17.1,0,25.6,0c10.5,0,21,0,31.4,0c10.5,0,21,0,31.4,0c10.5,0,21,0,31.4,0c10.5,0,21,0,31.4,0c10.5,0,21,0,31.4,0
			c10.5,0,21,0,31.4,0c6.2,0,12.4,0,18.6,0c7.4,0,16.8-1.4,18.9-8.5C894.4,728.8,879.4,723.7,868.7,723.7z"/>
	</g>
</g>
<g id="Ghost" class="st1">
	<g id="Body" class="st2">
		<path class="st67" d="M184,536.8c-0.6-2-1.2-3.9-1.6-5.9c-1.3-6.6-2.5-13.3-3.7-19.9c-0.7-3.8-1.2-7.7-1.8-11.6
			c-0.8-5.9-1.6-11.9-2.4-17.8c-0.7-5.6-1.4-11.1-2.1-16.7c-0.4-3.4-0.8-6.8-1.1-10.1c-0.3-2.9-0.7-5.7-0.9-8.6
			c-0.3-4.5-1-8.9-2.5-13.1c-2.3-6.3-5.6-12.1-10.1-17.1c-5.5-6-11.9-10.5-20-12.3c-4.8-1.1-9.6-1-14.4,0.3
			c-4.9,1.3-9.2,3.7-13.1,6.8c-6.1,4.9-10.7,11.1-13.9,18.2c-2.3,5.1-3.6,10.4-4,16c-0.4,5.2-0.8,10.4-1.3,15.6
			c-0.5,5.1-1.1,10.1-1.7,15.2c-0.7,6-1.4,12-2.2,18c-0.5,4.2-1.2,8.4-1.8,12.6c-0.3,1.9-0.6,3.8-0.9,5.7c-0.4,1.9-0.8,3.8-1.2,5.6
			c0,0.2,0,0.4,0,0.6c-0.4,1.7-0.8,3.4-1.2,5c-1.1,5-2.4,10-5,14.6c1.6,0.3,2.9-0.4,4.1-0.8c3.4-1.2,6.8-2.6,10.3-3.8
			c1.5-0.5,3-0.8,4.6-0.3c2.8,0.9,5.6,1.7,8.3,2.8c3.8,1.5,7.6,1.9,11.6,0.6c3.4-1.1,6.9-2,10.4-3c2.3-0.6,4.7-0.9,7.1-0.3
			c0.8,0.2,1.6,0.4,2.4,0.6c0.3,0,0.5,0.1,0.8,0.1c3,0.9,5.9,1.7,8.9,2.6c3.8,1.2,7.4,0.9,11-0.6c2.4-1,4.9-1.9,7.4-2.6
			c1.4-0.4,3-0.8,4.5-0.2c2.6,0.9,5.2,1.9,7.9,2.8c2.1,0.8,4.2,1.6,6.4,2.3C183.9,538.5,184.3,538,184,536.8z M127.1,430.8
			c0.1,3.3-0.8,6-2.9,8.1c-3.1,3.2-7,2.8-9.7-0.4c-2.2-2.5-2.8-5.5-2.5-8.8c0.2-2.5,1.1-4.7,2.7-6.5c3.1-3.4,8.1-2.9,10.6,1.1
			C126.5,426.4,127.2,428.6,127.1,430.8z M137.2,476c-0.9-0.1-1.9,0-2.8,0c0,0,0,0,0,0c-1,0-2.1,0-3.1,0c-0.6,0-1-0.2-1-0.9
			c-0.2-1.9-0.5-3.9-0.7-5.8c-0.2-1.2,0-1.5,1.3-1.5c1.8,0,3.6,0,5.4,0c0.9,0,1.3,0.2,1.4,1.2c0.1,2,0.5,3.9,0.8,5.9
			C138.4,475.8,138.1,476.1,137.2,476z M146,439.4c-3.2,2.8-7,2-9.3-1c-2.7-3.3-3-7.2-1.9-11.2c0.5-1.8,1.4-3.4,2.8-4.6
			c2.9-2.5,6.7-2.2,9.3,0.8c1.7,2,2.7,4.7,2.6,7.4C149.4,434.3,148.5,437.2,146,439.4z"/>
	</g>
</g>
<g id="Hearts_Left" class="st1">
	<g class="st2">
		<rect x="237.1" y="289.8" class="st68" width="2.9" height="2.9"/>
		<rect x="239.9" y="287" class="st68" width="2.9" height="2.9"/>
		<rect x="242.7" y="284.1" class="st68" width="2.9" height="2.9"/>
		<rect x="245.5" y="284.1" class="st68" width="2.9" height="2.9"/>
		<rect x="248.3" y="284.1" class="st68" width="2.9" height="2.9"/>
		<rect x="251.2" y="287" class="st68" width="2.9" height="2.9"/>
		<rect x="254" y="289.8" class="st68" width="2.9" height="2.9"/>
		<rect x="256.9" y="292.7" class="st68" width="2.9" height="2.9"/>
		<rect x="259.7" y="289.8" class="st68" width="2.9" height="2.9"/>
		<rect x="262.6" y="287" class="st68" width="2.9" height="2.9"/>
		<rect x="265.5" y="284.1" class="st68" width="2.9" height="2.9"/>
		<rect x="268.3" y="284.1" class="st68" width="2.9" height="2.9"/>
		<rect x="271.2" y="284.1" class="st68" width="2.9" height="2.9"/>
		<rect x="274" y="287" class="st68" width="2.9" height="2.9"/>
		<rect x="276.7" y="289.8" class="st68" width="2.9" height="2.9"/>
		<rect x="276.7" y="292.7" class="st68" width="2.9" height="2.9"/>
		<rect x="276.7" y="295.5" class="st68" width="2.9" height="2.9"/>
		<rect x="276.7" y="298.4" class="st68" width="2.9" height="2.9"/>
		<rect x="274" y="298.4" class="st68" width="2.9" height="2.9"/>
		<rect x="274" y="301.2" class="st68" width="2.9" height="2.9"/>
		<rect x="271.2" y="301.2" class="st68" width="2.9" height="2.9"/>
		<rect x="271.2" y="304.1" class="st68" width="2.9" height="2.9"/>
		<rect x="268.3" y="306.9" class="st68" width="2.9" height="2.9"/>
		<rect x="265.5" y="309.8" class="st68" width="2.9" height="2.9"/>
		<rect x="262.6" y="312.6" class="st68" width="2.9" height="2.9"/>
		<rect x="259.7" y="315.5" class="st68" width="2.9" height="2.9"/>
		<rect x="256.9" y="318.4" class="st68" width="2.9" height="2.9"/>
		
			<rect x="237.1" y="295.5" transform="matrix(-1 -4.462975e-11 4.462975e-11 -1 476.9751 593.9146)" class="st68" width="2.9" height="2.9"/>
		
			<rect x="237.1" y="292.7" transform="matrix(-1 -4.462975e-11 4.462975e-11 -1 476.9751 588.2086)" class="st68" width="2.9" height="2.9"/>
		
			<rect x="237.1" y="298.4" transform="matrix(-1 -4.462975e-11 4.462975e-11 -1 476.9751 599.6206)" class="st68" width="2.9" height="2.9"/>
		
			<rect x="239.8" y="298.4" transform="matrix(-1 -4.526747e-11 4.526747e-11 -1 482.4292 599.6206)" class="st68" width="2.9" height="2.9"/>
		
			<rect x="239.8" y="301.2" transform="matrix(-1 -4.462975e-11 4.462975e-11 -1 482.4292 605.3266)" class="st68" width="2.9" height="2.9"/>
		
			<rect x="242.6" y="301.2" transform="matrix(-1 -4.462975e-11 4.462975e-11 -1 488.1352 605.3266)" class="st68" width="2.9" height="2.9"/>
		
			<rect x="242.6" y="304.1" transform="matrix(-1 -4.462975e-11 4.462975e-11 -1 488.1352 611.0326)" class="st68" width="2.9" height="2.9"/>
		
			<rect x="245.5" y="306.9" transform="matrix(-1 -4.462975e-11 4.462975e-11 -1 493.8412 616.7386)" class="st68" width="2.9" height="2.9"/>
		
			<rect x="248.3" y="309.8" transform="matrix(-1 -4.462975e-11 4.462975e-11 -1 499.5472 622.4446)" class="st68" width="2.9" height="2.9"/>
		
			<rect x="251.2" y="312.6" transform="matrix(-1 -4.462975e-11 4.462975e-11 -1 505.2532 628.1506)" class="st68" width="2.9" height="2.9"/>
		
			<rect x="254.1" y="315.5" transform="matrix(-1 -4.526747e-11 4.526747e-11 -1 510.9592 633.8567)" class="st68" width="2.9" height="2.9"/>
		<polygon class="st68" points="239.9,289.8 242.7,287 251.2,287 259.7,295.5 259.7,292.7 265.5,287 274,287 276.7,289.8 
			276.7,298.1 271.2,306.9 258.4,319.8 239.8,301.2 		"/>
	</g>
	<g class="st2">
		<rect x="272.6" y="256.1" class="st68" width="3.8" height="3.8"/>
		<rect x="276.3" y="252.3" class="st68" width="3.8" height="3.8"/>
		<rect x="280" y="248.5" class="st68" width="3.8" height="3.8"/>
		<rect x="283.8" y="248.5" class="st68" width="3.8" height="3.8"/>
		<rect x="287.6" y="248.5" class="st68" width="3.8" height="3.8"/>
		<rect x="291.3" y="252.3" class="st68" width="3.8" height="3.8"/>
		<rect x="295.1" y="256.1" class="st68" width="3.8" height="3.8"/>
		<rect x="298.9" y="259.8" class="st68" width="3.8" height="3.8"/>
		<rect x="302.7" y="256.1" class="st68" width="3.8" height="3.8"/>
		<rect x="306.5" y="252.3" class="st68" width="3.8" height="3.8"/>
		<rect x="310.3" y="248.5" class="st68" width="3.8" height="3.8"/>
		<rect x="314" y="248.5" class="st68" width="3.8" height="3.8"/>
		<rect x="317.8" y="248.5" class="st68" width="3.8" height="3.8"/>
		<rect x="321.6" y="252.3" class="st68" width="3.8" height="3.8"/>
		<rect x="325.2" y="256.1" class="st68" width="3.8" height="3.8"/>
		<rect x="325.2" y="259.8" class="st68" width="3.8" height="3.8"/>
		<rect x="325.2" y="263.6" class="st68" width="3.8" height="3.8"/>
		<rect x="325.2" y="267.4" class="st68" width="3.8" height="3.8"/>
		<rect x="321.6" y="267.4" class="st68" width="3.8" height="3.8"/>
		<rect x="321.6" y="271.2" class="st68" width="3.8" height="3.8"/>
		<rect x="317.8" y="271.2" class="st68" width="3.8" height="3.8"/>
		<rect x="317.8" y="275" class="st68" width="3.8" height="3.8"/>
		<rect x="314" y="278.8" class="st68" width="3.8" height="3.8"/>
		<rect x="310.3" y="282.5" class="st68" width="3.8" height="3.8"/>
		<rect x="306.5" y="286.3" class="st68" width="3.8" height="3.8"/>
		<rect x="302.7" y="290.1" class="st68" width="3.8" height="3.8"/>
		<rect x="298.9" y="293.9" class="st68" width="3.8" height="3.8"/>
		
			<rect x="272.6" y="263.6" transform="matrix(-1 -4.468837e-11 4.468837e-11 -1 548.9578 531.0276)" class="st68" width="3.8" height="3.8"/>
		
			<rect x="272.6" y="259.8" transform="matrix(-1 -4.468837e-11 4.468837e-11 -1 548.9578 523.4566)" class="st68" width="3.8" height="3.8"/>
		
			<rect x="272.6" y="267.4" transform="matrix(-1 -4.444812e-11 4.444812e-11 -1 548.9578 538.5985)" class="st68" width="3.8" height="3.8"/>
		
			<rect x="276.2" y="267.4" transform="matrix(-1 -4.540913e-11 4.540913e-11 -1 556.1945 538.5985)" class="st68" width="3.8" height="3.8"/>
		
			<rect x="276.2" y="271.2" transform="matrix(-1 -4.444812e-11 4.444812e-11 -1 556.1945 546.1695)" class="st68" width="3.8" height="3.8"/>
		
			<rect x="280" y="271.2" transform="matrix(-1 -4.468837e-11 4.468837e-11 -1 563.7654 546.1695)" class="st68" width="3.8" height="3.8"/>
		
			<rect x="280" y="275" transform="matrix(-1 -4.468837e-11 4.468837e-11 -1 563.7654 553.7404)" class="st68" width="3.8" height="3.8"/>
		
			<rect x="283.8" y="278.8" transform="matrix(-1 -4.468837e-11 4.468837e-11 -1 571.3364 561.3114)" class="st68" width="3.8" height="3.8"/>
		
			<rect x="287.6" y="282.5" transform="matrix(-1 -4.468837e-11 4.468837e-11 -1 578.9073 568.8823)" class="st68" width="3.8" height="3.8"/>
		
			<rect x="291.3" y="286.3" transform="matrix(-1 -4.468837e-11 4.468837e-11 -1 586.4783 576.4533)" class="st68" width="3.8" height="3.8"/>
		
			<rect x="295.1" y="290.1" transform="matrix(-1 -4.516888e-11 4.516888e-11 -1 594.0493 584.0242)" class="st68" width="3.8" height="3.8"/>
		<polygon class="st68" points="276.3,256.1 280,252.3 291.3,252.3 302.7,263.6 302.7,259.8 310.3,252.3 321.6,252.3 325.2,256.1 
			325.2,267 317.8,278.8 300.8,295.8 276.2,271.2 		"/>
	</g>
	<g class="st2">
		<rect x="227.6" y="264.6" class="st68" width="1.5" height="1.5"/>
		<rect x="229.1" y="263.2" class="st68" width="1.5" height="1.5"/>
		<rect x="230.5" y="261.7" class="st68" width="1.5" height="1.5"/>
		<rect x="231.9" y="261.7" class="st68" width="1.5" height="1.5"/>
		<rect x="233.4" y="261.7" class="st68" width="1.5" height="1.5"/>
		<rect x="234.8" y="263.2" class="st68" width="1.5" height="1.5"/>
		<rect x="236.3" y="264.6" class="st68" width="1.5" height="1.5"/>
		<rect x="237.8" y="266.1" class="st68" width="1.5" height="1.5"/>
		<rect x="239.2" y="264.6" class="st68" width="1.5" height="1.5"/>
		<rect x="240.7" y="263.2" class="st68" width="1.5" height="1.5"/>
		<rect x="242.1" y="261.7" class="st68" width="1.5" height="1.5"/>
		<rect x="243.6" y="261.7" class="st68" width="1.5" height="1.5"/>
		<rect x="245" y="261.7" class="st68" width="1.5" height="1.5"/>
		<rect x="246.5" y="263.2" class="st68" width="1.5" height="1.5"/>
		<rect x="247.9" y="264.6" class="st68" width="1.5" height="1.5"/>
		<rect x="247.9" y="266.1" class="st68" width="1.5" height="1.5"/>
		<rect x="247.9" y="267.6" class="st68" width="1.5" height="1.5"/>
		<rect x="247.9" y="269" class="st68" width="1.5" height="1.5"/>
		<rect x="246.5" y="269" class="st68" width="1.5" height="1.5"/>
		<rect x="246.5" y="270.5" class="st68" width="1.5" height="1.5"/>
		<rect x="245" y="270.5" class="st68" width="1.5" height="1.5"/>
		<rect x="245" y="271.9" class="st68" width="1.5" height="1.5"/>
		<rect x="243.6" y="273.4" class="st68" width="1.5" height="1.5"/>
		<rect x="242.1" y="274.8" class="st68" width="1.5" height="1.5"/>
		<rect x="240.7" y="276.3" class="st68" width="1.5" height="1.5"/>
		<rect x="239.2" y="277.7" class="st68" width="1.5" height="1.5"/>
		<rect x="237.8" y="279.2" class="st68" width="1.5" height="1.5"/>
		
			<rect x="227.6" y="267.6" transform="matrix(-1 -4.497659e-11 4.497659e-11 -1 456.7321 536.5602)" class="st68" width="1.5" height="1.5"/>
		
			<rect x="227.6" y="266.1" transform="matrix(-1 -4.497659e-11 4.497659e-11 -1 456.7321 533.6483)" class="st68" width="1.5" height="1.5"/>
		
			<rect x="227.6" y="269" transform="matrix(-1 -4.497659e-11 4.497659e-11 -1 456.7321 539.4721)" class="st68" width="1.5" height="1.5"/>
		
			<rect x="229" y="269" transform="matrix(-1 -4.497659e-11 4.497659e-11 -1 459.5154 539.4721)" class="st68" width="1.5" height="1.5"/>
		
			<rect x="229" y="270.5" transform="matrix(-1 -4.435175e-11 4.435175e-11 -1 459.5154 542.384)" class="st68" width="1.5" height="1.5"/>
		
			<rect x="230.5" y="270.5" transform="matrix(-1 -4.560142e-11 4.560142e-11 -1 462.4273 542.384)" class="st68" width="1.5" height="1.5"/>
		
			<rect x="230.5" y="271.9" transform="matrix(-1 -4.435175e-11 4.435175e-11 -1 462.4273 545.2959)" class="st68" width="1.5" height="1.5"/>
		
			<rect x="231.9" y="273.4" transform="matrix(-1 -4.435175e-11 4.435175e-11 -1 465.3392 548.2078)" class="st68" width="1.5" height="1.5"/>
		
			<rect x="233.4" y="274.8" transform="matrix(-1 -4.560142e-11 4.560142e-11 -1 468.2511 551.1198)" class="st68" width="1.5" height="1.5"/>
		
			<rect x="234.9" y="276.3" transform="matrix(-1 -4.497659e-11 4.497659e-11 -1 471.163 554.0316)" class="st68" width="1.5" height="1.5"/>
		
			<rect x="236.3" y="277.7" transform="matrix(-1 -4.497659e-11 4.497659e-11 -1 474.0749 556.9435)" class="st68" width="1.5" height="1.5"/>
		<polygon class="st68" points="229.1,264.6 230.5,263.2 234.8,263.2 239.2,267.6 239.2,266.1 242.1,263.2 246.5,263.2 247.9,264.6 
			247.9,268.9 245,273.4 238.5,279.9 229,270.5 		"/>
	</g>
</g>
<g id="Hearts_Right" class="st1">
	<g class="st2">
		
			<rect x="694.5" y="289.8" transform="matrix(-1 -4.462975e-11 4.462975e-11 -1 1391.7599 582.5026)" class="st68" width="2.9" height="2.9"/>
		
			<rect x="691.7" y="287" transform="matrix(-1 -4.462975e-11 4.462975e-11 -1 1386.1702 576.7965)" class="st68" width="2.9" height="2.9"/>
		
			<rect x="688.8" y="284.1" transform="matrix(-1 -4.462975e-11 4.462975e-11 -1 1380.5271 571.0905)" class="st68" width="2.9" height="2.9"/>
		
			<rect x="686" y="284.1" transform="matrix(-1 -4.462975e-11 4.462975e-11 -1 1374.907 571.0905)" class="st68" width="2.9" height="2.9"/>
		
			<rect x="683.2" y="284.1" transform="matrix(-1 -4.590518e-11 4.590518e-11 -1 1369.2001 571.0905)" class="st68" width="2.9" height="2.9"/>
		
			<rect x="680.3" y="287" transform="matrix(-1 -4.462975e-11 4.462975e-11 -1 1363.5011 576.7965)" class="st68" width="2.9" height="2.9"/>
		
			<rect x="677.5" y="289.8" transform="matrix(-1 -4.462975e-11 4.462975e-11 -1 1357.7983 582.5026)" class="st68" width="2.9" height="2.9"/>
		
			<rect x="674.6" y="292.7" transform="matrix(-1 -4.462975e-11 4.462975e-11 -1 1352.0927 588.2086)" class="st68" width="2.9" height="2.9"/>
		
			<rect x="671.8" y="289.8" transform="matrix(-1 -4.462975e-11 4.462975e-11 -1 1346.3867 582.5026)" class="st68" width="2.9" height="2.9"/>
		
			<rect x="668.9" y="287" transform="matrix(-1 -4.462975e-11 4.462975e-11 -1 1340.6807 576.7965)" class="st68" width="2.9" height="2.9"/>
		
			<rect x="666.1" y="284.1" transform="matrix(-1 -4.462975e-11 4.462975e-11 -1 1334.9746 571.0905)" class="st68" width="2.9" height="2.9"/>
		
			<rect x="663.2" y="284.1" transform="matrix(-1 -4.462975e-11 4.462975e-11 -1 1329.2687 571.0905)" class="st68" width="2.9" height="2.9"/>
		
			<rect x="660.4" y="284.1" transform="matrix(-1 -4.462975e-11 4.462975e-11 -1 1323.5626 571.0905)" class="st68" width="2.9" height="2.9"/>
		
			<rect x="657.5" y="287" transform="matrix(-1 -4.462975e-11 4.462975e-11 -1 1317.8566 576.7965)" class="st68" width="2.9" height="2.9"/>
		
			<rect x="654.8" y="289.8" transform="matrix(-1 -4.462975e-11 4.462975e-11 -1 1312.4255 582.5026)" class="st68" width="2.9" height="2.9"/>
		
			<rect x="654.8" y="292.7" transform="matrix(-1 -4.462975e-11 4.462975e-11 -1 1312.4255 588.2086)" class="st68" width="2.9" height="2.9"/>
		
			<rect x="654.8" y="295.5" transform="matrix(-1 -4.462975e-11 4.462975e-11 -1 1312.4255 593.9146)" class="st68" width="2.9" height="2.9"/>
		
			<rect x="654.8" y="298.4" transform="matrix(-1 -4.462975e-11 4.462975e-11 -1 1312.4255 599.6206)" class="st68" width="2.9" height="2.9"/>
		
			<rect x="657.5" y="298.4" transform="matrix(-1 -4.462975e-11 4.462975e-11 -1 1317.8566 599.6206)" class="st68" width="2.9" height="2.9"/>
		
			<rect x="657.5" y="301.2" transform="matrix(-1 -4.462975e-11 4.462975e-11 -1 1317.8566 605.3266)" class="st68" width="2.9" height="2.9"/>
		
			<rect x="660.4" y="301.2" transform="matrix(-1 -4.462975e-11 4.462975e-11 -1 1323.5626 605.3266)" class="st68" width="2.9" height="2.9"/>
		
			<rect x="660.4" y="304.1" transform="matrix(-1 -4.462975e-11 4.462975e-11 -1 1323.5626 611.0326)" class="st68" width="2.9" height="2.9"/>
		
			<rect x="663.2" y="306.9" transform="matrix(-1 -4.590518e-11 4.590518e-11 -1 1329.2687 616.7386)" class="st68" width="2.9" height="2.9"/>
		
			<rect x="666.1" y="309.8" transform="matrix(-1 -4.462975e-11 4.462975e-11 -1 1334.9746 622.4446)" class="st68" width="2.9" height="2.9"/>
		
			<rect x="668.9" y="312.6" transform="matrix(-1 -4.590518e-11 4.590518e-11 -1 1340.6807 628.1506)" class="st68" width="2.9" height="2.9"/>
		
			<rect x="671.8" y="315.5" transform="matrix(-1 -4.462975e-11 4.462975e-11 -1 1346.3867 633.8567)" class="st68" width="2.9" height="2.9"/>
		
			<rect x="674.6" y="318.4" transform="matrix(-1 -4.462975e-11 4.462975e-11 -1 1352.0343 639.5627)" class="st68" width="2.9" height="2.9"/>
		<rect x="694.5" y="295.5" class="st68" width="2.9" height="2.9"/>
		<rect x="694.5" y="292.7" class="st68" width="2.9" height="2.9"/>
		<rect x="694.5" y="298.4" class="st68" width="2.9" height="2.9"/>
		<rect x="691.7" y="298.4" class="st68" width="2.9" height="2.9"/>
		<rect x="691.7" y="301.2" class="st68" width="2.9" height="2.9"/>
		<rect x="688.9" y="301.2" class="st68" width="2.9" height="2.9"/>
		<rect x="688.9" y="304.1" class="st68" width="2.9" height="2.9"/>
		<rect x="686" y="306.9" class="st68" width="2.9" height="2.9"/>
		<rect x="683.2" y="309.8" class="st68" width="2.9" height="2.9"/>
		<rect x="680.3" y="312.6" class="st68" width="2.9" height="2.9"/>
		<rect x="677.5" y="315.5" class="st68" width="2.9" height="2.9"/>
		<polygon class="st68" points="694.5,289.8 691.7,287 683.2,287 674.6,295.5 674.6,292.7 668.9,287 660.4,287 657.6,289.8 
			657.6,298.1 663.2,306.9 676,319.8 694.6,301.2 		"/>
	</g>
	<g class="st2">
		
			<rect x="658" y="256.1" transform="matrix(-1 -4.492863e-11 4.492863e-11 -1 1319.7771 515.8857)" class="st68" width="3.8" height="3.8"/>
		
			<rect x="654.3" y="252.3" transform="matrix(-1 -4.468837e-11 4.468837e-11 -1 1312.3605 508.3147)" class="st68" width="3.8" height="3.8"/>
		
			<rect x="650.5" y="248.5" transform="matrix(-1 -4.492863e-11 4.492863e-11 -1 1304.873 500.7437)" class="st68" width="3.8" height="3.8"/>
		
			<rect x="646.8" y="248.5" transform="matrix(-1 -4.492863e-11 4.492863e-11 -1 1297.416 500.7437)" class="st68" width="3.8" height="3.8"/>
		
			<rect x="643" y="248.5" transform="matrix(-1 -4.492863e-11 4.492863e-11 -1 1289.844 500.7437)" class="st68" width="3.8" height="3.8"/>
		
			<rect x="639.2" y="252.3" transform="matrix(-1 -4.468837e-11 4.468837e-11 -1 1282.2823 508.3147)" class="st68" width="3.8" height="3.8"/>
		
			<rect x="635.5" y="256.1" transform="matrix(-1 -4.468837e-11 4.468837e-11 -1 1274.7158 515.8857)" class="st68" width="3.8" height="3.8"/>
		
			<rect x="631.7" y="259.8" transform="matrix(-1 -4.492863e-11 4.492863e-11 -1 1267.1453 523.4566)" class="st68" width="3.8" height="3.8"/>
		
			<rect x="627.9" y="256.1" transform="matrix(-1 -4.492863e-11 4.492863e-11 -1 1259.5743 515.8857)" class="st68" width="3.8" height="3.8"/>
		
			<rect x="624.1" y="252.3" transform="matrix(-1 -4.492863e-11 4.492863e-11 -1 1252.0033 508.3147)" class="st68" width="3.8" height="3.8"/>
		
			<rect x="620.3" y="248.5" transform="matrix(-1 -4.492863e-11 4.492863e-11 -1 1244.4324 500.7437)" class="st68" width="3.8" height="3.8"/>
		
			<rect x="616.5" y="248.5" transform="matrix(-1 -4.492863e-11 4.492863e-11 -1 1236.8615 500.7437)" class="st68" width="3.8" height="3.8"/>
		
			<rect x="612.8" y="248.5" transform="matrix(-1 -4.492863e-11 4.492863e-11 -1 1229.2904 500.7437)" class="st68" width="3.8" height="3.8"/>
		
			<rect x="609" y="252.3" transform="matrix(-1 -4.492863e-11 4.492863e-11 -1 1221.7195 508.3147)" class="st68" width="3.8" height="3.8"/>
		
			<rect x="605.4" y="256.1" transform="matrix(-1 -4.468837e-11 4.468837e-11 -1 1214.5133 515.8857)" class="st68" width="3.8" height="3.8"/>
		
			<rect x="605.4" y="259.8" transform="matrix(-1 -4.468837e-11 4.468837e-11 -1 1214.5133 523.4566)" class="st68" width="3.8" height="3.8"/>
		
			<rect x="605.4" y="263.6" transform="matrix(-1 -4.468837e-11 4.468837e-11 -1 1214.5133 531.0276)" class="st68" width="3.8" height="3.8"/>
		
			<rect x="605.4" y="267.4" transform="matrix(-1 -4.468837e-11 4.468837e-11 -1 1214.5133 538.5985)" class="st68" width="3.8" height="3.8"/>
		
			<rect x="609" y="267.4" transform="matrix(-1 -4.492863e-11 4.492863e-11 -1 1221.7195 538.5985)" class="st68" width="3.8" height="3.8"/>
		
			<rect x="609" y="271.2" transform="matrix(-1 -4.492863e-11 4.492863e-11 -1 1221.7195 546.1695)" class="st68" width="3.8" height="3.8"/>
		
			<rect x="612.8" y="271.2" transform="matrix(-1 -4.492863e-11 4.492863e-11 -1 1229.2904 546.1695)" class="st68" width="3.8" height="3.8"/>
		
			<rect x="612.8" y="275" transform="matrix(-1 -4.492863e-11 4.492863e-11 -1 1229.2904 553.7404)" class="st68" width="3.8" height="3.8"/>
		
			<rect x="616.5" y="278.8" transform="matrix(-1 -4.420787e-11 4.420787e-11 -1 1236.8615 561.3114)" class="st68" width="3.8" height="3.8"/>
		
			<rect x="620.3" y="282.5" transform="matrix(-1 -4.420787e-11 4.420787e-11 -1 1244.4324 568.8823)" class="st68" width="3.8" height="3.8"/>
		
			<rect x="624.1" y="286.3" transform="matrix(-1 -4.516888e-11 4.516888e-11 -1 1252.0033 576.4533)" class="st68" width="3.8" height="3.8"/>
		
			<rect x="627.9" y="290.1" transform="matrix(-1 -4.516888e-11 4.516888e-11 -1 1259.5743 584.0242)" class="st68" width="3.8" height="3.8"/>
		
			<rect x="631.6" y="293.9" transform="matrix(-1 -4.516888e-11 4.516888e-11 -1 1267.0679 591.5952)" class="st68" width="3.8" height="3.8"/>
		<rect x="658" y="263.6" class="st68" width="3.8" height="3.8"/>
		<rect x="658" y="259.8" class="st68" width="3.8" height="3.8"/>
		<rect x="658" y="267.4" class="st68" width="3.8" height="3.8"/>
		<rect x="654.4" y="267.4" class="st68" width="3.8" height="3.8"/>
		<rect x="654.4" y="271.2" class="st68" width="3.8" height="3.8"/>
		<rect x="650.6" y="271.2" class="st68" width="3.8" height="3.8"/>
		<rect x="650.6" y="275" class="st68" width="3.8" height="3.8"/>
		<rect x="646.8" y="278.8" class="st68" width="3.8" height="3.8"/>
		<rect x="643" y="282.5" class="st68" width="3.8" height="3.8"/>
		<rect x="639.2" y="286.3" class="st68" width="3.8" height="3.8"/>
		<rect x="635.5" y="290.1" class="st68" width="3.8" height="3.8"/>
		<polygon class="st68" points="658.1,256.1 654.3,252.3 643,252.3 631.7,263.6 631.7,259.8 624.1,252.3 612.8,252.3 609.1,256.1 
			609.1,267 616.5,278.8 633.5,295.8 658.2,271.2 		"/>
	</g>
	<g class="st2">
		
			<rect x="705.3" y="264.6" transform="matrix(-1 -4.435175e-11 4.435175e-11 -1 1412.0029 530.7364)" class="st68" width="1.5" height="1.5"/>
		
			<rect x="703.8" y="263.2" transform="matrix(-1 -4.497659e-11 4.497659e-11 -1 1409.1504 527.8245)" class="st68" width="1.5" height="1.5"/>
		
			<rect x="702.4" y="261.7" transform="matrix(-1 -4.497659e-11 4.497659e-11 -1 1406.2706 524.9125)" class="st68" width="1.5" height="1.5"/>
		
			<rect x="701" y="261.7" transform="matrix(-1 -4.497659e-11 4.497659e-11 -1 1403.4025 524.9125)" class="st68" width="1.5" height="1.5"/>
		
			<rect x="699.5" y="261.7" transform="matrix(-1 -4.497659e-11 4.497659e-11 -1 1400.4902 524.9125)" class="st68" width="1.5" height="1.5"/>
		
			<rect x="698.1" y="263.2" transform="matrix(-1 -4.435175e-11 4.435175e-11 -1 1397.5819 527.8245)" class="st68" width="1.5" height="1.5"/>
		
			<rect x="696.6" y="264.6" transform="matrix(-1 -4.497659e-11 4.497659e-11 -1 1394.6716 530.7364)" class="st68" width="1.5" height="1.5"/>
		
			<rect x="695.2" y="266.1" transform="matrix(-1 -4.497659e-11 4.497659e-11 -1 1391.7599 533.6483)" class="st68" width="1.5" height="1.5"/>
		
			<rect x="693.7" y="264.6" transform="matrix(-1 -4.497659e-11 4.497659e-11 -1 1388.848 530.7364)" class="st68" width="1.5" height="1.5"/>
		
			<rect x="692.2" y="263.2" transform="matrix(-1 -4.497659e-11 4.497659e-11 -1 1385.936 527.8245)" class="st68" width="1.5" height="1.5"/>
		
			<rect x="690.8" y="261.7" transform="matrix(-1 -4.497659e-11 4.497659e-11 -1 1383.0242 524.9125)" class="st68" width="1.5" height="1.5"/>
		
			<rect x="689.3" y="261.7" transform="matrix(-1 -4.497659e-11 4.497659e-11 -1 1380.1123 524.9125)" class="st68" width="1.5" height="1.5"/>
		
			<rect x="687.9" y="261.7" transform="matrix(-1 -4.435175e-11 4.435175e-11 -1 1377.2003 524.9125)" class="st68" width="1.5" height="1.5"/>
		
			<rect x="686.4" y="263.2" transform="matrix(-1 -4.560142e-11 4.560142e-11 -1 1374.2885 527.8245)" class="st68" width="1.5" height="1.5"/>
		
			<rect x="685" y="264.6" transform="matrix(-1 -4.497659e-11 4.497659e-11 -1 1371.5168 530.7364)" class="st68" width="1.5" height="1.5"/>
		
			<rect x="685" y="266.1" transform="matrix(-1 -4.560142e-11 4.560142e-11 -1 1371.5168 533.6483)" class="st68" width="1.5" height="1.5"/>
		
			<rect x="685" y="267.6" transform="matrix(-1 -4.497659e-11 4.497659e-11 -1 1371.5168 536.5602)" class="st68" width="1.5" height="1.5"/>
		
			<rect x="685" y="269" transform="matrix(-1 -4.497659e-11 4.497659e-11 -1 1371.5168 539.4721)" class="st68" width="1.5" height="1.5"/>
		
			<rect x="686.4" y="269" transform="matrix(-1 -4.497659e-11 4.497659e-11 -1 1374.2885 539.4721)" class="st68" width="1.5" height="1.5"/>
		
			<rect x="686.4" y="270.5" transform="matrix(-1 -4.497659e-11 4.497659e-11 -1 1374.2885 542.384)" class="st68" width="1.5" height="1.5"/>
		
			<rect x="687.9" y="270.5" transform="matrix(-1 -4.435175e-11 4.435175e-11 -1 1377.2003 542.384)" class="st68" width="1.5" height="1.5"/>
		
			<rect x="687.9" y="271.9" transform="matrix(-1 -4.497659e-11 4.497659e-11 -1 1377.2003 545.2959)" class="st68" width="1.5" height="1.5"/>
		
			<rect x="689.3" y="273.4" transform="matrix(-1 -4.497659e-11 4.497659e-11 -1 1380.1123 548.2078)" class="st68" width="1.5" height="1.5"/>
		
			<rect x="690.8" y="274.8" transform="matrix(-1 -4.497659e-11 4.497659e-11 -1 1383.0242 551.1198)" class="st68" width="1.5" height="1.5"/>
		
			<rect x="692.2" y="276.3" transform="matrix(-1 -4.372737e-11 4.372737e-11 -1 1385.936 554.0316)" class="st68" width="1.5" height="1.5"/>
		
			<rect x="693.7" y="277.7" transform="matrix(-1 -4.497659e-11 4.497659e-11 -1 1388.848 556.9435)" class="st68" width="1.5" height="1.5"/>
		
			<rect x="695.1" y="279.2" transform="matrix(-1 -4.497659e-11 4.497659e-11 -1 1391.7301 559.8555)" class="st68" width="1.5" height="1.5"/>
		<rect x="705.3" y="267.6" class="st68" width="1.5" height="1.5"/>
		<rect x="705.3" y="266.1" class="st68" width="1.5" height="1.5"/>
		<rect x="705.3" y="269" class="st68" width="1.5" height="1.5"/>
		<rect x="703.9" y="269" class="st68" width="1.5" height="1.5"/>
		<rect x="703.9" y="270.5" class="st68" width="1.5" height="1.5"/>
		<rect x="702.4" y="270.5" class="st68" width="1.5" height="1.5"/>
		<rect x="702.4" y="271.9" class="st68" width="1.5" height="1.5"/>
		<rect x="701" y="273.4" class="st68" width="1.5" height="1.5"/>
		<rect x="699.5" y="274.8" class="st68" width="1.5" height="1.5"/>
		<rect x="698.1" y="276.3" class="st68" width="1.5" height="1.5"/>
		<rect x="696.6" y="277.7" class="st68" width="1.5" height="1.5"/>
		<polygon class="st68" points="705.3,264.6 703.9,263.2 699.5,263.2 695.2,267.6 695.2,266.1 692.2,263.2 687.9,263.2 686.5,264.6 
			686.5,268.9 689.3,273.4 695.9,279.9 705.3,270.5 		"/>
	</g>
</g>
<g id="X_Marks_the_Spot" class="st1">
	<rect x="459.5" y="505.9" class="st64" width="3.2" height="7.7"/>
	<rect x="459.5" y="516.3" class="st64" width="3.2" height="7.7"/>
	
		<rect x="471.2" y="533.2" transform="matrix(0.7071 -0.7071 0.7071 0.7071 -241.2673 491.6174)" class="st64" width="3.2" height="7.7"/>
	
		<rect x="482.5" y="538.7" transform="matrix(0.2571 -0.9664 0.9664 0.2571 -164.6728 870.8858)" class="st64" width="3.2" height="7.7"/>
	
		<rect x="494.9" y="540.4" transform="matrix(6.368437e-02 -0.998 0.998 6.368437e-02 -78.3061 1005.1174)" class="st64" width="3.2" height="7.7"/>
	
		<rect x="507.3" y="541.2" transform="matrix(6.123234e-17 -1 1 6.123234e-17 -36.148 1054.0192)" class="st64" width="3.2" height="7.7"/>
	
		<rect x="519.6" y="541.2" transform="matrix(6.123234e-17 -1 1 6.123234e-17 -23.9071 1066.2601)" class="st64" width="3.2" height="7.7"/>
	
		<rect x="531.8" y="541.2" transform="matrix(6.123234e-17 -1 1 6.123234e-17 -11.6662 1078.501)" class="st64" width="3.2" height="7.7"/>
	
		<rect x="544.1" y="541.2" transform="matrix(6.123234e-17 -1 1 6.123234e-17 0.5747 1090.7419)" class="st64" width="3.2" height="7.7"/>
	
		<rect x="556.5" y="541.2" transform="matrix(6.123234e-17 -1 1 6.123234e-17 13.0231 1103.1903)" class="st64" width="3.2" height="7.7"/>
	
		<rect x="568.7" y="541.2" transform="matrix(6.123234e-17 -1 1 6.123234e-17 25.264 1115.4313)" class="st64" width="3.2" height="7.7"/>
	
		<rect x="581.5" y="541.2" transform="matrix(6.123234e-17 -1 1 6.123234e-17 38.0621 1128.2292)" class="st64" width="3.2" height="7.7"/>
	
		<rect x="593.8" y="541.2" transform="matrix(6.123234e-17 -1 1 6.123234e-17 50.303 1140.4702)" class="st64" width="3.2" height="7.7"/>
	
		<rect x="606" y="541.2" transform="matrix(6.123234e-17 -1 1 6.123234e-17 62.5439 1152.7111)" class="st64" width="3.2" height="7.7"/>
	
		<rect x="618.3" y="541.2" transform="matrix(6.123234e-17 -1 1 6.123234e-17 74.7848 1164.952)" class="st64" width="3.2" height="7.7"/>
	
		<rect x="630.7" y="541.2" transform="matrix(6.123234e-17 -1 1 6.123234e-17 87.2332 1177.4004)" class="st64" width="3.2" height="7.7"/>
	
		<rect x="643" y="541.2" transform="matrix(6.123234e-17 -1 1 6.123234e-17 99.4741 1189.6414)" class="st64" width="3.2" height="7.7"/>
	
		<rect x="656.4" y="541.2" transform="matrix(6.123234e-17 -1 1 6.123234e-17 112.9599 1203.1271)" class="st64" width="3.2" height="7.7"/>
	
		<rect x="668.7" y="541.2" transform="matrix(6.123234e-17 -1 1 6.123234e-17 125.2008 1215.3679)" class="st64" width="3.2" height="7.7"/>
	
		<rect x="680.9" y="541.2" transform="matrix(6.123234e-17 -1 1 6.123234e-17 137.4417 1227.6089)" class="st64" width="3.2" height="7.7"/>
	
		<rect x="693.2" y="541.2" transform="matrix(6.123234e-17 -1 1 6.123234e-17 149.6826 1239.8499)" class="st64" width="3.2" height="7.7"/>
	
		<rect x="705.6" y="541.2" transform="matrix(6.123234e-17 -1 1 6.123234e-17 162.131 1252.2982)" class="st64" width="3.2" height="7.7"/>
	
		<rect x="717.9" y="541.2" transform="matrix(6.123234e-17 -1 1 6.123234e-17 174.3719 1264.5391)" class="st64" width="3.2" height="7.7"/>
	
		<rect x="729.5" y="541.2" transform="matrix(6.123234e-17 -1 1 6.123234e-17 186.032 1276.1992)" class="st64" width="3.2" height="7.7"/>
	
		<rect x="741.8" y="541.2" transform="matrix(6.123234e-17 -1 1 6.123234e-17 198.273 1288.4402)" class="st64" width="3.2" height="7.7"/>
	
		<rect x="754" y="541.2" transform="matrix(6.123234e-17 -1 1 6.123234e-17 210.5139 1300.681)" class="st64" width="3.2" height="7.7"/>
	
		<rect x="766.2" y="541.2" transform="matrix(6.123234e-17 -1 1 6.123234e-17 222.7548 1312.922)" class="st64" width="3.2" height="7.7"/>
	<polygon class="st69" points="807.5,547.6 805.2,548.7 782.8,537.8 785,536.7 	"/>
	<polygon class="st69" points="785,548.7 782.8,547.6 805.2,536.7 807.5,537.8 	"/>
	<path class="st64" d="M468.3,531.4l-0.7,0.7c-0.9,0.9-2.3,0.9-3.2,0l-2.8-2.8c-0.6-0.6-0.6-1.6,0-2.2l1.2-1.2L468.3,531.4z"/>
</g>
<g id="Sword" class="st1">
	<g id="Halo" class="st2">
		<defs>
			<filter id="Adobe_OpacityMaskFilter_16_" filterUnits="userSpaceOnUse" x="724.4" y="415.2" width="139.2" height="139.2">
				<feColorMatrix  type="matrix" values="1 0 0 0 0  0 1 0 0 0  0 0 1 0 0  0 0 0 1 0"/>
			</filter>
		</defs>
		<mask maskUnits="userSpaceOnUse" x="724.4" y="415.2" width="139.2" height="139.2" id="SVGID_38_">
			<g class="st70">
				<defs>
					<filter id="Adobe_OpacityMaskFilter_17_" filterUnits="userSpaceOnUse" x="724.4" y="415.2" width="139.2" height="139.2">
						<feFlood  style="flood-color:white;flood-opacity:1" result="back"/>
						<feBlend  in="SourceGraphic" in2="back" mode="normal"/>
					</filter>
				</defs>
				<mask maskUnits="userSpaceOnUse" x="724.4" y="415.2" width="139.2" height="139.2" id="SVGID_38_">
				</mask>
				<radialGradient id="SVGID_39_" cx="793.9825" cy="484.8451" r="69.6037" gradientUnits="userSpaceOnUse">
					<stop  offset="0" style="stop-color:#FFFFFF"/>
					<stop  offset="0.2735" style="stop-color:#AFAFAF"/>
					<stop  offset="0.5868" style="stop-color:#595959"/>
					<stop  offset="0.7296" style="stop-color:#363636"/>
					<stop  offset="0.8991" style="stop-color:#101010"/>
					<stop  offset="0.9949" style="stop-color:#000000"/>
				</radialGradient>
				<path class="st72" d="M794,415.2c-38.4,0-69.6,31.2-69.6,69.6c0,38.4,31.2,69.6,69.6,69.6c38.4,0,69.6-31.2,69.6-69.6
					C863.6,446.4,832.4,415.2,794,415.2z"/>
			</g>
		</mask>
		<radialGradient id="SVGID_40_" cx="793.9825" cy="484.8451" r="69.6037" gradientUnits="userSpaceOnUse">
			<stop  offset="0" style="stop-color:#F5BE35"/>
			<stop  offset="0.432" style="stop-color:#F6DC6F"/>
			<stop  offset="0.7296" style="stop-color:#F6F190"/>
			<stop  offset="0.8519" style="stop-color:#DEECC1"/>
			<stop  offset="0.9467" style="stop-color:#CDE9E0"/>
			<stop  offset="0.9949" style="stop-color:#C6E8EB"/>
		</radialGradient>
		<path class="st73" d="M794,415.2c-38.4,0-69.6,31.2-69.6,69.6c0,38.4,31.2,69.6,69.6,69.6c38.4,0,69.6-31.2,69.6-69.6
			C863.6,446.4,832.4,415.2,794,415.2z"/>
	</g>
	<g id="Sword_1_" class="st2">
		<path class="st74" d="M787.7,477.1L787.7,477.1C787.8,477.1,787.8,477.2,787.7,477.1c0.7,0.6,1.3,1.2,1.9,1.8
			c0.6,0.6,1.3,1.2,1.9,1.8c-0.2,0.2-0.3,0.4-0.5,0.6c-0.9,0.9-1.8,1.8-2.7,2.7c-0.3,0.3-0.3,0.4,0,0.7c1.1,1.1,2.2,2.1,3.2,3.2
			c0,0.1,0,0.1,0,0.2c-1.1,1.1-2.2,2.2-3.3,3.2c-0.1,0.1-0.1,0.4,0,0.5c1.1,1.1,2.2,2.2,3.3,3.3c0,0.1,0,0.2,0,0.3
			c-1.1,1.1-2.2,2.2-3.3,3.3c-0.1,0.1,0,0.4,0.1,0.5c1.1,1.1,2.2,2.2,3.3,3.3c0,0,0,0.1,0,0.1c-1.1,1.1-2.1,2.2-3.2,3.2
			c-0.3,0.3-0.3,0.4,0,0.7c1.1,1,2.2,2.1,3.2,3.2c0,0.1,0,0.1,0,0.2c-1.1,1.1-2.2,2.1-3.2,3.2c-0.1,0.1-0.2,0.4-0.1,0.5c1,1,2,2,3,3
			c0,0,0,0,0,0c0,0,0,0.1,0,0.1c0.1,0.1,0.2,0.2,0.3,0.2c0,0.1,0,0.2,0,0.3c-0.1,0.1-0.2,0.2-0.2,0.2c-1,0.9-1.9,1.9-2.9,2.8
			c-0.4,0.4-0.3,0.6,0,1c1.1,1,2.1,2,3.1,3c0,0.1,0,0.2,0,0.2c-1.1,1.1-2.2,2.2-3.3,3.3c-0.2,0.2-0.2,0.4,0,0.6
			c0.4,0.4,0.8,0.9,1.3,1.3c0.7,0.7,1.4,1.3,2.1,2c0.9,0.9,1.8,1.9,2.7,2.8c0.9,0.9,0.9,0.9,1.8,0c0.9-0.9,1.8-1.9,2.7-2.8
			c0.1,0,0.1,0,0.2-0.1c1.1-1.1,2.2-2.2,3.2-3.3c0.1-0.1,0.1-0.5,0-0.6c-1.1-1.1-2.1-2.1-3.2-3.2c0,0,0-0.1,0-0.1c1-1,2-1.9,2.9-2.9
			c0.8-0.8,0.8-0.6,0-1.4c-1-1-2-1.9-3-2.9c1.3-1.3,2.6-2.5,3.8-3.6c1.2,1.1,2.4,2.3,3.8,3.5c-1.1,1-1.9,1.8-2.8,2.6
			c-0.2,0.2-0.5,0.5-0.7,0.7c-0.3,0.2-0.3,0.5,0,0.7c1,1,2,2,3,2.9c0.3,0.3,0.3,0.5,0,0.7c-1,1-1.9,1.9-2.9,2.9
			c-0.3,0.3-0.3,0.5,0,0.8c1.1,1,2.2,2.1,3.2,3.1c-3.7,3.7-7.3,7.3-11.1,11c-1.2-1.2-2.4-2.4-3.6-3.7c-2.1-2.1-4.3-4.3-6.4-6.4
			c-0.3-0.3-0.5-0.6-0.8-0.8c1.1-1.1,2.1-2.2,3.2-3.2c0.3-0.3,0.4-0.5,0-0.8c-1-0.9-1.9-1.9-2.8-2.8c-0.3-0.3-0.4-0.5,0-0.8
			c1-0.9,1.9-1.9,2.9-2.8c0.3-0.3,0.3-0.5,0-0.8c-1.1-1-2.2-2.1-3.3-3.2c0.3-0.3,0.5-0.6,0.8-0.8c0.8-0.8,1.6-1.7,2.5-2.5
			c0.3-0.3,0.3-0.6,0-0.9c-1.1-1-2.1-2.1-3.3-3.2c1-1,2-1.9,3-2.9c0.8-0.8,0.9-0.6,0-1.5c-0.8-0.9-1.7-1.7-2.6-2.5
			c-0.1-0.1-0.2-0.2-0.3-0.5c1.1-1,2.1-2.1,3.2-3.1c0.4-0.3,0.4-0.6,0-0.9c-0.9-0.9-1.8-1.8-2.7-2.7c-0.2-0.2-0.3-0.3-0.5-0.5
			c1.1-1.1,2.1-2.1,3.1-3.1c0.4-0.4,0.4-0.6,0-1c-1.1-1-2.1-2-3.2-3.1c0.8-0.8,1.5-1.5,2.2-2.2c0.4-0.4,0.7-0.7,1.1-1.1
			c0.3-0.3,0.3-0.5,0-0.8c-0.9-0.9-1.9-1.9-2.8-2.8c-0.3-0.3-0.4-0.5,0-0.8C785.7,479.3,786.7,478.2,787.7,477.1z"/>
		<path class="st74" d="M802.3,477c0.1,0,0.2,0,0.3-0.1c0.1,0.2,0.2,0.4,0.3,0.6c1,1.1,2.1,2.1,3.3,3.3c-0.9,0.9-1.8,1.7-2.6,2.5
			c-1.1,1.1-1.1,1.1,0,2.2c0.8,0.8,1.7,1.6,2.6,2.5c-1.2,1.2-2.2,2.2-3.3,3.3c-0.3,0.3-0.4,0.5,0,0.8c1.1,1,2.1,2.1,3.3,3.2
			c-1.3,1.2-2.5,2.4-3.7,3.6c1.3,1.3,2.5,2.4,3.8,3.6c-0.8,0.8-1.5,1.6-2.2,2.3c-0.4,0.4-0.7,0.8-1.1,1.1c-0.3,0.3-0.3,0.4,0,0.7
			c1,0.9,1.9,1.9,2.8,2.8c0.1,0.1,0.3,0.3,0.4,0.4c-1.2,1.2-2.4,2.4-3.5,3.6c-1.2-1.2-2.5-2.4-3.7-3.6c0,0,0-0.1,0-0.1
			c1.1-1.1,2.1-2.1,3.2-3.2c0.3-0.3,0.4-0.5,0-0.8c-1.1-1-2.1-2.1-3.2-3.2c0-0.1,0-0.1,0-0.2c1.2-1.2,2.3-2.3,3.6-3.6
			c-1.3-1.2-2.5-2.4-3.8-3.6c1.1-1.1,2.2-2.2,3.3-3.2c0.4-0.3,0.4-0.5,0-0.9c-1.1-1-2.1-2.1-3.2-3.2c0.1-0.2,0.2-0.3,0.3-0.3
			c1-1,2-2,3-3c0.2-0.2,0.4-0.4,0.1-0.7c-1.1-1.1-2.2-2.2-3.3-3.3c0,0,0-0.1,0-0.1c1.1-1.1,2.1-2.1,3.2-3.2
			C802.2,477.4,802.2,477.2,802.3,477z"/>
		<path class="st75" d="M798.9,510c1.2,1.2,2.5,2.4,3.7,3.6c0,0,0,0,0,0.1c-1.2,1.2-2.5,2.4-3.8,3.6c1.1,1,2.1,2,3,2.9
			c0.8,0.8,0.8,0.6,0,1.4c-0.9,1-1.9,1.9-2.9,2.9c-0.1,0-0.2-0.1-0.3-0.1c-1.1-1.1-2.2-2.3-3.4-3.4c0,0,0-0.1,0-0.1
			c0.4-0.4,0.8-0.9,1.1-1.3c0.8-0.7,1.6-1.5,2.6-2.4c-1.3-1.2-2.6-2.4-3.8-3.6C796.4,512.3,797.6,511.1,798.9,510z"/>
		<path class="st76" d="M809.6,469.8c-1.2,1.2-2.4,2.4-3.5,3.5c-1.4-1.4-2.8-2.7-4.2-4.1c-0.9-0.9-1.8-1.8-2.7-2.7
			c-0.3-0.3-0.3-0.5,0-0.8c1.1-1.1,2.1-2.1,3.2-3.2C804.8,465,807.2,467.4,809.6,469.8z"/>
		<path class="st77" d="M794.9,448.1c0.2,0.1,0.4,0.1,0.5,0.2c1.1,1,2.2,2.1,3.3,3.2c-1.3,1.2-2.5,2.4-3.8,3.6
			c1.4,1.3,2.6,2.5,3.9,3.8c-0.8,0.8-1.6,1.5-2.3,2.2c-0.4,0.4-0.7,0.8-1.1,1.1c-0.1,0.1-0.5,0.1-0.6,0c-1.1-1.1-2.2-2.2-3.4-3.3
			c1.3-1.2,2.5-2.3,3.7-3.5c-1.1-1.1-2-2-3-3c-0.1-0.1-0.2-0.2-0.3-0.2c-0.4-0.3-0.3-0.5,0-0.8c0.6-0.5,1.1-1.1,1.7-1.7
			c0.1-0.1,0.2-0.3,0.4-0.5c0,0,0,0,0,0c0,0,0.1-0.1,0.1-0.1C794.6,448.9,794.9,448.7,794.9,448.1z"/>
		<path class="st76" d="M780.6,469.8c2.4-2.4,4.8-4.8,7.3-7.3c1.1,1.1,2.1,2.2,3.2,3.4c0.1,0.1,0.1,0.5,0,0.6
			c-2.2,2.2-4.5,4.5-6.7,6.7c-0.1,0.1-0.4,0.1-0.4,0C782.9,472.1,781.8,471,780.6,469.8z"/>
		<path class="st78" d="M798.9,480.8C798.9,480.8,798.9,480.8,798.9,480.8c-0.2,0.3-0.5,0.5-0.8,0.7c-0.8,0.8-1.6,1.5-2.4,2.3
			c0-0.2-0.1-0.4,0-0.6c0.1-0.7,0.2-1.5,0.3-2.2c0.1-0.4,0-0.6-0.4-0.6c-0.2,0-0.4,0-0.5,0c-1,0-2,0-3.1,0.1
			c0.1-0.1,0.1-0.3,0.3-0.4c1-0.9,2-1.9,3-2.8c0-0.1,0-0.2,0-0.3c-0.5-0.4-1-0.8-1.5-1.3c-0.8-0.7-1.5-1.4-2.2-2.1
			c1.2-1.2,2.5-2.4,3.7-3.7c0,0,0,0,0,0c0.9,0.8,1.7,1.7,2.6,2.5c0.4,0.4,0.7,0.8,1,1.2c-1.2,1.2-2.4,2.4-3.6,3.6
			C796.4,478.4,797.6,479.6,798.9,480.8z"/>
		<path class="st75" d="M791.4,473.6c0.7,0.7,1.5,1.4,2.2,2.1c0.5,0.4,1,0.9,1.5,1.3c0,0.1,0,0.2,0,0.3c-1,0.9-2,1.9-3,2.8
			c-0.1,0.1-0.2,0.2-0.3,0.4c-0.1,0.1-0.3,0.2-0.4,0.3l0,0c-0.6-0.6-1.3-1.2-1.9-1.8c-0.6-0.6-1.2-1.2-1.8-1.8
			c0.3-0.3,0.6-0.6,0.9-0.9C789.6,475.3,790.5,474.5,791.4,473.6z"/>
		<path class="st79" d="M798.9,480.8c-1.2-1.2-2.4-2.3-3.7-3.6c1.2-1.2,2.4-2.4,3.6-3.6c1.1,1.1,2.1,2.1,3.2,3.2
			c0.1,0.1,0.2,0.2,0.3,0.3c-0.1,0.2-0.1,0.4-0.3,0.5C801,478.6,799.9,479.7,798.9,480.8z"/>
		<path class="st76" d="M795.1,469.9C795.1,469.9,795.1,469.9,795.1,469.9c-0.7-0.7-1.3-1.4-2-2.1c-0.5-0.5-1-1-1.5-1.5
			c1.2-1.1,2.3-2.3,3.5-3.5c1.1,1.1,2.3,2.3,3.5,3.5c-1.1,1.1-2.2,2.1-3.3,3.2C795.3,469.6,795.2,469.8,795.1,469.9z"/>
		<path class="st76" d="M791.5,437c1.2-1.1,2.2-2.2,3.4-3.3c0.1-0.1,0.5-0.1,0.6,0c1.1,1,2.3,2.1,3.5,3.3c-1.2,1.2-2.3,2.2-3.4,3.3
			c-0.2,0.2-0.4,0.2-0.7,0C793.7,439.2,792.6,438.2,791.5,437z"/>
		<path class="st76" d="M776.9,466.3c1.2,1.2,2.4,2.4,3.6,3.6c-1.1,1.1-2.2,2.2-3.4,3.3c-0.1,0.1-0.4,0.1-0.5,0
			c-1.1-1.1-2.2-2.2-3.3-3.2C774.5,468.7,775.7,467.5,776.9,466.3z"/>
		<path class="st76" d="M814,466.9c1,1,2,1.9,3,3c-1.2,1.2-2.3,2.3-3.5,3.4c-0.1,0.1-0.4,0.1-0.5,0c-1-1-2-2-3.1-3
			c-0.3-0.3-0.2-0.4,0-0.6c0.9-0.9,1.9-1.9,2.8-2.8c0.1-0.2,0.3-0.4,0.4-0.6c0.1,0,0.2,0,0.3-0.1C813.7,466.4,813.8,466.6,814,466.9
			z"/>
		<path class="st77" d="M794.4,447.3c-0.2-0.2-0.4-0.4-0.6-0.6c0-0.5-0.4-0.6-0.8-0.7c-0.5-0.5-1-1.1-1.4-1.6
			c1.2-1.2,2.3-2.4,3.4-3.6c1.2,1.1,2.3,2.3,3.6,3.5c-0.2,0.2-0.4,0.5-0.7,0.7c-0.8,0.8-1.6,1.7-2.5,2.5c-0.2,0.1-0.4,0.2-0.6,0.3
			C794.9,447.5,794.8,447.3,794.4,447.3z"/>
		<path class="st80" d="M766.7,469.9c0.2-0.1,0.3-0.2,0.4-0.2c0.7-0.6,0.9-0.5,1.1,0.4c0,0.1,0.1,0.2,0.1,0.2
			c0.5,0.1,0.5,0.5,0.2,0.7c-0.2,0.2-0.6,0.2-0.8,0.1C767.4,470.7,767.1,470.3,766.7,469.9z M768.4,470.3c-0.1,0-0.1-0.1-0.2-0.1
			c-0.1,0.1-0.2,0.2-0.3,0.4c0.1,0,0.1,0.1,0.2,0.1C768.2,470.6,768.3,470.5,768.4,470.3z"/>
		<path class="st81" d="M794.4,447.3c0.4,0,0.5,0.2,0.5,0.5c0,0.1,0,0.2,0,0.3c0,0.5-0.4,0.8-0.9,0.8c0,0-0.1,0.1-0.1,0.1
			c0,0,0,0,0,0c-0.2-0.1-0.4-0.2-0.6-0.2c0.2-0.1,0.3-0.3,0.5-0.4c0.1-0.1,0.3-0.3,0.4-0.5C794.4,447.7,794.4,447.5,794.4,447.3z"/>
		<path class="st80" d="M793.1,446c0.4,0.1,0.8,0.2,0.8,0.7c-0.4-0.2-0.7-0.1-0.7,0.5c0,0.4-0.3,0.4-0.6,0.4
			C792.5,446.9,792.4,446.3,793.1,446z"/>
		<path class="st78" d="M798.9,510c-1.2,1.2-2.4,2.3-3.7,3.6c1.3,1.2,2.5,2.3,3.8,3.6c-1,0.9-1.8,1.6-2.6,2.4
			c-0.1-0.2-0.1-0.4-0.2-0.7c-0.1-0.8-0.1-1.7-0.2-2.5c0-0.5-0.3-0.7-0.8-0.6c-0.8,0.1-1.5,0.1-2.3,0.1c0.7-0.7,1.4-1.4,2.2-2.3
			c-0.8-0.7-1.6-1.4-2.3-2.1c-0.5-0.4-1-0.9-1.4-1.3c0-0.1,0-0.1,0-0.2c0,0,0.1,0,0.1,0c1.1-1.1,2.2-2.2,3.3-3.3
			c0.1-0.1,0-0.4-0.1-0.5c-1.1-1.1-2.2-2.2-3.4-3.3c0,0,0-0.1,0-0.1c1.2-1.2,2.4-2.3,3.8-3.6c-1-0.9-1.8-1.7-2.7-2.5
			c-0.4-0.3-0.8-0.6-1.1-0.9c0-0.1,0-0.2,0-0.3c0.1,0,0.3,0,0.3-0.1c1.1-1.1,2.2-2.2,3.4-3.3c-0.8-0.9-1.6-1.6-2.3-2.4
			c-0.4-0.4-0.9-0.8-1.4-1.2c0-0.1,0-0.1,0-0.2c0.9-0.9,1.7-1.7,2.6-2.6c0.1,0,0.1-0.1,0.2-0.1c0.5,0.2,1,0.1,1.4-0.3
			c1,0.9,2,1.9,2.9,2.9c0.1,0.1,0,0.3,0,0.4c-0.1,0.2-0.3,0.3-0.4,0.4c-1,1-2,1.9-3.1,3c1.3,1.3,2.5,2.4,3.9,3.7
			c-1.3,1.2-2.5,2.4-3.8,3.6c1.1,1.1,2.1,2.1,3.1,3c0.2,0.2,0.5,0.3,0.7,0.5c0,0.1,0,0.1,0,0.2c-0.2,0.2-0.5,0.3-0.7,0.5
			c-1,1-2.1,2-3.1,3c1.2,1.2,2.3,2.3,3.5,3.4C798.6,509.8,798.8,509.8,798.9,510C798.9,509.9,798.9,509.9,798.9,510z"/>
		<path class="st78" d="M795.3,520.9c1.1,1.1,2.2,2.3,3.4,3.4c0.1,0.1,0.2,0.1,0.3,0.1c0,0,0,0.1,0,0.1c-0.1,0-0.1,0-0.2,0.1
			c-1.1,1.1-2.2,2.1-3.2,3.2c-0.1,0.1-0.1,0.5,0.1,0.7c1,1.1,2.1,2.1,3.2,3.2c-0.9,0.9-1.8,1.9-2.7,2.8c-0.9,0.9-0.9,0.9-1.8,0
			c-0.9-0.9-1.8-1.8-2.7-2.8c1.1-1.1,2.2-2.2,3.3-3.2c0.3-0.3,0.2-0.5,0-0.7c-0.6-0.6-1.3-1.3-1.9-1.9c-0.5-0.4-0.9-0.8-1.4-1.3
			c0-0.1,0-0.2,0-0.2c0.8-0.7,1.5-1.4,2.3-2.1C794.2,521.8,794.7,521.4,795.3,520.9z"/>
		<path class="st75" d="M791.5,502.7c1.1,1.1,2.3,2.2,3.4,3.3c0.1,0.1,0.1,0.4,0.1,0.5c-1.1,1.1-2.2,2.2-3.3,3.3c0,0-0.1,0-0.1,0
			c-1.1-1.1-2.1-2.2-3.2-3.2c-0.3-0.3-0.3-0.4,0-0.7C789.3,504.9,790.4,503.8,791.5,502.7z"/>
		<path class="st75" d="M798.7,531.7c-1.1-1.1-2.1-2.1-3.2-3.2c-0.1-0.1-0.2-0.6-0.1-0.7c1.1-1.1,2.1-2.2,3.2-3.2c0,0,0.1,0,0.2-0.1
			c1.1,1.1,2.2,2.1,3.2,3.2c0.1,0.1,0.1,0.5,0,0.6c-1.1,1.1-2.2,2.2-3.2,3.3C798.9,531.7,798.8,531.7,798.7,531.7z"/>
		<path class="st79" d="M791.5,524.6c0.5,0.4,1,0.8,1.4,1.3c0.6,0.6,1.3,1.3,1.9,1.9c0.3,0.2,0.3,0.4,0,0.7
			c-1.1,1.1-2.2,2.1-3.3,3.2c-0.7-0.7-1.4-1.3-2.1-2c-0.4-0.4-0.8-0.9-1.3-1.3c-0.2-0.2-0.3-0.4,0-0.6
			C789.2,526.8,790.3,525.7,791.5,524.6z"/>
		<path class="st75" d="M791.4,488.2c0.5,0.4,1,0.8,1.4,1.2c0.8,0.7,1.5,1.5,2.3,2.4c-1.2,1.1-2.3,2.2-3.4,3.3
			c-0.1,0.1-0.2,0.1-0.3,0.1c-1.1-1.1-2.2-2.2-3.3-3.3c-0.1-0.1-0.1-0.4,0-0.5C789.2,490.4,790.3,489.3,791.4,488.2z"/>
		<path class="st79" d="M791.4,495.5c0.4,0.3,0.8,0.6,1.1,0.9c0.9,0.8,1.7,1.6,2.7,2.5c-1.4,1.3-2.6,2.5-3.8,3.6
			c-1.1-1.1-2.2-2.2-3.3-3.3c-0.1-0.1-0.1-0.4-0.1-0.5C789.2,497.7,790.3,496.6,791.4,495.5z"/>
		<path class="st75" d="M791.4,510.1c0.5,0.4,1,0.8,1.4,1.3c0.8,0.7,1.5,1.4,2.3,2.1c-0.8,0.9-1.5,1.6-2.2,2.3
			c-0.1,0-0.2,0.1-0.3,0.1c-1-0.3-1.3-0.2-1.5,0.8c0,0,0,0,0,0.1c-1-1-2-2-3-3c-0.1-0.1,0-0.4,0.1-0.5
			C789.3,512.2,790.3,511.1,791.4,510.1z"/>
		<path class="st79" d="M795.3,520.9c-0.5,0.4-1.1,0.9-1.6,1.3c-0.8,0.7-1.5,1.4-2.3,2.1c-1-1-2-2-3.1-3c-0.4-0.4-0.5-0.6,0-1
			c1-0.9,1.9-1.9,2.9-2.8c0.1,0.8,0.3,1.6,0.3,2.4c0,0.5,0.1,0.7,0.6,0.7c0.9-0.1,1.7-0.1,2.6-0.1c0.2,0.1,0.4,0.2,0.6,0.2
			C795.3,520.8,795.3,520.9,795.3,520.9z"/>
		<path class="st79" d="M794.1,485.4c-0.9,0.9-1.7,1.7-2.6,2.6c-1.1-1.1-2.1-2.2-3.2-3.2c-0.3-0.3-0.3-0.4,0-0.7
			c0.9-0.9,1.8-1.8,2.7-2.7c0,0.3,0.1,0.6,0.1,0.9c0,0.8-0.1,1.6-0.2,2.4c-0.1,0.6,0.2,0.7,0.7,0.7
			C792.4,485.4,793.2,485.4,794.1,485.4z"/>
		<path class="st82" d="M794.1,485.4c-0.8,0-1.7,0-2.5,0c-0.5,0-0.8-0.1-0.7-0.7c0.1-0.8,0.2-1.6,0.2-2.4c0-0.3-0.1-0.6-0.1-0.9
			c0.2-0.2,0.3-0.4,0.5-0.6c0,0,0,0,0,0c0.5,0.8,0.7,0.9,1.5,0.8c0.2,0,0.4,0.1,0.6,0.2c-0.2,0.2-0.3,0.3-0.5,0.5
			c-0.1,0-0.1,0.1-0.2,0.1c0.3,0.7,0.8,0.8,1.6,0.6c-0.4,0.8,0,1.2,0.5,1.6c-0.3,0.3-0.5,0.6-0.8,0.8
			C794.2,485.3,794.1,485.3,794.1,485.4z"/>
		<path class="st83" d="M795.3,520.8c-0.2-0.1-0.4-0.2-0.6-0.2c-0.2-0.2-0.4-0.5-0.6-0.7c0.8-0.4,1-0.8,0.9-1.4
			c0-0.1-0.2-0.2-0.3-0.3c-0.1,0.1-0.3,0.3-0.2,0.4c0.1,0.4-0.1,0.5-0.5,0.6c-0.7,0.2-0.8-0.3-1.1-0.6c0.2-0.2,0.4-0.3,0.4-0.5
			c0-0.3,0.1-0.5,0.5-0.5c0.1,0,0.3-0.2,0.2-0.4c0-0.1-0.2-0.3-0.3-0.3c-0.6-0.1-1,0.2-1.1,0.9c0,0.1,0,0.3-0.1,0.5
			c-0.4-0.3-0.7-0.5-1-0.7c0-0.1,0-0.2,0-0.3c0.4-0.4,0.8-0.7,1.2-1.1c0.1,0,0.2-0.1,0.3-0.1c0.8,0,1.5,0,2.3-0.1
			c0.5,0,0.7,0.2,0.8,0.6c0.1,0.8,0.1,1.7,0.2,2.5c0,0.2,0.1,0.4,0.2,0.7C796,520,795.6,520.4,795.3,520.8z"/>
		<path class="st82" d="M791.4,517.4c0.3,0.2,0.6,0.5,1,0.7c0-0.2,0.1-0.3,0.1-0.5c0.1-0.7,0.4-1,1.1-0.9c0.1,0,0.3,0.2,0.3,0.3
			c0,0.1-0.2,0.3-0.2,0.4c-0.4,0-0.4,0.2-0.5,0.5c0,0.2-0.3,0.3-0.4,0.5c0.3,0.3,0.5,0.8,1.1,0.6c0.4-0.1,0.6-0.2,0.5-0.6
			c0-0.1,0.2-0.2,0.2-0.4c0.1,0.1,0.3,0.2,0.3,0.3c0.2,0.6-0.1,1-0.9,1.4c0.2,0.3,0.4,0.5,0.6,0.7c-0.9,0-1.7,0.1-2.6,0.1
			c-0.5,0-0.6-0.2-0.6-0.7c0-0.8-0.2-1.6-0.3-2.4C791.3,517.5,791.4,517.4,791.4,517.4z"/>
		<path class="st82" d="M792.6,515.9c-0.4,0.4-0.8,0.7-1.2,1.1c-0.1-0.1-0.2-0.2-0.3-0.2c0,0,0-0.1,0.1-0.1c0,0-0.1,0-0.1,0
			c0,0,0,0,0,0c0,0,0,0,0-0.1C791.3,515.8,791.7,515.6,792.6,515.9z"/>
		<path class="st75" d="M791.1,516.7C791.2,516.7,791.2,516.7,791.1,516.7C791.2,516.8,791.2,516.8,791.1,516.7
			C791.1,516.8,791.1,516.8,791.1,516.7z"/>
		<path class="st75" d="M798.9,502.5c-0.2-0.2-0.5-0.3-0.7-0.5c-1-1-2-2-3.1-3c1.3-1.2,2.5-2.4,3.8-3.6c-1.3-1.2-2.5-2.4-3.9-3.7
			c1.1-1.1,2.1-2,3.1-3c0.1-0.1,0.3-0.3,0.4-0.4c0.1-0.1,0.1-0.4,0-0.4c-1-1-2-1.9-2.9-2.9c-0.2-0.4-0.2-0.8,0-1.2
			c0.8-0.8,1.6-1.5,2.4-2.3c0.2-0.2,0.5-0.4,0.8-0.6c1.1,1.1,2.2,2.2,3.3,3.3c0.3,0.3,0.1,0.5-0.1,0.7c-1,1-2,2-3,3
			c-0.1,0.1-0.1,0.2-0.3,0.3c1.1,1,2.1,2.1,3.2,3.2c0.3,0.3,0.4,0.5,0,0.9c-1.1,1-2.1,2.1-3.3,3.2c1.3,1.2,2.5,2.4,3.8,3.6
			C801.3,500.2,800.1,501.4,798.9,502.5z"/>
		<path class="st75" d="M798.9,509.9c-0.1-0.1-0.2-0.1-0.3-0.2c-1.1-1.1-2.2-2.2-3.5-3.4c1.1-1,2.1-2,3.1-3c0.2-0.2,0.5-0.4,0.7-0.5
			c1.1,1.1,2.1,2.1,3.2,3.2c0.4,0.3,0.3,0.5,0,0.8C801,507.7,799.9,508.8,798.9,509.9z"/>
		<path class="st80" d="M794,449C794,449,794,448.9,794,449C794,448.9,794,449,794,449z"/>
		<path class="st83" d="M795.7,483.8c-0.2,0.4-0.2,0.8,0,1.2c-0.4,0.4-0.9,0.4-1.4,0.3c0.2-0.3,0.5-0.5,0.8-0.8
			c-0.4-0.4-0.8-0.8-0.5-1.6c-0.8,0.2-1.3,0.1-1.6-0.6c0.1,0,0.1-0.1,0.2-0.1c0.2-0.1,0.3-0.3,0.5-0.5c-0.2-0.1-0.4-0.2-0.6-0.2
			c-0.9,0.1-1,0.1-1.5-0.8c0.1-0.1,0.3-0.2,0.4-0.3c1,0,2,0,3.1-0.1c0.2,0,0.4,0,0.5,0c0.4,0,0.5,0.2,0.4,0.6
			c-0.1,0.7-0.2,1.5-0.3,2.2C795.6,483.4,795.7,483.6,795.7,483.8z"/>
		<path class="st80" d="M773.8,467.2c-0.2,0-0.5,0-0.6-0.1c-0.3-0.3,0-0.5,0.3-0.7c0.1,0.2,0.3,0.4,0.4,0.6
			C773.8,467,773.8,467.1,773.8,467.2z"/>
		<path class="st80" d="M771.6,467.6c0.1-0.1,0.2-0.2,0.4-0.3c0,0,0.1,0.1,0.1,0.1c-0.1,0.1-0.2,0.2-0.3,0.3
			C771.7,467.7,771.7,467.6,771.6,467.6z"/>
		<polygon class="st77" points="795,455.1 791.5,451.6 795.1,448 798.8,451.5 		"/>
		<polygon class="st77" points="795.1,448 791.7,444.4 795.1,440.9 798.6,444.3 		"/>
		<path class="st84" d="M774.1,464.4c0,0,0.1,0,0.1,0C774.2,464.4,774.1,464.4,774.1,464.4z"/>
		<path class="st84" d="M795.1,469.9c0.1-0.1,0.2-0.3,0.3-0.4c1.1-1.1,2.2-2.2,3.3-3.2c-1.2-1.2-2.4-2.4-3.5-3.5
			c-1.2,1.2-2.4,2.3-3.5,3.5c0.5,0.5,1,1,1.5,1.5C793.8,468.5,794.5,469.2,795.1,469.9z"/>
		<path class="st84" d="M795.5,462.2c0.4-0.3,0.7-0.7,1.1-1.1c0.7-0.7,1.5-1.4,2.3-2.2c-1.3-1.3-2.6-2.4-3.9-3.8
			c1.3-1.2,2.5-2.3,3.8-3.6c-1.2-1.1-2.2-2.2-3.3-3.2c-0.1-0.1-0.3-0.1-0.5-0.2l-3.3,3.3c-0.1,0.2-0.1,0.4,0.2,0.6
			c0.1,0.1,0.2,0.2,0.3,0.2c1,1,1.9,2,3,3c-1.2,1.2-2.4,2.3-3.7,3.5c0,0,0,0,0,0c0,0,0,0,0,0c1.2,1.2,2.3,2.3,3.4,3.3
			C795,462.3,795.4,462.3,795.5,462.2z"/>
		<path class="st84" d="M776.6,473.1c0.1,0.1,0.4,0.1,0.5,0c1.1-1.1,2.2-2.2,3.4-3.3c-1.2-1.2-2.4-2.4-3.6-3.6
			c-1.2,1.2-2.4,2.4-3.6,3.6C774.4,471,775.5,472.1,776.6,473.1z"/>
		<path class="st84" d="M773.8,467.2c0-0.1,0.1-0.2,0.1-0.3c-0.1-0.2-0.3-0.4-0.4-0.6c-0.3,0.2-0.6,0.4-0.3,0.7
			C773.3,467.2,773.6,467.1,773.8,467.2z"/>
		<path class="st84" d="M784,473.2c0.1,0.1,0.3,0,0.4,0c2.2-2.2,4.5-4.4,6.7-6.7c0.1-0.1,0.1-0.5,0-0.6c-1-1.1-2.1-2.2-3.2-3.4
			c-2.5,2.5-4.9,4.9-7.3,7.3C781.8,471,782.9,472.1,784,473.2z"/>
		<path class="st84" d="M795.4,433.7c-0.1-0.1-0.5-0.1-0.6,0c-1.1,1-2.2,2.1-3.4,3.3c1.2,1.2,2.3,2.2,3.3,3.3c0.3,0.3,0.4,0.3,0.7,0
			c1.1-1.1,2.2-2.1,3.4-3.3C797.7,435.8,796.6,434.8,795.4,433.7z"/>
		<path class="st84" d="M791.7,444.4l3.3,3.4c0.2-0.1,0.4-0.2,0.5-0.3c0.8-0.8,1.7-1.6,2.5-2.5c0.2-0.2,0.4-0.5,0.7-0.7
			c-1.2-1.2-2.4-2.3-3.6-3.5C794,442,792.8,443.2,791.7,444.4z"/>
		<path class="st84" d="M801.9,469.3c1.4,1.4,2.8,2.7,4.2,4.1c1.1-1.1,2.3-2.3,3.5-3.5c-2.4-2.4-4.8-4.8-7.2-7.3
			c-1.1,1.1-2.1,2.2-3.2,3.2c-0.3,0.3-0.3,0.5,0,0.8C800.1,467.5,801,468.4,801.9,469.3z"/>
		<path class="st84" d="M767.8,470.9c0.2,0.1,0.6,0.1,0.8-0.1c0.2-0.2,0.3-0.6-0.2-0.7c0,0-0.1-0.1-0.1-0.2c-0.2-0.9-0.4-1-1.1-0.4
			c-0.1,0.1-0.2,0.1-0.4,0.2C767.1,470.3,767.4,470.7,767.8,470.9z M768.2,470.2c0.1,0,0.1,0.1,0.2,0.1c-0.1,0.1-0.2,0.2-0.2,0.4
			c-0.1,0-0.1-0.1-0.2-0.1C768,470.5,768.1,470.4,768.2,470.2z"/>
		<path class="st84" d="M770.2,469.4c-0.1-0.3-0.2-0.5-0.2-0.8C770.1,468.9,770.1,469.1,770.2,469.4
			C770.2,469.4,770.2,469.4,770.2,469.4z"/>
		<path class="st84" d="M770.4,470.3c0.1-0.1,0.2-0.1,0.2-0.2C770.5,470.2,770.4,470.2,770.4,470.3L770.4,470.3z"/>
		<path class="st84" d="M772.1,467.4c0,0-0.1-0.1-0.1-0.1c-0.1,0.1-0.2,0.2-0.4,0.3c0,0.1,0.1,0.1,0.1,0.2
			C771.9,467.6,772,467.5,772.1,467.4z"/>
		<path class="st84" d="M771.9,466.3c0.2,0.2,0.1,0.6,0.3,0.8C772,466.9,772.1,466.5,771.9,466.3z"/>
		<path class="st84" d="M770.6,469.2c0,0.1-0.1,0.2-0.4,0.2C770.4,469.4,770.6,469.3,770.6,469.2z"/>
		<path class="st80" d="M791.4,458.8C791.4,458.8,791.4,458.8,791.4,458.8C791.4,458.9,791.4,458.9,791.4,458.8
			C791.5,458.9,791.5,458.9,791.4,458.8C791.5,458.8,791.5,458.8,791.4,458.8z"/>
		<path class="st80" d="M768.4,470.3c-0.1,0-0.1-0.1-0.2-0.1c-0.1,0.1-0.2,0.2-0.3,0.4c0.1,0,0.1,0.1,0.2,0.1
			C768.2,470.6,768.3,470.5,768.4,470.3z"/>
		<path class="st80" d="M779.5,463.5l-2.2,2.2c0.2-0.1,0.3-0.3,0.6-0.5C778.4,464.6,778.9,464.1,779.5,463.5z"/>
		<path class="st84" d="M801.9,469.3c1.4,1.4,2.8,2.7,4.2,4.1c1.1-1.1,2.3-2.3,3.5-3.5c-2.4-2.4-4.8-4.8-7.2-7.3
			c-1.1,1.1-2.1,2.2-3.2,3.2c-0.3,0.3-0.3,0.5,0,0.8C800.1,467.5,801,468.4,801.9,469.3z"/>
		<path class="st84" d="M795.1,469.9c0.1-0.1,0.2-0.3,0.3-0.4c1.1-1.1,2.2-2.2,3.3-3.2c-1.2-1.2-2.4-2.4-3.5-3.5
			c-1.2,1.2-2.4,2.3-3.5,3.5c0.5,0.5,1,1,1.5,1.5C793.8,468.5,794.5,469.2,795.1,469.9z"/>
		<path class="st84" d="M795.4,433.7c-0.1-0.1-0.5-0.1-0.6,0c-1.1,1-2.2,2.1-3.4,3.3c1.2,1.2,2.3,2.2,3.3,3.3c0.3,0.3,0.4,0.3,0.7,0
			c1.1-1.1,2.2-2.1,3.4-3.3C797.7,435.8,796.6,434.8,795.4,433.7z"/>
		<path class="st84" d="M776.6,473.1c0.1,0.1,0.4,0.1,0.5,0c1.1-1.1,2.2-2.2,3.4-3.3c-1.2-1.2-2.4-2.4-3.6-3.6
			c-1.2,1.2-2.4,2.4-3.6,3.6C774.4,471,775.5,472.1,776.6,473.1z"/>
		<path class="st84" d="M784,473.2c0.1,0.1,0.3,0,0.4,0c2.2-2.2,4.5-4.4,6.7-6.7c0.1-0.1,0.1-0.5,0-0.6c-1-1.1-2.1-2.2-3.2-3.4
			c-2.5,2.5-4.9,4.9-7.3,7.3C781.8,471,782.9,472.1,784,473.2z"/>
		<path class="st84" d="M791.7,444.4l3.3,3.4c0.2-0.1,0.4-0.2,0.5-0.3c0.8-0.8,1.7-1.6,2.5-2.5c0.2-0.2,0.4-0.5,0.7-0.7
			c-1.2-1.2-2.4-2.3-3.6-3.5C794,442,792.8,443.2,791.7,444.4z"/>
		<path class="st80" d="M773.5,462.7L773.5,462.7C773.6,462.8,773.6,462.7,773.5,462.7z"/>
		<path class="st80" d="M768,467.7c-0.7,0.7-1.4,1.4-2,2.1L768,467.7z"/>
		<path class="st80" d="M770.6,469.2c0,0.1-0.1,0.2-0.4,0.2C770.4,469.4,770.6,469.3,770.6,469.2z"/>
		<path class="st80" d="M772.1,467.4c0,0-0.1-0.1-0.1-0.1c-0.1,0.1-0.2,0.2-0.4,0.3c0,0.1,0.1,0.1,0.1,0.2
			C771.9,467.6,772,467.5,772.1,467.4z"/>
		<path class="st80" d="M767.8,470.9c0.2,0.1,0.6,0.1,0.8-0.1c0.2-0.2,0.3-0.6-0.2-0.7c0,0-0.1-0.1-0.1-0.2c-0.2-0.9-0.4-1-1.1-0.4
			c-0.1,0.1-0.2,0.1-0.4,0.2C767.1,470.3,767.4,470.7,767.8,470.9z"/>
		<path class="st80" d="M770.2,469.4c-0.1-0.3-0.2-0.5-0.2-0.8C770.1,468.9,770.1,469.1,770.2,469.4
			C770.2,469.4,770.2,469.4,770.2,469.4z"/>
		<path class="st80" d="M774.1,464.4c0,0,0.1,0,0.1,0C774.2,464.4,774.1,464.4,774.1,464.4z"/>
		<path class="st80" d="M771.9,466.3c0.2,0.2,0.1,0.6,0.3,0.8C772,466.9,772.1,466.5,771.9,466.3z"/>
		<path class="st80" d="M770.4,470.3c0.1-0.1,0.2-0.1,0.2-0.2C770.5,470.2,770.4,470.2,770.4,470.3L770.4,470.3z"/>
		<path class="st80" d="M766.5,470.4l1,1l5.7,5.7c1-1,2-2,3-3c0.6-0.6,0.6-0.6,1.3,0c0,0,0,0.1,0.1,0.1c0.9,1,1.9,2,3,3.1
			c0.2-0.3,0.4-0.6,0.5-0.7c0.9-0.9,1.9-1.8,2.8-2.8c0.2-0.2,0.3-0.3,0.6,0c1.1,1.1,2.2,2.2,3.3,3.3c0,0,0,0,0,0s0,0,0,0
			c0.3-0.3,0.6-0.6,0.9-0.9c0.9-0.9,1.8-1.8,2.7-2.7c1.2-1.2,2.5-2.4,3.7-3.7c0.9,0.8,1.7,1.7,2.6,2.5c0.4,0.4,0.7,0.8,1,1.2
			c1.1,1.1,2.1,2.1,3.2,3.2c0.1,0.1,0.2,0.2,0.3,0.3c0.1,0,0.2,0,0.3-0.1c1.2-1.1,2.3-2.3,3.5-3.5c1.2,1.2,2.4,2.4,3.7,3.7
			c0.8-0.8,1.6-1.7,2.4-2.6c1.1-1.1,1.1-1.1,2.2,0c0.8,0.8,1.6,1.7,2.4,2.6c0.2-0.2,0.2-0.2,0.2-0.2c2.3-2.3,4.6-4.6,6.9-6.9
			c0.3-0.3,0.2-0.5-0.1-0.7c-1.4-1.4-2.8-2.8-4.2-4.2c-0.9-0.9-1.8-1.8-2.8-2.7c-0.8,0.8-1.7,1.7-2.5,2.5l-0.9,1l0.5,0.7
			c1,1,2,1.9,3,3c-1.2,1.2-2.3,2.3-3.5,3.4c-0.1,0.1-0.4,0.1-0.5,0c-1-1-2-2-3.1-3c-0.3-0.3-0.2-0.4,0-0.6c0.8-0.8,1.7-1.7,2.5-2.5
			l1-1l-0.8-0.8c-0.2-0.2-0.4-0.3-0.6-0.5c-1.8-1.8-3.7-3.6-5.5-5.5c-0.4-0.4-0.6-0.4-1,0c-1,1.1-2,2.1-3.1,3.2
			c-1.2-1.2-2.4-2.4-3.7-3.7c0.9-0.9,1.9-1.8,2.8-2.7c0.8-0.8,0.8-0.8,0-1.6c-0.9-0.9-1.9-1.8-2.8-2.7c1.2-1.3,2.4-2.5,3.5-3.7
			c-0.6-0.6-1.2-1.3-1.8-1.9c-0.6-0.6-1.2-1.2-1.9-1.9c2.5-2.4,4.9-4.8,7.3-7.2c0-0.1-0.1-0.1-0.1-0.2c-3.5-3.5-7.1-7.1-10.6-10.6
			c-0.1-0.1-0.3-0.1-0.5-0.2c-0.1,0.1-0.1,0.2-0.2,0.3c-2.7,2.7-5.4,5.3-8,8c-0.9,0.9-1.7,1.7-2.5,2.6c0,0.1,0.1,0.1,0.1,0.2
			c2.3,2.3,4.5,4.5,6.8,6.8c0.3,0.3,0.3,0.5,0,0.8c-0.4,0.4-0.8,0.8-1.2,1.2c-0.7,0.7-1.4,1.4-2.1,2.2c0.8,0.7,1.5,1.5,2.3,2.2
			l0.1,0.1c0.4,0.4,0.9,0.9,1.4,1.3c-1.3,1.2-2.5,2.4-3.8,3.6c1.3,1.2,2.5,2.4,3.8,3.5c1.3-1.2,2.5-2.3,3.7-3.5c-1.1-1.1-2-2-3-3
			c-0.1-0.1-0.2-0.2-0.3-0.2c-0.3-0.2-0.3-0.4-0.2-0.6l3.3-3.3c0.2,0.1,0.4,0.1,0.5,0.2c1.1,1,2.2,2.1,3.3,3.2
			c-1.3,1.2-2.5,2.4-3.8,3.6c1.4,1.3,2.6,2.5,3.9,3.8c-0.8,0.8-1.6,1.5-2.3,2.2c-0.4,0.4-0.7,0.8-1.1,1.1c-0.1,0.1-0.5,0.1-0.6,0
			c-1.1-1.1-2.2-2.1-3.4-3.3c-1.2,1.2-2.3,2.3-3.4,3.4c-0.1,0.1-0.2,0.1-0.3,0.1l-3.4-3.6l-0.7,0.7l-1,1l-3.2,3.1
			c-0.5,0.5-1.1,1.1-1.6,1.6c-0.2,0.2-0.4,0.4-0.6,0.5c-0.1,0.1-0.2,0.2-0.3,0.2l-3.3-3.1l-0.1-0.1l-0.2-0.2l-0.1,0.1l-5.3,5.1
			l-2,2.1L766.5,470.4z M798,445c-0.8,0.8-1.6,1.7-2.5,2.5c-0.1,0.1-0.3,0.2-0.5,0.3l-3.3-3.4c1.2-1.2,2.3-2.4,3.4-3.6
			c1.2,1.1,2.3,2.3,3.6,3.5C798.4,444.6,798.2,444.8,798,445z M795.5,440.3c-0.2,0.2-0.4,0.2-0.7,0c-1.1-1.1-2.1-2.1-3.3-3.3
			c1.2-1.1,2.2-2.2,3.4-3.3c0.1-0.1,0.5-0.1,0.6,0c1.1,1,2.3,2.1,3.5,3.3C797.7,438.2,796.6,439.3,795.5,440.3z M799.2,465.8
			c1.1-1.1,2.1-2.1,3.2-3.2c2.4,2.5,4.8,4.9,7.2,7.3c-1.2,1.2-2.4,2.4-3.5,3.5c-1.4-1.4-2.8-2.7-4.2-4.1c-0.9-0.9-1.8-1.8-2.7-2.7
			C798.9,466.3,798.9,466.1,799.2,465.8z M795.2,462.7c1.1,1.1,2.3,2.3,3.5,3.5c-1.1,1.1-2.2,2.1-3.3,3.2c-0.1,0.1-0.2,0.3-0.3,0.4
			c-0.7-0.7-1.3-1.4-2-2.1c-0.5-0.5-1-1-1.5-1.5C792.8,465.1,794,463.9,795.2,462.7z M788,462.5c1.1,1.1,2.1,2.2,3.2,3.4
			c0.1,0.1,0.1,0.5,0,0.6c-2.2,2.2-4.5,4.5-6.7,6.7c-0.1,0.1-0.4,0.1-0.4,0c-1.1-1.1-2.2-2.2-3.4-3.3
			C783.1,467.4,785.5,465,788,462.5z M776.9,466.3c1.2,1.2,2.4,2.4,3.6,3.6c-1.1,1.1-2.2,2.2-3.4,3.3c-0.1,0.1-0.4,0.1-0.5,0
			c-1.1-1.1-2.2-2.2-3.3-3.2C774.5,468.7,775.7,467.5,776.9,466.3z"/>
		<polygon class="st78" points="798.9,480.8 795,484.4 791.5,480.7 795.1,477.2 		"/>
		<polygon class="st78" points="795,484.4 798.9,488.1 795,491.7 791.5,488 		"/>
		<polygon class="st79" points="798.9,480.8 795,484.4 798.9,488.1 		"/>
		<polygon class="st79" points="791.5,480.7 795,484.4 791.5,488 787.8,484.4 		"/>
		<polygon class="st79" points="795.3,520.8 791.4,517.4 787.8,520.8 791.5,524.4 		"/>
		<polygon class="st79" points="791.4,517.4 794.1,514.6 790.7,514.6 790.5,516.2 		"/>
		<polyline class="st78" points="793.4,515.4 796.1,515.7 796.5,517.6 796.4,519.5 795.3,520.8 791.4,517.4 		"/>
	</g>
</g>
<g id="Ship" class="st1">
	<g class="st2">
		<g>
			<path class="st86" d="M904.4,431.6l131,49.3L969,463.4l-66-28C897.9,433,899.1,429.6,904.4,431.6z"/>
		</g>
	</g>
</g>
</svg>
