<?xml version="1.0" encoding="utf-8"?>
<!-- Generator: Adobe Illustrator 22.1.0, SVG Export Plug-In . SVG Version: 6.00 Build 0)  -->
<svg version="1.1" id="Figment.observer_Layer" xmlns="http://www.w3.org/2000/svg" xmlns:xlink="http://www.w3.org/1999/xlink"
	 x="0px" y="0px" viewBox="0 0 139.2 139.2" style="enable-background:new 0 0 139.2 139.2;" xml:space="preserve">
<style type="text/css">
	.st0{display:none;fill:url(#Background_1_);}
	.st1{display:none;}
	.st2{display:inline;}
	.st3{fill:#2D6C8A;}
	.st4{filter:url(#Adobe_OpacityMaskFilter);}
	.st5{filter:url(#Adobe_OpacityMaskFilter_1_);}
	.st6{mask:url(#SVGID_1_);fill:url(#SVGID_2_);}
	.st7{opacity:0.6;fill:url(#SVGID_3_);}
	.st8{filter:url(#Adobe_OpacityMaskFilter_2_);}
	.st9{filter:url(#Adobe_OpacityMaskFilter_3_);}
	.st10{mask:url(#SVGID_4_);fill:url(#SVGID_5_);}
	.st11{opacity:0.6;fill:url(#SVGID_6_);}
	.st12{filter:url(#Adobe_OpacityMaskFilter_4_);}
	.st13{filter:url(#Adobe_OpacityMaskFilter_5_);}
	.st14{mask:url(#SVGID_7_);fill:url(#SVGID_8_);}
	.st15{opacity:0.6;fill:url(#SVGID_9_);}
	.st16{fill:url(#SVGID_10_);}
	.st17{fill:url(#SVGID_11_);}
	.st18{fill:url(#SVGID_12_);}
	.st19{fill:url(#SVGID_13_);}
	.st20{fill:url(#SVGID_14_);}
	.st21{fill:url(#SVGID_15_);}
	.st22{fill:url(#SVGID_16_);}
	.st23{fill:url(#SVGID_17_);}
	.st24{fill:url(#SVGID_18_);}
	.st25{fill:#0D1E32;}
	.st26{fill:url(#SVGID_19_);}
	.st27{fill:url(#SVGID_20_);}
	.st28{display:inline;fill:url(#SVGID_21_);}
	.st29{display:inline;fill:#0E405B;}
	.st30{fill:#FFFFFF;}
	.st31{filter:url(#Adobe_OpacityMaskFilter_6_);}
	.st32{filter:url(#Adobe_OpacityMaskFilter_7_);}
	.st33{mask:url(#SVGID_22_);fill:url(#SVGID_23_);}
	.st34{fill:url(#SVGID_24_);}
	.st35{filter:url(#Adobe_OpacityMaskFilter_8_);}
	.st36{filter:url(#Adobe_OpacityMaskFilter_9_);}
	.st37{mask:url(#SVGID_25_);fill:url(#SVGID_26_);}
	.st38{fill:url(#SVGID_27_);}
	.st39{filter:url(#Adobe_OpacityMaskFilter_10_);}
	.st40{filter:url(#Adobe_OpacityMaskFilter_11_);}
	.st41{mask:url(#SVGID_28_);fill:url(#SVGID_29_);}
	.st42{fill:url(#SVGID_30_);}
	.st43{fill:#F3F4C4;}
	.st44{filter:url(#Adobe_OpacityMaskFilter_12_);}
	.st45{filter:url(#Adobe_OpacityMaskFilter_13_);}
	.st46{mask:url(#SVGID_31_);fill:url(#SVGID_32_);}
	.st47{fill:url(#SVGID_33_);}
	.st48{fill:#EFA139;}
	.st49{fill:#CC7429;}
	.st50{fill:#D88228;}
	.st51{opacity:0.4;fill:#D88228;}
	.st52{fill:#FCC948;}
	.st53{fill:#D68128;}
	.st54{fill:#B25F27;}
	.st55{filter:url(#Adobe_OpacityMaskFilter_14_);}
	.st56{filter:url(#Adobe_OpacityMaskFilter_15_);}
	.st57{mask:url(#SVGID_34_);fill:url(#SVGID_35_);}
	.st58{fill:url(#SVGID_36_);}
	.st59{fill:#1C5371;}
	.st60{fill:#F9ED32;}
	.st61{fill:url(#SVGID_37_);}
	.st62{fill:#527E9B;}
	.st63{display:inline;fill:#FFFFFF;}
	.st64{display:inline;fill:#F59425;}
	.st65{fill:#FFECDE;}
	.st66{fill:#00A5BD;}
	.st67{fill:#DFF2F8;}
	.st68{fill:#DF4F51;}
	.st69{display:inline;fill:#FFECDE;}
	.st70{display:inline;fill:#E72B4B;}
	.st71{filter:url(#Adobe_OpacityMaskFilter_16_);}
	.st72{filter:url(#Adobe_OpacityMaskFilter_17_);}
	.st73{mask:url(#SVGID_38_);fill:url(#SVGID_39_);}
	.st74{fill:url(#SVGID_40_);}
	.st75{fill:#56595C;}
	.st76{fill:#F2F3F6;}
	.st77{fill:#AEB2BE;}
	.st78{fill:#6B4C2A;}
	.st79{fill:#AFB4BF;}
	.st80{fill:#F1F2F6;}
	.st81{fill:#110F0D;}
	.st82{fill:#4F4D4B;}
	.st83{fill:#D3D4D9;}
	.st84{fill:#989BA5;}
	.st85{fill:none;}
	.st86{fill:#9B9B9B;}
	.st87{fill:#9E4E34;}
	.st88{fill:#484340;}
	.st89{fill:#393432;}
	.st90{fill:#A65F41;}
	.st91{fill:#8A412F;}
	.st92{fill:#B36952;}
	.st93{fill:#EA8B4A;}
	.st94{fill:#713221;}
	.st95{fill:#5F241A;}
	.st96{fill:#381814;}
	.st97{fill:#B6634D;}
	.st98{fill:#D1732C;}
	.st99{fill:#6ACBDA;}
	.st100{fill:#1FB7BE;}
	.st101{fill:#FDB92E;}
	.st102{fill:#F6B662;}
	.st103{fill:#5E5E5E;}
</style>
<linearGradient id="Background_1_" gradientUnits="userSpaceOnUse" x1="-93.246" y1="415.5049" x2="-93.246" y2="-668.57">
	<stop  offset="0.3265" style="stop-color:#72C4CC"/>
	<stop  offset="0.4304" style="stop-color:#6ABAC5"/>
	<stop  offset="0.5967" style="stop-color:#58A2B6"/>
	<stop  offset="0.8033" style="stop-color:#3E81A0"/>
	<stop  offset="1" style="stop-color:#206188"/>
</linearGradient>
<rect id="Background" x="-1053.2" y="-667.3" class="st0" width="1920" height="1081"/>
<g id="Mountains__x26__Trees" class="st1">
	<g id="Mountains" class="st2">
		<g>
			<polygon class="st3" points="201,100.4 -91.5,-405.4 -384,100.4 			"/>
			<defs>
				<filter id="Adobe_OpacityMaskFilter" filterUnits="userSpaceOnUse" x="-91.5" y="-405.4" width="292.5" height="505.8">
					<feFlood  style="flood-color:white;flood-opacity:1" result="back"/>
					<feBlend  in="SourceGraphic" in2="back" mode="normal"/>
				</filter>
			</defs>
			<mask maskUnits="userSpaceOnUse" x="-91.5" y="-405.4" width="292.5" height="505.8" id="SVGID_1_">
				<g class="st4">
					<defs>
						<filter id="Adobe_OpacityMaskFilter_1_" filterUnits="userSpaceOnUse" x="-91.5" y="-405.4" width="292.5" height="505.8">
							<feFlood  style="flood-color:white;flood-opacity:1" result="back"/>
							<feBlend  in="SourceGraphic" in2="back" mode="normal"/>
						</filter>
					</defs>
					<mask maskUnits="userSpaceOnUse" x="-91.5" y="-405.4" width="292.5" height="505.8" id="SVGID_1_">
					</mask>
					<linearGradient id="SVGID_2_" gradientUnits="userSpaceOnUse" x1="54.7785" y1="100.4257" x2="54.7785" y2="-405.3997">
						<stop  offset="0.561" style="stop-color:#000000"/>
						<stop  offset="0.6418" style="stop-color:#2A2A2A"/>
						<stop  offset="0.8224" style="stop-color:#949494"/>
						<stop  offset="0.9949" style="stop-color:#FFFFFF"/>
					</linearGradient>
					<polygon class="st6" points="201,100.4 -91.5,-405.4 -91.5,100.4 					"/>
				</g>
			</mask>
			<linearGradient id="SVGID_3_" gradientUnits="userSpaceOnUse" x1="54.7785" y1="100.4257" x2="54.7785" y2="-405.3997">
				<stop  offset="0.561" style="stop-color:#C6E8EB"/>
				<stop  offset="0.9065" style="stop-color:#CED7D8"/>
				<stop  offset="0.9949" style="stop-color:#D1D3D4"/>
			</linearGradient>
			<polygon class="st7" points="201,100.4 -91.5,-405.4 -91.5,100.4 			"/>
		</g>
		<g>
			<polygon class="st3" points="296.7,100.4 59.3,-310 -178,100.4 			"/>
			<defs>
				<filter id="Adobe_OpacityMaskFilter_2_" filterUnits="userSpaceOnUse" x="59.3" y="-310" width="237.3" height="410.4">
					<feFlood  style="flood-color:white;flood-opacity:1" result="back"/>
					<feBlend  in="SourceGraphic" in2="back" mode="normal"/>
				</filter>
			</defs>
			<mask maskUnits="userSpaceOnUse" x="59.3" y="-310" width="237.3" height="410.4" id="SVGID_4_">
				<g class="st8">
					<defs>
						<filter id="Adobe_OpacityMaskFilter_3_" filterUnits="userSpaceOnUse" x="59.3" y="-310" width="237.3" height="410.4">
							<feFlood  style="flood-color:white;flood-opacity:1" result="back"/>
							<feBlend  in="SourceGraphic" in2="back" mode="normal"/>
						</filter>
					</defs>
					<mask maskUnits="userSpaceOnUse" x="59.3" y="-310" width="237.3" height="410.4" id="SVGID_4_">
					</mask>
					
						<linearGradient id="SVGID_5_" gradientUnits="userSpaceOnUse" x1="3951.8467" y1="406.243" x2="3951.8467" y2="-309.9818" gradientTransform="matrix(-1 0 0 1 4129.8389 0)">
						<stop  offset="0.561" style="stop-color:#000000"/>
						<stop  offset="0.6418" style="stop-color:#2A2A2A"/>
						<stop  offset="0.8224" style="stop-color:#949494"/>
						<stop  offset="0.9949" style="stop-color:#FFFFFF"/>
					</linearGradient>
					<polygon class="st10" points="296.7,100.4 59.3,-310 59.3,100.4 					"/>
				</g>
			</mask>
			
				<linearGradient id="SVGID_6_" gradientUnits="userSpaceOnUse" x1="3951.8467" y1="406.243" x2="3951.8467" y2="-309.9818" gradientTransform="matrix(-1 0 0 1 4129.8389 0)">
				<stop  offset="0.561" style="stop-color:#C6E8EB"/>
				<stop  offset="0.9065" style="stop-color:#CED7D8"/>
				<stop  offset="0.9949" style="stop-color:#D1D3D4"/>
			</linearGradient>
			<polygon class="st11" points="296.7,100.4 59.3,-310 59.3,100.4 			"/>
		</g>
	</g>
	<g id="Back_Bushes" class="st2">
		<g>
			<linearGradient id="SVGID_7_" gradientUnits="userSpaceOnUse" x1="191.3958" y1="-213.0825" x2="191.3958" y2="98.9058">
				<stop  offset="0" style="stop-color:#0E405B"/>
				<stop  offset="0.373" style="stop-color:#0E3E59"/>
				<stop  offset="0.8418" style="stop-color:#0F3851"/>
				<stop  offset="1" style="stop-color:#0F354D"/>
			</linearGradient>
			<path style="fill:url(#SVGID_7_);" d="M79.8,100.4V84.5c-8.2-2.9-14.1-10.7-14.1-19.9c0-11.7,9.5-21.1,21.1-21.1
				c5.9,0,11.1,2.4,15,6.2c2.4-5.9,8.2-10.1,15-10.1c5.4,0,10.1,2.6,13.1,6.7c3.4-2.3,7.4-3.6,11.7-3.6c10.1,0,18.5,7,20.6,16.5
				c2.9-3.1,7.1-5,11.7-5c4.3,0,8.3,1.7,11.2,4.5c2.6-8.7,10.7-15.1,20.2-15.1c11.7,0,21.1,9.5,21.1,21.1c0,0.6,0,1.1-0.1,1.7
				c0,0,0.1,0,0.1,0c4.5,0,8.5,1.8,11.5,4.8c3-5.2,8.6-8.7,15-8.7c5.9,0,11.1,2.9,14.2,7.4c3.3-2.2,7.3-3.5,11.6-3.5
				c10.7,0,19.5,7.9,20.9,18.3c0.4,0,0.8-0.1,1.2-0.1c8.9,0,16,7.1,16.2,16H79.8z"/>
		</g>
	</g>
	<g id="Back_Trees" class="st2">
		<g>
			<g>
				<g>
					<linearGradient id="SVGID_8_" gradientUnits="userSpaceOnUse" x1="-91.35" y1="-213.0826" x2="-91.35" y2="98.9053">
						<stop  offset="0" style="stop-color:#0E405B"/>
						<stop  offset="0.373" style="stop-color:#0E3E59"/>
						<stop  offset="0.8418" style="stop-color:#0F3851"/>
						<stop  offset="1" style="stop-color:#0F354D"/>
					</linearGradient>
					<polygon style="fill:url(#SVGID_8_);" points="34.1,100.4 -17.1,21 8.4,21 -32.7,-42.7 -13.7,-42.7 -48.8,-97.2 -30.8,-97.2 
						-65.6,-151.1 -47.2,-151.1 -91.3,-219.5 -135.5,-151.1 -117.1,-151.1 -151.9,-97.2 -133.9,-97.2 -169,-42.7 -150,-42.7 
						-191.1,21 -165.6,21 -216.8,100.4 					"/>
				</g>
			</g>
		</g>
		<g>
			<g>
				<g>
					<g>
						<linearGradient id="SVGID_9_" gradientUnits="userSpaceOnUse" x1="36.3195" y1="-213.0827" x2="36.3195" y2="98.906">
							<stop  offset="0" style="stop-color:#0E405B"/>
							<stop  offset="0.373" style="stop-color:#0E3E59"/>
							<stop  offset="0.8418" style="stop-color:#0F3851"/>
							<stop  offset="1" style="stop-color:#0F354D"/>
						</linearGradient>
						<polygon style="fill:url(#SVGID_9_);" points="-22.2,61.3 -47.4,100.4 120.1,100.4 94.8,61.3 115,61.3 82.5,11.1 97.6,11.1 
							69.8,-31.9 84,-31.9 56.6,-74.4 71.1,-74.4 36.3,-128.3 1.5,-74.4 16,-74.4 -11.4,-31.9 2.8,-31.9 -24.9,11.1 -9.9,11.1 
							-42.3,61.3 						"/>
					</g>
				</g>
			</g>
			<g>
				<linearGradient id="SVGID_10_" gradientUnits="userSpaceOnUse" x1="-5.5582" y1="123.9348" x2="-5.5582" y2="-128.3086">
					<stop  offset="0" style="stop-color:#0F354D"/>
					<stop  offset="0.4261" style="stop-color:#184762"/>
					<stop  offset="1" style="stop-color:#225D7E"/>
				</linearGradient>
				<polygon class="st16" points="-19.1,56.6 -47.4,100.4 36.3,100.4 36.3,-128.3 1.5,-74.4 18.9,-78.8 -11.4,-31.9 6,-36.8 
					-24.9,11.1 -6.1,5.2 -42.3,61.3 				"/>
			</g>
		</g>
	</g>
	<g id="Front_Trees" class="st2">
		<g>
			<g>
				<linearGradient id="SVGID_11_" gradientUnits="userSpaceOnUse" x1="137.9814" y1="74.4016" x2="137.9814" y2="-6.8871">
					<stop  offset="0.2755" style="stop-color:#2D6C8A"/>
					<stop  offset="0.4163" style="stop-color:#306F8C"/>
					<stop  offset="0.5876" style="stop-color:#387893"/>
					<stop  offset="0.7746" style="stop-color:#46889F"/>
					<stop  offset="0.9717" style="stop-color:#59A1B2"/>
					<stop  offset="1" style="stop-color:#5CA5B5"/>
				</linearGradient>
				<circle class="st17" cx="138" cy="33.8" r="40.6"/>
			</g>
			<path class="st25" d="M159.4,41.3h-3.7c-1.5,2.9-5.4,9.3-12.2,14.1l0,0c0,0-1.3,0.9-2.2,0.6c-1.1-0.4-1.6-1.6-1.7-5.8V33.6h-3.3
				V49c-0.1,5.2-0.5,6.6-1.7,7c-1,0.3-2.2-0.6-2.2-0.6l0,0c-6.7-4.8-10.6-11.2-12.2-14.1h-3.7c0.7,1.5,4.5,9.5,12.4,15.7l0,0
				c0,0,5.2,3.9,5.2,8.9v34.6h7.7v-35c0.3-4.8,5.2-8.5,5.2-8.5l0,0C154.9,50.8,158.7,42.9,159.4,41.3z"/>
		</g>
	</g>
</g>
<g id="Floating" class="st1">
	<path class="st29" d="M319.7,152.7h-828.1c-13.8,0-25-11.2-25-25v-2.3c0-13.8,11.2-25,25-25h828.1c13.8,0,25,11.2,25,25v2.3
		C344.7,141.5,333.4,152.7,319.7,152.7z"/>
</g>
<g id="Clouds__x26__Shadows__x28_Left_to_Right_x29_" class="st1">
</g>
<g id="Tent" class="st1">
	<g id="Outer_Tent" class="st2">
		<g>
			<polygon class="st48" points="16.5,56.7 -91.4,-64.5 -198.6,56.7 -185.2,100.4 3.1,100.4 			"/>
			<polygon class="st49" points="16.5,56.7 -91.4,-64.5 -91.4,100.4 3.1,100.4 			"/>
		</g>
		<g>
			<g>
				<g>
					<path class="st25" d="M56.6,100.1v-4.6c0-0.7,0.6-1.4,1.4-1.4s1.4,0.6,1.4,1.4v4.6H56.6z"/>
					<path class="st54" d="M55.7,100.5h3.6c0.5,0,0.9-0.4,0.9-0.9c0-0.5-0.4-0.9-0.9-0.9h-2.8L5.8,44.2c-0.3-0.4-0.9-0.4-1.3,0
						c-0.4,0.3-0.4,0.9,0,1.3L55.7,100.5z"/>
				</g>
				<g>
					<polygon class="st51" points="-91.4,-17.7 -91.4,-39.2 28,68.1 					"/>
					<polygon class="st48" points="28.1,68.1 -91.4,-27.8 -91.4,-64.5 					"/>
					<polygon class="st54" points="28.1,68.1 13.7,65.6 16,58.4 					"/>
				</g>
			</g>
		</g>
	</g>
</g>
<g id="Fire">
	<g>
		<defs>
			<filter id="Adobe_OpacityMaskFilter_4_" filterUnits="userSpaceOnUse" x="0" y="0" width="139.2" height="139.2">
				<feColorMatrix  type="matrix" values="1 0 0 0 0  0 1 0 0 0  0 0 1 0 0  0 0 0 1 0"/>
			</filter>
		</defs>
		<mask maskUnits="userSpaceOnUse" x="0" y="0" width="139.2" height="139.2" id="SVGID_12_">
			<g class="st12">
				<defs>
					<filter id="Adobe_OpacityMaskFilter_5_" filterUnits="userSpaceOnUse" x="0" y="0" width="139.2" height="139.2">
						<feFlood  style="flood-color:white;flood-opacity:1" result="back"/>
						<feBlend  in="SourceGraphic" in2="back" mode="normal"/>
					</filter>
				</defs>
				<mask maskUnits="userSpaceOnUse" x="0" y="0" width="139.2" height="139.2" id="SVGID_12_">
				</mask>
				<radialGradient id="SVGID_13_" cx="69.6037" cy="69.6037" r="69.6037" gradientUnits="userSpaceOnUse">
					<stop  offset="0" style="stop-color:#FFFFFF"/>
					<stop  offset="0.2735" style="stop-color:#AFAFAF"/>
					<stop  offset="0.5868" style="stop-color:#595959"/>
					<stop  offset="0.7296" style="stop-color:#363636"/>
					<stop  offset="0.8991" style="stop-color:#101010"/>
					<stop  offset="0.9949" style="stop-color:#000000"/>
				</radialGradient>
				<path style="mask:url(#SVGID_12_);fill:url(#SVGID_13_);" d="M69.6,0C31.2,0,0,31.2,0,69.6c0,38.4,31.2,69.6,69.6,69.6
					c38.4,0,69.6-31.2,69.6-69.6C139.2,31.2,108,0,69.6,0z"/>
			</g>
		</mask>
		<radialGradient id="SVGID_14_" cx="69.6037" cy="69.6037" r="69.6037" gradientUnits="userSpaceOnUse">
			<stop  offset="0" style="stop-color:#F5BE35"/>
			<stop  offset="0.432" style="stop-color:#F6DC6F"/>
			<stop  offset="0.7296" style="stop-color:#F6F190"/>
			<stop  offset="0.8519" style="stop-color:#DEECC1"/>
			<stop  offset="0.9467" style="stop-color:#CDE9E0"/>
			<stop  offset="0.9949" style="stop-color:#C6E8EB"/>
		</radialGradient>
		<path class="st20" d="M69.6,0C31.2,0,0,31.2,0,69.6c0,38.4,31.2,69.6,69.6,69.6c38.4,0,69.6-31.2,69.6-69.6
			C139.2,31.2,108,0,69.6,0z"/>
	</g>
	<g>
		<path class="st59" d="M137.1,125.1c0,3.2-30.2,5.8-67.5,5.8s-67.5-2.6-67.5-5.8c0-3.2,30.2-5.8,67.5-5.8S137.1,121.9,137.1,125.1z
			"/>
		<g>
			<g>
				<path class="st60" d="M99.1,83.4c0-13.5-10.8-21.8-20.5-40c-2.7-5-7.2-12.4-8.6-25.2c-3.4,10.6-14.6,25.5-7.3,45.6
					c-4-4.1-7.7-9.3-7.9-15.1c-5.1,8.9-14.8,23.9-13.6,39.7c0.1,1.9,0.7,3.6,1.2,5.3h0c3.9,11.5,14.7,16.6,27.5,16.6
					c16,0,29.1-9.9,29.1-26C99.2,84.1,99.2,83.8,99.1,83.4z"/>
				<linearGradient id="SVGID_15_" gradientUnits="userSpaceOnUse" x1="70.0492" y1="110.0296" x2="70.0492" y2="60.8765">
					<stop  offset="0" style="stop-color:#F15A29"/>
					<stop  offset="7.017936e-02" style="stop-color:#F16D2A"/>
					<stop  offset="0.2369" style="stop-color:#F28E2E"/>
					<stop  offset="0.3959" style="stop-color:#F4A831"/>
					<stop  offset="0.5431" style="stop-color:#F6BA33"/>
					<stop  offset="0.6741" style="stop-color:#F7C633"/>
					<stop  offset="0.7755" style="stop-color:#F7CA34"/>
				</linearGradient>
				<path class="st21" d="M87.9,92.9c0-0.2,0-0.5,0-0.7c0-0.1,0-0.2,0-0.2c0,0,0-0.1,0-0.1c0-12.7-7.1-21.7-15.8-30.9
					c0.2,5.1,0.7,24.4-4.7,27c-6.2,2.9-9.7-8.4-9.4-12.6c-3.8,5.4-5.3,10-5.6,13.9c-0.2,1-0.3,2-0.3,3c0,9.9,8,17.9,17.9,17.9
					c9.5,0,17.3-7.5,17.8-16.9C87.9,93.1,87.9,93,87.9,92.9z"/>
			</g>
			<g>
				<g>
					<path class="st25" d="M100.1,125.6l0-8.8H55c-4.2,0-7.7,3.7-7.7,8.8H100.1z"/>
					<path class="st62" d="M107.8,125.6c-0.2-4.9-3.5-8.8-7.6-8.8c-4.1,0-7.4,3.9-7.6,8.8H107.8z"/>
				</g>
				<g>
					<path class="st25" d="M91.9,116.8l0-8.8H46.8c-4.2,0-7.7,3.7-7.7,8.8H91.9z"/>
					<path class="st62" d="M99.6,116.8c-0.2-4.9-3.5-8.8-7.6-8.8c-4.1,0-7.4,3.9-7.6,8.8H99.6z"/>
				</g>
				<g>
					<path class="st25" d="M83.8,125.6l0-8.8H38.7c-4.2,0-7.7,3.7-7.7,8.8H83.8z"/>
					<path class="st62" d="M91.5,125.6c-0.2-4.9-3.5-8.8-7.6-8.8c-4.1,0-7.4,3.9-7.6,8.8H91.5z"/>
				</g>
			</g>
		</g>
	</g>
</g>
<g id="X_Marks_the_Spot" class="st1">
	
		<rect x="0.6" y="135.8" transform="matrix(6.123234e-17 -1 1 6.123234e-17 -137.4759 141.8919)" class="st69" width="3.2" height="7.7"/>
	
		<rect x="12.8" y="135.8" transform="matrix(6.123234e-17 -1 1 6.123234e-17 -125.235 154.1328)" class="st69" width="3.2" height="7.7"/>
	
		<rect x="25.6" y="135.8" transform="matrix(6.123234e-17 -1 1 6.123234e-17 -112.437 166.9308)" class="st69" width="3.2" height="7.7"/>
	
		<rect x="37.9" y="135.8" transform="matrix(6.123234e-17 -1 1 6.123234e-17 -100.1961 179.1717)" class="st69" width="3.2" height="7.7"/>
	
		<rect x="50.1" y="135.8" transform="matrix(6.123234e-17 -1 1 6.123234e-17 -87.9551 191.4126)" class="st69" width="3.2" height="7.7"/>
	
		<rect x="62.4" y="135.8" transform="matrix(6.123234e-17 -1 1 6.123234e-17 -75.7142 203.6536)" class="st69" width="3.2" height="7.7"/>
	
		<rect x="74.8" y="135.8" transform="matrix(6.123234e-17 -1 1 6.123234e-17 -63.2658 216.102)" class="st69" width="3.2" height="7.7"/>
	
		<rect x="87.1" y="135.8" transform="matrix(6.123234e-17 -1 1 6.123234e-17 -51.0249 228.3429)" class="st69" width="3.2" height="7.7"/>
	
		<rect x="100.5" y="135.8" transform="matrix(6.123234e-17 -1 1 6.123234e-17 -37.5392 241.8286)" class="st69" width="3.2" height="7.7"/>
	
		<rect x="112.8" y="135.8" transform="matrix(6.123234e-17 -1 1 6.123234e-17 -25.2982 254.0695)" class="st69" width="3.2" height="7.7"/>
	
		<rect x="125" y="135.8" transform="matrix(6.123234e-17 -1 1 6.123234e-17 -13.0573 266.3105)" class="st69" width="3.2" height="7.7"/>
	
		<rect x="137.3" y="135.8" transform="matrix(6.123234e-17 -1 1 6.123234e-17 -0.8164 278.5514)" class="st69" width="3.2" height="7.7"/>
</g>
</svg>
