<svg xmlns="http://www.w3.org/2000/svg" xmlns:xlink="http://www.w3.org/1999/xlink" viewBox="0 0 250 250"><defs><style>.cls-1{fill:none;}.cls-2{isolation:isolate;}.cls-3{clip-path:url(#clip-path);}.cls-4{fill:#f37058;}.cls-38,.cls-5{mix-blend-mode:multiply;}.cls-40,.cls-6{fill:#fff;}.cls-6{opacity:0;}.cls-7{fill:#faf3f0;opacity:0.04;}.cls-8{fill:#f6ebe5;opacity:0.08;}.cls-9{fill:#f2e3dc;opacity:0.12;}.cls-10{fill:#eedbd2;opacity:0.15;}.cls-11{fill:#ecd4ca;opacity:0.19;}.cls-12{fill:#e9cdc1;opacity:0.23;}.cls-13{fill:#e6c6b9;opacity:0.27;}.cls-14{fill:#e3bfb1;opacity:0.31;}.cls-15{fill:#e1b8a9;opacity:0.35;}.cls-16{fill:#deb1a1;opacity:0.38;}.cls-17{fill:#dcab9a;opacity:0.42;}.cls-18{fill:#d9a492;opacity:0.46;}.cls-19{fill:#d79e8b;opacity:0.5;}.cls-20{fill:#d49884;opacity:0.54;}.cls-21{fill:#d2927e;opacity:0.58;}.cls-22{fill:#cf8c77;opacity:0.62;}.cls-23{fill:#cd8671;opacity:0.65;}.cls-24{fill:#cb816c;opacity:0.69;}.cls-25{fill:#c97b66;opacity:0.73;}.cls-26{fill:#c67661;opacity:0.77;}.cls-27{fill:#c4705b;opacity:0.81;}.cls-28{fill:#c26b56;opacity:0.85;}.cls-29{fill:#c06551;opacity:0.88;}.cls-30{fill:#be604c;opacity:0.92;}.cls-31{fill:#bc5a46;opacity:0.96;}.cls-32{fill:#ba5442;}.cls-33{fill:#f4f9ec;}.cls-34{fill:#334157;}.cls-35{fill:#415371;}.cls-36{fill:#cdd0c3;}.cls-37{fill:#252f3e;}.cls-38{fill:#d9dacc;}.cls-39{fill:#edc18d;}</style><clipPath id="clip-path"><circle class="cls-1" cx="123.87" cy="125" r="120.51" transform="translate(-52.11 124.2) rotate(-45)"/></clipPath></defs><title>reader</title><g class="cls-2"><g id="Layer_1" data-name="Layer 1"><g class="cls-3"><circle class="cls-4" cx="123.87" cy="124.25" r="120.51" transform="translate(-51.58 123.98) rotate(-45)"/><g class="cls-5"><path class="cls-6" d="M250,176.76a8.15,8.15,0,0,1,0,9.4s-36.24,46.94-85.42,46.94-85.41-46.94-85.41-46.94a8.15,8.15,0,0,1,0-9.4s36.24-46.94,85.41-46.94S250,176.76,250,176.76Z"/><path class="cls-7" d="M248.46,174.38a8.15,8.15,0,0,1,0,9.4S212.22,230.73,163,230.73s-85.41-46.95-85.41-46.95a8.15,8.15,0,0,1,0-9.4s36.24-46.94,85.41-46.94S248.46,174.38,248.46,174.38Z"/><path class="cls-8" d="M246.93,172a8.15,8.15,0,0,1,0,9.4s-36.24,46.94-85.41,46.94S76.1,181.41,76.1,181.41a8.15,8.15,0,0,1,0-9.4s36.24-46.95,85.42-46.95S246.93,172,246.93,172Z"/><path class="cls-9" d="M245.4,169.63a8.15,8.15,0,0,1,0,9.4S209.16,226,160,226,74.57,179,74.57,179a8.15,8.15,0,0,1,0-9.4s36.24-46.94,85.42-46.94S245.4,169.63,245.4,169.63Z"/><path class="cls-10" d="M243.87,167.26a8.13,8.13,0,0,1,0,9.39s-36.24,46.95-85.41,46.95S73,176.65,73,176.65a8.13,8.13,0,0,1,0-9.39s36.24-46.95,85.42-46.95S243.87,167.26,243.87,167.26Z"/><path class="cls-11" d="M242.34,164.88a8.11,8.11,0,0,1,0,9.4s-36.24,46.94-85.41,46.94-85.42-46.94-85.42-46.94a8.15,8.15,0,0,1,0-9.4s36.24-46.94,85.42-46.94S242.34,164.88,242.34,164.88Z"/><path class="cls-12" d="M240.81,162.51a8.1,8.1,0,0,1,0,9.39s-36.24,46.95-85.41,46.95S70,171.9,70,171.9a8.13,8.13,0,0,1,0-9.39s36.24-46.95,85.42-46.95S240.81,162.51,240.81,162.51Z"/><path class="cls-13" d="M239.28,160.13a8.11,8.11,0,0,1,0,9.4S203,216.47,153.87,216.47s-85.41-46.94-85.41-46.94a8.11,8.11,0,0,1,0-9.4s36.23-46.94,85.41-46.94S239.28,160.13,239.28,160.13Z"/><path class="cls-14" d="M237.75,157.75a8.11,8.11,0,0,1,0,9.4s-36.24,46.94-85.41,46.94-85.41-46.94-85.41-46.94a8.11,8.11,0,0,1,0-9.4s36.23-46.94,85.41-46.94S237.75,157.75,237.75,157.75Z"/><path class="cls-15" d="M236.22,155.38a8.11,8.11,0,0,1,0,9.4S200,211.72,150.81,211.72,65.4,164.78,65.4,164.78a8.11,8.11,0,0,1,0-9.4s36.24-46.95,85.41-46.95S236.22,155.38,236.22,155.38Z"/><path class="cls-16" d="M234.69,153a8.11,8.11,0,0,1,0,9.4s-36.23,46.94-85.41,46.94S63.87,162.4,63.87,162.4a8.11,8.11,0,0,1,0-9.4s36.24-46.94,85.41-46.94S234.69,153,234.69,153Z"/><path class="cls-17" d="M233.16,150.63a8.1,8.1,0,0,1,0,9.39S196.93,207,147.75,207,62.34,160,62.34,160a8.1,8.1,0,0,1,0-9.39s36.24-46.95,85.41-46.95S233.16,150.63,233.16,150.63Z"/><path class="cls-18" d="M231.63,148.25a8.11,8.11,0,0,1,0,9.4s-36.23,46.94-85.41,46.94-85.41-46.94-85.41-46.94a8.15,8.15,0,0,1,0-9.4s36.24-46.94,85.41-46.94S231.63,148.25,231.63,148.25Z"/><path class="cls-19" d="M230.11,145.87a8.15,8.15,0,0,1,0,9.4s-36.24,46.95-85.42,46.95-85.41-46.95-85.41-46.95a8.15,8.15,0,0,1,0-9.4s36.24-46.94,85.41-46.94S230.11,145.87,230.11,145.87Z"/><path class="cls-20" d="M228.58,143.5a8.15,8.15,0,0,1,0,9.4s-36.24,46.94-85.42,46.94S57.75,152.9,57.75,152.9a8.15,8.15,0,0,1,0-9.4S94,96.55,143.16,96.55,228.58,143.5,228.58,143.5Z"/><path class="cls-21" d="M227.05,141.12a8.15,8.15,0,0,1,0,9.4s-36.24,46.94-85.42,46.94-85.41-46.94-85.41-46.94a8.15,8.15,0,0,1,0-9.4s36.24-46.94,85.41-46.94S227.05,141.12,227.05,141.12Z"/><path class="cls-22" d="M225.52,138.75a8.13,8.13,0,0,1,0,9.39s-36.24,47-85.41,47-85.42-47-85.42-47a8.13,8.13,0,0,1,0-9.39S90.93,91.8,140.11,91.8,225.52,138.75,225.52,138.75Z"/><path class="cls-23" d="M224,136.37a8.15,8.15,0,0,1,0,9.4s-36.24,46.94-85.41,46.94-85.42-46.94-85.42-46.94a8.15,8.15,0,0,1,0-9.4S89.4,89.43,138.58,89.43,224,136.37,224,136.37Z"/><path class="cls-24" d="M222.46,134a8.13,8.13,0,0,1,0,9.39s-36.24,47-85.41,47-85.42-47-85.42-47a8.13,8.13,0,0,1,0-9.39s36.24-46.95,85.42-46.95S222.46,134,222.46,134Z"/><path class="cls-25" d="M220.93,131.62a8.11,8.11,0,0,1,0,9.4S184.69,188,135.52,188,50.1,141,50.1,141a8.15,8.15,0,0,1,0-9.4s36.24-46.94,85.42-46.94S220.93,131.62,220.93,131.62Z"/><path class="cls-26" d="M219.4,129.24a8.11,8.11,0,0,1,0,9.4S183.16,185.58,134,185.58s-85.42-46.94-85.42-46.94a8.15,8.15,0,0,1,0-9.4S84.81,82.3,134,82.3,219.4,129.24,219.4,129.24Z"/><path class="cls-27" d="M217.87,126.87a8.11,8.11,0,0,1,0,9.4s-36.24,46.94-85.41,46.94-85.41-46.94-85.41-46.94a8.11,8.11,0,0,1,0-9.4s36.23-46.95,85.41-46.95S217.87,126.87,217.87,126.87Z"/><path class="cls-28" d="M216.34,124.49a8.11,8.11,0,0,1,0,9.4s-36.24,46.94-85.41,46.94-85.41-46.94-85.41-46.94a8.11,8.11,0,0,1,0-9.4s36.24-46.94,85.41-46.94S216.34,124.49,216.34,124.49Z"/><path class="cls-29" d="M214.81,122.12a8.1,8.1,0,0,1,0,9.39s-36.24,47-85.41,47-85.41-47-85.41-47a8.1,8.1,0,0,1,0-9.39S80.23,75.17,129.4,75.17,214.81,122.12,214.81,122.12Z"/><path class="cls-30" d="M213.28,119.74a8.11,8.11,0,0,1,0,9.4s-36.23,46.94-85.41,46.94-85.41-46.94-85.41-46.94a8.11,8.11,0,0,1,0-9.4S78.7,72.8,127.87,72.8,213.28,119.74,213.28,119.74Z"/><path class="cls-31" d="M211.75,117.36a8.11,8.11,0,0,1,0,9.4s-36.23,47-85.41,47-85.41-46.95-85.41-46.95a8.15,8.15,0,0,1,0-9.4s36.24-46.94,85.41-46.94S211.75,117.36,211.75,117.36Z"/><path class="cls-32" d="M210.23,115a8.15,8.15,0,0,1,0,9.4S174,171.33,124.81,171.33,39.4,124.39,39.4,124.39a8.15,8.15,0,0,1,0-9.4S75.64,68,124.81,68,210.23,115,210.23,115Z"/></g><path class="cls-33" d="M210.23,115a8.15,8.15,0,0,1,0,9.4S174,171.33,124.81,171.33,39.4,124.39,39.4,124.39a8.15,8.15,0,0,1,0-9.4S75.64,68,124.81,68,210.23,115,210.23,115Z"/><path class="cls-34" d="M170.22,122.64a45.41,45.41,0,1,1-45.41-45.41A45.41,45.41,0,0,1,170.22,122.64Z"/><path class="cls-35" d="M163.1,122.64a38.29,38.29,0,1,1-38.29-38.29A38.29,38.29,0,0,1,163.1,122.64Z"/><g class="cls-5"><path class="cls-36" d="M127.15,122.64c0,19-1.05,34.43-2.34,34.43s-2.34-15.42-2.34-34.43,1-34.43,2.34-34.43S127.15,103.62,127.15,122.64Z"/><path class="cls-36" d="M127.07,122c4.92,18.37,7.9,33.53,6.65,33.87s-6.24-14.29-11.17-32.66-7.9-33.52-6.65-33.86S122.15,103.67,127.07,122Z"/><path class="cls-36" d="M126.84,121.47c9.5,16.47,16.31,30.34,15.19,31s-9.73-12.19-19.24-28.65-16.31-30.34-15.19-31S117.33,105,126.84,121.47Z"/><path class="cls-36" d="M126.46,121c13.45,13.45,23.61,25.09,22.7,26s-12.55-9.24-26-22.69-23.61-25.09-22.7-26S113,107.54,126.46,121Z"/><path class="cls-36" d="M126,120.61c16.47,9.51,29.3,18.13,28.65,19.24s-14.52-5.68-31-15.19S94.35,106.54,95,105.42,109.51,111.11,126,120.61Z"/><path class="cls-36" d="M125.42,120.38c18.37,4.92,33,9.92,32.65,11.17s-15.5-1.73-33.86-6.65-33-9.93-32.66-11.17S107.05,115.46,125.42,120.38Z"/><path class="cls-36" d="M124.81,120.3c19,0,34.43,1,34.43,2.34S143.83,125,124.81,125s-34.43-1-34.43-2.34S105.8,120.3,124.81,120.3Z"/><path class="cls-36" d="M124.21,120.38c18.36-4.92,33.52-7.9,33.86-6.65s-14.28,6.24-32.65,11.16-33.53,7.91-33.87,6.66S105.84,125.3,124.21,120.38Z"/><path class="cls-36" d="M123.64,120.61c16.47-9.5,30.34-16.31,31-15.19s-12.18,9.73-28.65,19.24S95.64,141,95,139.85,107.18,130.12,123.64,120.61Z"/><path class="cls-36" d="M123.16,121c13.44-13.44,25.08-23.6,26-22.69s-9.25,12.55-22.7,26-25.08,23.61-26,22.69S109.71,134.43,123.16,121Z"/><path class="cls-36" d="M122.79,121.47c9.5-16.47,18.12-29.3,19.24-28.65s-5.69,14.52-15.19,31-18.12,29.29-19.24,28.64S113.28,137.94,122.79,121.47Z"/><path class="cls-36" d="M122.55,122c4.93-18.36,9.93-33,11.17-32.65s-1.73,15.49-6.65,33.86-9.92,33-11.17,32.65S117.63,140.4,122.55,122Z"/></g><path class="cls-37" d="M143.51,122.64a18.7,18.7,0,1,1-18.7-18.7A18.7,18.7,0,0,1,143.51,122.64Z"/><path class="cls-38" d="M211.3,122.33a8.18,8.18,0,0,0-1.07-7.34S174,68,124.81,68,39.4,115,39.4,115a8.15,8.15,0,0,0-1.07,7.34c16.2-8.9,48.85-23.73,86.48-23.73S195.1,113.43,211.3,122.33Z"/><path class="cls-39" d="M211.34,122.21a8.18,8.18,0,0,0-1.11-7.22S174,68,124.81,68,39.4,115,39.4,115a8.15,8.15,0,0,0-1.11,7.22c16.18-14,48.85-37.27,86.52-37.27S195.15,108.25,211.34,122.21Z"/><path class="cls-40" d="M150.34,118.78a7.13,7.13,0,1,1-7.12-7.12A7.12,7.12,0,0,1,150.34,118.78Z"/></g></g></g></svg>