<?xml version="1.0" encoding="utf-8"?>
<!-- Generator: Adobe Illustrator 22.1.0, SVG Export Plug-In . SVG Version: 6.00 Build 0)  -->
<svg version="1.1" id="Figment.observer_Layer" xmlns="http://www.w3.org/2000/svg" xmlns:xlink="http://www.w3.org/1999/xlink"
	 x="0px" y="0px" viewBox="0 0 341.6 280.9" style="enable-background:new 0 0 341.6 280.9;" xml:space="preserve">
<style type="text/css">
	.st0{display:none;fill:url(#Background_1_);}
	.st1{display:none;}
	.st2{display:inline;}
	.st3{fill:#2D6C8A;}
	.st4{filter:url(#Adobe_OpacityMaskFilter);}
	.st5{filter:url(#Adobe_OpacityMaskFilter_1_);}
	.st6{mask:url(#SVGID_1_);fill:url(#SVGID_2_);}
	.st7{opacity:0.6;fill:url(#SVGID_3_);}
	.st8{filter:url(#Adobe_OpacityMaskFilter_2_);}
	.st9{filter:url(#Adobe_OpacityMaskFilter_3_);}
	.st10{mask:url(#SVGID_4_);fill:url(#SVGID_5_);}
	.st11{opacity:0.6;fill:url(#SVGID_6_);}
	.st12{filter:url(#Adobe_OpacityMaskFilter_4_);}
	.st13{filter:url(#Adobe_OpacityMaskFilter_5_);}
	.st14{mask:url(#SVGID_7_);fill:url(#SVGID_8_);}
	.st15{opacity:0.6;fill:url(#SVGID_9_);}
	.st16{fill:url(#SVGID_10_);}
	.st17{fill:url(#SVGID_11_);}
	.st18{fill:url(#SVGID_12_);}
	.st19{fill:url(#SVGID_13_);}
	.st20{fill:url(#SVGID_14_);}
	.st21{fill:url(#SVGID_15_);}
	.st22{fill:url(#SVGID_16_);}
	.st23{fill:url(#SVGID_17_);}
	.st24{fill:url(#SVGID_18_);}
	.st25{fill:#0D1E32;}
	.st26{fill:url(#SVGID_19_);}
	.st27{fill:url(#SVGID_20_);}
	.st28{display:inline;fill:url(#SVGID_21_);}
	.st29{display:inline;fill:#0E405B;}
	.st30{fill:#FFFFFF;}
	.st31{filter:url(#Adobe_OpacityMaskFilter_6_);}
	.st32{filter:url(#Adobe_OpacityMaskFilter_7_);}
	.st33{mask:url(#SVGID_22_);fill:url(#SVGID_23_);}
	.st34{fill:url(#SVGID_24_);}
	.st35{filter:url(#Adobe_OpacityMaskFilter_8_);}
	.st36{filter:url(#Adobe_OpacityMaskFilter_9_);}
	.st37{mask:url(#SVGID_25_);fill:url(#SVGID_26_);}
	.st38{fill:url(#SVGID_27_);}
	.st39{filter:url(#Adobe_OpacityMaskFilter_10_);}
	.st40{filter:url(#Adobe_OpacityMaskFilter_11_);}
	.st41{mask:url(#SVGID_28_);fill:url(#SVGID_29_);}
	.st42{fill:url(#SVGID_30_);}
	.st43{fill:#F3F4C4;}
	.st44{filter:url(#Adobe_OpacityMaskFilter_12_);}
	.st45{filter:url(#Adobe_OpacityMaskFilter_13_);}
	.st46{mask:url(#SVGID_31_);fill:url(#SVGID_32_);}
	.st47{fill:url(#SVGID_33_);}
	.st48{fill:#EFA139;}
	.st49{fill:#CC7429;}
	.st50{fill:#D88228;}
	.st51{opacity:0.4;fill:#D88228;}
	.st52{fill:#FCC948;}
	.st53{fill:#D68128;}
	.st54{fill:#B25F27;}
	.st55{filter:url(#Adobe_OpacityMaskFilter_14_);}
	.st56{filter:url(#Adobe_OpacityMaskFilter_15_);}
	.st57{mask:url(#SVGID_34_);fill:url(#SVGID_35_);}
	.st58{fill:url(#SVGID_36_);}
	.st59{fill:#1C5371;}
	.st60{fill:#F9ED32;}
	.st61{fill:url(#SVGID_37_);}
	.st62{fill:#527E9B;}
	.st63{display:inline;fill:#FFFFFF;}
	.st64{display:inline;fill:#F59425;}
	.st65{fill:#FFECDE;}
	.st66{fill:#00A5BD;}
	.st67{fill:#DFF2F8;}
	.st68{fill:#DF4F51;}
	.st69{display:inline;fill:#FFECDE;}
	.st70{display:inline;fill:#E72B4B;}
	.st71{filter:url(#Adobe_OpacityMaskFilter_16_);}
	.st72{filter:url(#Adobe_OpacityMaskFilter_17_);}
	.st73{mask:url(#SVGID_38_);fill:url(#SVGID_39_);}
	.st74{fill:url(#SVGID_40_);}
	.st75{fill:#56595C;}
	.st76{fill:#F2F3F6;}
	.st77{fill:#AEB2BE;}
	.st78{fill:#6B4C2A;}
	.st79{fill:#AFB4BF;}
	.st80{fill:#F1F2F6;}
	.st81{fill:#110F0D;}
	.st82{fill:#4F4D4B;}
	.st83{fill:#D3D4D9;}
	.st84{fill:#989BA5;}
	.st85{fill:none;}
	.st86{fill:#9B9B9B;}
	.st87{fill:#9E4E34;}
	.st88{fill:#484340;}
	.st89{fill:#393432;}
	.st90{fill:#A65F41;}
	.st91{fill:#8A412F;}
	.st92{fill:#B36952;}
	.st93{fill:#EA8B4A;}
	.st94{fill:#713221;}
	.st95{fill:#5F241A;}
	.st96{fill:#381814;}
	.st97{fill:#B6634D;}
	.st98{fill:#D1732C;}
	.st99{fill:#6ACBDA;}
	.st100{fill:#1FB7BE;}
	.st101{fill:#FDB92E;}
	.st102{fill:#F6B662;}
	.st103{fill:#5E5E5E;}
</style>
<linearGradient id="Background_1_" gradientUnits="userSpaceOnUse" x1="-437.1" y1="538.0919" x2="-437.1" y2="-545.983">
	<stop  offset="0.3265" style="stop-color:#72C4CC"/>
	<stop  offset="0.4304" style="stop-color:#6ABAC5"/>
	<stop  offset="0.5967" style="stop-color:#58A2B6"/>
	<stop  offset="0.8033" style="stop-color:#3E81A0"/>
	<stop  offset="1" style="stop-color:#206188"/>
</linearGradient>
<rect id="Background" x="-1397.1" y="-544.7" class="st0" width="1920" height="1081"/>
<g id="Floating" class="st1">
	<path class="st29" d="M-24.2,275.3h-828.1c-13.8,0-25-11.2-25-25V248c0-13.8,11.2-25,25-25h828.1c13.7,0,25,11.2,25,25v2.3
		C0.8,264-10.4,275.3-24.2,275.3z"/>
</g>
<g id="Ship">
	<g>
		<g>
			<path class="st86" d="M8.3,151l-1.1-1.7C64,112.2,97.9,53.6,98.3,53l1.8,1C99.7,54.6,65.6,113.6,8.3,151z"/>
		</g>
		<g>
			<path class="st86" d="M105.2,54.6v-2c43,0,82.9-13.3,83.3-13.5l0.7,1.9C188.7,41.1,148.5,54.6,105.2,54.6z"/>
		</g>
		<g>
			<path class="st87" d="M4.6,148.7l131,49.3l-66.4-17.4l-66-28C-1.8,150.2-0.7,146.8,4.6,148.7z"/>
			<path class="st88" d="M62.9,177.6C25.5,174.8,5.1,153,5.1,153S17.5,184.3,62.9,177.6z"/>
			<path class="st89" d="M62.9,177.6c-12.9,0.9-24.6-1.4-33.3-5.3C13.3,165.1,5.1,153,5.1,153S17.5,184.3,62.9,177.6z"/>
			<path class="st86" d="M7,153.9c-0.2,0.5-0.8,0.8-1.3,0.6l0,0c-0.5-0.2-0.8-0.8-0.6-1.3l1.4-3.5c0.2-0.5,0.8-0.8,1.3-0.6l0,0
				c0.5,0.2,0.8,0.8,0.6,1.3L7,153.9z"/>
			<path class="st86" d="M62.4,177.2c-0.2,0.5-0.8,0.8-1.3,0.6l0,0c-0.5-0.2-0.8-0.8-0.6-1.3l2.1-6c0.2-0.5,0.8-0.8,1.3-0.6l0,0
				c0.5,0.2,0.8,0.8,0.6,1.3L62.4,177.2z"/>
			<g>
				<path class="st90" d="M196.4,229.8c0,2.5-2,4.5-4.5,4.5l0,0c-2.5,0-4.5-2-4.5-4.5l1.6-227c0-1.6,1.3-2.9,2.9-2.9l0,0
					c1.6,0,2.9,1.3,2.9,2.9L196.4,229.8z"/>
				<polygon class="st91" points="187.7,183.9 196.1,186.7 195,35.4 188.8,35.4 				"/>
				<path class="st90" d="M275.2,246.3c0,2.5-2,4.5-4.5,4.5l0,0c-2.5,0-4.5-2-4.5-4.5l1.6-220.8c0-1.6,1.3-2.9,2.9-2.9l0,0
					c1.6,0,2.9,1.3,2.9,2.9L275.2,246.3z"/>
				<polygon class="st91" points="266.8,161.9 274.6,163.8 273.7,45.1 267.7,45.1 				"/>
				<path class="st90" d="M106.7,212.6c0,2.5-2,4.5-4.5,4.5l0,0c-2.5,0-4.5-2-4.5-4.5l1.6-162.4c0-1.6,1.3-2.9,2.9-2.9l0,0
					c1.6,0,2.9,1.3,2.9,2.9L106.7,212.6z"/>
				<polygon class="st91" points="98.1,170.9 106.3,173.1 105.3,69.7 99.1,70.1 				"/>
				<path class="st92" d="M201.8,35.4c0,1.8-1.5,3.3-3.3,3.3h-13.2c-1.8,0-3.3-1.5-3.3-3.3l0,0c0-1.8,1.5-3.3,3.3-3.3h13.2
					C200.3,32.1,201.8,33.6,201.8,35.4L201.8,35.4z"/>
				<path class="st92" d="M280.6,47.3c0,1.8-1.5,3.3-3.3,3.3h-13.2c-1.8,0-3.3-1.5-3.3-3.3l0,0c0-1.8,1.5-3.3,3.3-3.3h13.2
					C279.2,44,280.6,45.4,280.6,47.3L280.6,47.3z"/>
				<path class="st92" d="M112.1,68.4c0,1.8-1.5,3.3-3.3,3.3H95.6c-1.8,0-3.3-1.5-3.3-3.3l0,0c0-1.8,1.5-3.3,3.3-3.3h13.2
					C110.7,65.1,112.1,66.6,112.1,68.4L112.1,68.4z"/>
				<path class="st92" d="M121.2,75.4c0,0.8-0.7,1.5-1.5,1.5H85.8c-0.8,0-1.5-0.7-1.5-1.5l0,0c0-0.8,0.7-1.5,1.5-1.5h33.8
					C120.5,73.9,121.2,74.6,121.2,75.4L121.2,75.4z"/>
				<path class="st92" d="M215.3,45.1c0,0.8-0.7,1.5-1.5,1.5h-41.4c-0.8,0-1.5-0.7-1.5-1.5l0,0c0-0.8,0.7-1.5,1.5-1.5h41.4
					C214.6,43.6,215.3,44.3,215.3,45.1L215.3,45.1z"/>
				<path class="st92" d="M293.7,54.8c0,0.8-0.7,1.5-1.5,1.5H250c-0.8,0-1.5-0.7-1.5-1.5l0,0c0-0.8,0.7-1.5,1.5-1.5h42.1
					C293,53.3,293.7,53.9,293.7,54.8L293.7,54.8z"/>
				<path class="st92" d="M300.9,101c0,0.8-0.7,1.5-1.5,1.5h-52.7c-0.8,0-1.5-0.7-1.5-1.5l0,0c0-0.8,0.7-1.5,1.5-1.5h52.7
					C300.2,99.5,300.9,100.1,300.9,101L300.9,101z"/>
				<path class="st92" d="M240,91.5c0,0.8-0.7,1.5-1.5,1.5h-82.9c-0.8,0-1.5-0.7-1.5-1.5l0,0c0-0.8,0.7-1.5,1.5-1.5h82.9
					C239.3,89.9,240,90.6,240,91.5L240,91.5z"/>
				<path class="st92" d="M132.4,114c0,0.8-0.7,1.5-1.5,1.5H78.6c-0.8,0-1.5-0.7-1.5-1.5l0,0c0-0.8,0.7-1.5,1.5-1.5h52.2
					C131.7,112.5,132.4,113.2,132.4,114L132.4,114z"/>
				<path class="st88" d="M213.7,45.1c-11.4,11.4-11.4,29.9,0,41.3c-13.8,0-27.5,0-41.3,0C161,75,161,56.5,172.4,45.1
					C186.2,45.1,200,45.1,213.7,45.1z"/>
				<path class="st89" d="M213.7,86.4c-30.6,0-49.9-20.7-49.9-20.7c0,7.5,2.9,14.9,8.6,20.7C186.2,86.4,200,86.4,213.7,86.4z"/>
				<path class="st88" d="M292,54.8c-11.4,11.4-11.4,29.9,0,41.3c-13.8,0-27.5,0-41.3,0c-11.4-11.4-11.4-29.9,0-41.3
					C264.4,54.8,278.2,54.8,292,54.8z"/>
				<path class="st89" d="M242.1,75.4c0,7.5,2.9,14.9,8.6,20.7c13.8,0,27.5,0,41.3,0C258.1,96.1,242.1,75.4,242.1,75.4z"/>
				<path class="st88" d="M119.6,75.4c-9.3,9.3-9.3,24.5,0,33.8c-11.3,0-22.5,0-33.8,0c-9.3-9.3-9.3-24.5,0-33.8
					C97,75.4,108.3,75.4,119.6,75.4z"/>
				<path class="st88" d="M130.8,114c-14.5,14.5-14.5,38,0,52.5c-17.5,0-35,0-52.5,0c-14.5-14.5-14.5-38,0-52.5
					C95.8,114,113.3,114,130.8,114z"/>
				<path class="st89" d="M67.5,140.6c0.1,9.4,3.7,18.7,10.9,25.8c17.5,0,35,0,52.5,0C88.8,166.5,70,143.9,67.5,140.6z"/>
				<path class="st88" d="M299.3,101c-14.5,14.5-14.5,38,0,52.5c-17.5,0-35,0-52.5,0c-14.5-14.5-14.5-38,0-52.5
					C264.3,101,281.8,101,299.3,101z"/>
				<path class="st89" d="M236,127.2c0,9.5,3.6,19,10.9,26.2c17.5,0,35,0,52.5,0C248.6,153.5,236,127.2,236,127.2z"/>
				<path class="st88" d="M238.5,91.5c-22.7,22.7-22.7,59.6,0,82.3c-27.4,0-54.8,0-82.3,0c-22.7-22.7-22.7-59.6,0-82.3
					C183.6,91.5,211,91.5,238.5,91.5z"/>
				<path class="st89" d="M139.1,132.6c0,14.9,5.7,29.8,17,41.1c27.4,0,54.9,0,82.3,0C164.7,173.7,139.1,132.6,139.1,132.6z"/>
			</g>
			<g>
				<g>
					<g>
						<path class="st93" d="M260.4,174.2c-1.4,0-2.6-1.1-2.6-2.6v-10.2c0-1.4,1.1-2.6,2.6-2.6c1.4,0,2.6,1.1,2.6,2.6v10.2
							C263,173,261.8,174.2,260.4,174.2z"/>
					</g>
					<g>
						<path class="st93" d="M274.7,174.2c-1.4,0-2.6-1.1-2.6-2.6v-10.2c0-1.4,1.1-2.6,2.6-2.6c1.4,0,2.6,1.1,2.6,2.6v10.2
							C277.3,173,276.2,174.2,274.7,174.2z"/>
					</g>
					<g>
						<path class="st93" d="M289.1,174.2c-1.4,0-2.6-1.1-2.6-2.6v-10.2c0-1.4,1.1-2.6,2.6-2.6c1.4,0,2.6,1.1,2.6,2.6v10.2
							C291.6,173,290.5,174.2,289.1,174.2z"/>
					</g>
					<g>
						<path class="st93" d="M303.4,174.2c-1.4,0-2.6-1.1-2.6-2.6v-10.2c0-1.4,1.1-2.6,2.6-2.6c1.4,0,2.6,1.1,2.6,2.6v10.2
							C306,173,304.8,174.2,303.4,174.2z"/>
					</g>
					<g>
						<path class="st93" d="M317.8,174.2c-1.4,0-2.6-1.1-2.6-2.6v-10.2c0-1.4,1.1-2.6,2.6-2.6c1.4,0,2.6,1.1,2.6,2.6v10.2
							C320.3,173,319.2,174.2,317.8,174.2z"/>
					</g>
					<g>
						<path class="st93" d="M332.1,174.2c-1.4,0-2.6-1.1-2.6-2.6v-10.2c0-1.4,1.1-2.6,2.6-2.6c1.4,0,2.6,1.1,2.6,2.6v10.2
							C334.7,173,333.5,174.2,332.1,174.2z"/>
					</g>
				</g>
				<g>
					<g>
						<path class="st93" d="M155.8,225.6c-1.4,0-2.6-1.1-2.6-2.6v-10.2c0-1.4,1.1-2.6,2.6-2.6s2.6,1.1,2.6,2.6V223
							C158.3,224.4,157.2,225.6,155.8,225.6z"/>
					</g>
					<g>
						<path class="st93" d="M170.1,225.6c-1.4,0-2.6-1.1-2.6-2.6v-10.2c0-1.4,1.1-2.6,2.6-2.6c1.4,0,2.6,1.1,2.6,2.6V223
							C172.7,224.4,171.5,225.6,170.1,225.6z"/>
					</g>
					<g>
						<path class="st93" d="M184.5,225.6c-1.4,0-2.6-1.1-2.6-2.6v-10.2c0-1.4,1.1-2.6,2.6-2.6c1.4,0,2.6,1.1,2.6,2.6V223
							C187,224.4,185.9,225.6,184.5,225.6z"/>
					</g>
					<g>
						<path class="st93" d="M198.8,225.6c-1.4,0-2.6-1.1-2.6-2.6v-10.2c0-1.4,1.1-2.6,2.6-2.6c1.4,0,2.6,1.1,2.6,2.6V223
							C201.4,224.4,200.2,225.6,198.8,225.6z"/>
					</g>
					<g>
						<path class="st93" d="M213.1,225.6c-1.4,0-2.6-1.1-2.6-2.6v-10.2c0-1.4,1.1-2.6,2.6-2.6c1.4,0,2.6,1.1,2.6,2.6V223
							C215.7,224.4,214.5,225.6,213.1,225.6z"/>
					</g>
					<g>
						<path class="st93" d="M227.5,225.6c-1.4,0-2.6-1.1-2.6-2.6v-10.2c0-1.4,1.1-2.6,2.6-2.6c1.4,0,2.6,1.1,2.6,2.6V223
							C230,224.4,228.9,225.6,227.5,225.6z"/>
					</g>
				</g>
				<g>
					<g>
						<path class="st93" d="M70.8,176.3c-1.4,0-2.6-1.1-2.6-2.6v-10.2c0-1.4,1.1-2.6,2.6-2.6c1.4,0,2.6,1.1,2.6,2.6v10.2
							C73.3,175.2,72.2,176.3,70.8,176.3z"/>
					</g>
					<g>
						<path class="st93" d="M85.1,182c-1.4,0-2.6-1.1-2.6-2.6v-10.2c0-1.4,1.1-2.6,2.6-2.6c1.4,0,2.6,1.1,2.6,2.6v10.2
							C87.7,180.9,86.5,182,85.1,182z"/>
					</g>
					<g>
						<path class="st93" d="M99.4,187.7c-1.4,0-2.6-1.1-2.6-2.6v-10.2c0-1.4,1.1-2.6,2.6-2.6c1.4,0,2.6,1.1,2.6,2.6v10.2
							C102,186.6,100.8,187.7,99.4,187.7z"/>
					</g>
					<g>
						<path class="st93" d="M113.8,193.4c-1.4,0-2.6-1.1-2.6-2.6v-10.2c0-1.4,1.1-2.6,2.6-2.6c1.4,0,2.6,1.1,2.6,2.6v10.2
							C116.3,192.3,115.2,193.4,113.8,193.4z"/>
					</g>
					<g>
						<path class="st93" d="M128.1,199.1c-1.4,0-2.6-1.1-2.6-2.6v-10.2c0-1.4,1.1-2.6,2.6-2.6c1.4,0,2.6,1.1,2.6,2.6v10.2
							C130.7,198,129.5,199.1,128.1,199.1z"/>
					</g>
				</g>
			</g>
			<g>
				<path class="st94" d="M315.7,266.9c0,0,2-8.2,4.5-17.1c2.5-8.9-1.1-15-8-15c0,0-2.6,0-5.7,0s-4.8-3.4-3.5-7.5l5.3-13.7h-4.8
					l-20.6,53.3c0,0-3.1,14,14.4,14C314.9,280.9,315.7,266.9,315.7,266.9z"/>
				<path class="st95" d="M304.4,223.4l3.8-9.7h-4.8l-20.6,53.3c0,0-0.5,2.2,0,4.9l19.1-48.5H304.4z"/>
				<g>
					<path class="st96" d="M309.3,243.5c0,0.8-0.7,1.5-1.5,1.5H283c-0.9,0-1.5-0.7-1.5-1.5l0,0c0-0.8,0.7-1.5,1.5-1.5h24.7
						C308.6,242,309.3,242.7,309.3,243.5L309.3,243.5z"/>
					<path class="st96" d="M303,267.1c0,0.8-0.7,1.5-1.5,1.5h-24.7c-0.9,0-1.5-0.7-1.5-1.5l0,0c0-0.9,0.7-1.5,1.5-1.5h24.7
						C302.3,265.6,303,266.2,303,267.1L303,267.1z"/>
				</g>
			</g>
			<path class="st87" d="M339,171.6l-16.5,42.5h-22.4l-23.7,60.4H175.5c-104.8,0-108.3-102.2-108.3-102.2l68.5,25.8
				c0,0,0,22.2,23.5,22.2c23.5,0,71.5,0,71.5,0l20.3-48.7H339z"/>
			<path class="st97" d="M112.8,189.5c0,49.1,55.5,48.9,55.5,48.9h122.3l7.1-18.1c-17.4,0-42.7,0-67,0c-36.3,0-70.2,0-71.5,0
				c-23.5,0-23.5-22.2-23.5-22.2L112.8,189.5L112.8,189.5z"/>
			<polygon class="st97" points="236.9,205.4 325.5,205.4 331.9,189.3 243.6,189.3 			"/>
			<path class="st91" d="M339,171.6h-88l-20.3,48.7c0,0-48,0-71.5,0c-23.5,0-23.5-22.2-23.5-22.2l-68.5-25.8c0,0,0.1,1.6,0.4,4.5
				l64.2,24.1c1.1,9.4,7.7,23.4,27.4,23.4h71.5c1.7,0,3.1-1,3.8-2.5l19.3-46.1h83.7L339,171.6z"/>
			<g>
				<g>
					<path class="st91" d="M272.9,206.4h-16.3l-1-1l1-17.5c0-4.5,3.6-8.1,8.1-8.1c4.5,0,8.1,3.7,8.1,8.1V206.4z"/>
				</g>
				<g>
					<path class="st91" d="M297.1,206.4h-16.3l-1-1l1-17.5c0-4.5,3.6-8.1,8.1-8.1c4.5,0,8.1,3.7,8.1,8.1V206.4z"/>
				</g>
				<g>
					<path class="st91" d="M321.3,206.4h-16.3l-1-1l1-17.5c0-4.5,3.6-8.1,8.1-8.1c4.5,0,8.1,3.7,8.1,8.1V206.4z"/>
				</g>
			</g>
			<g>
				<g>
					<path class="st98" d="M271.9,205.4h-16.3v-18.6c0-4.5,3.6-8.1,8.1-8.1c4.5,0,8.1,3.7,8.1,8.1V205.4z"/>
				</g>
				<g>
					<path class="st98" d="M296.1,205.4h-16.3v-18.6c0-4.5,3.6-8.1,8.1-8.1c4.5,0,8.1,3.7,8.1,8.1V205.4z"/>
				</g>
				<g>
					<path class="st98" d="M320.3,205.4h-16.3v-18.6c0-4.5,3.6-8.1,8.1-8.1c4.5,0,8.1,3.7,8.1,8.1V205.4z"/>
				</g>
			</g>
			<g>
				<path class="st99" d="M269.5,203v-16.2c0-3.2-2.6-5.8-5.8-5.8c-3.2,0-5.8,2.6-5.8,5.8V203H269.5z"/>
				<path class="st99" d="M293.8,203v-16.2c0-3.2-2.6-5.8-5.8-5.8c-3.2,0-5.8,2.6-5.8,5.8V203H293.8z"/>
				<path class="st99" d="M318,203v-16.2c0-3.2-2.6-5.8-5.8-5.8c-3.2,0-5.8,2.6-5.8,5.8V203H318z"/>
			</g>
			<g>
				<path class="st100" d="M259,187.8c0-3.2,2.6-5.8,5.8-5.8c1.2,0,2.4,0.4,3.3,1c-1.1-1.3-2.6-2-4.4-2c-3.2,0-5.8,2.6-5.8,5.8V203
					h1.1V187.8z"/>
				<path class="st100" d="M283.3,187.8c0-3.2,2.6-5.8,5.8-5.8c1.2,0,2.4,0.4,3.3,1c-1.1-1.3-2.6-2.1-4.4-2.1
					c-3.2,0-5.8,2.6-5.8,5.8V203h1.1V187.8z"/>
				<path class="st100" d="M307.5,187.8c0-3.2,2.6-5.8,5.8-5.8c1.2,0,2.4,0.4,3.3,1c-1.1-1.3-2.6-2-4.4-2c-3.2,0-5.8,2.6-5.8,5.8
					V203h1.1V187.8z"/>
			</g>
			<path class="st91" d="M168.3,256.4c0,0-78.3-0.5-78.3-75.3l-0.8-0.5l-22-8.3c0,0,3.6,102.2,108.3,102.2h100.9l7.1-18.1H168.3z"/>
			<g>
				<polygon class="st94" points="179.6,249.1 159.9,249.1 158.9,248 159.9,229.4 178.9,228.4 179.6,229.4 				"/>
				<polygon class="st94" points="206.2,249.1 186.5,249.1 185.5,248 186.5,229.4 205.2,228.4 206.2,229.4 				"/>
				<polygon class="st94" points="232.8,249.1 213.1,249.1 212.1,248 213.1,229.4 231.7,228.4 232.8,229.4 				"/>
			</g>
			<rect x="158.9" y="228.4" class="st98" width="19.7" height="19.7"/>
			<rect x="185.5" y="228.4" class="st98" width="19.7" height="19.7"/>
			<rect x="212.1" y="228.4" class="st98" width="19.7" height="19.7"/>
			<g>
				<rect x="161.9" y="231.4" class="st96" width="13.7" height="13.7"/>
				<rect x="188.5" y="231.4" class="st96" width="13.7" height="13.7"/>
				<rect x="215.1" y="231.4" class="st96" width="13.7" height="13.7"/>
			</g>
			<path class="st94" d="M107,236.1c0.3,0.2,0.6,0.4,0.9,0.4c0.4,0,0.8-0.2,1.1-0.5c0.6-0.6,0.6-1.6,0-2.2l-1.8-1.8
				c-0.1-0.1-0.3-0.3-0.5-0.3c0,0,0,0,0,0c-0.2-0.1-0.4-0.1-0.6-0.1c0,0,0,0,0,0l0,0c-0.2,0-0.4,0-0.6,0.1c0,0,0,0,0,0
				c-0.2,0.1-0.4,0.2-0.5,0.3l-1.8,1.8c-0.6,0.6-0.6,1.6,0,2.2c0,0,0.1,0.1,0.2,0.1c-0.8,0.9-2,1.4-3.2,1.4c-2.5,0-4.5-2-4.5-4.5
				v-9.4h5.4c0.5,0.6,1.2,1,2,1c1.4,0,2.6-1.2,2.6-2.6c0-1.4-1.1-2.6-2.6-2.6c-0.8,0-1.6,0.4-2,1h-5.4v-3.7c2-0.7,3.5-2.5,3.5-4.7
				c0-2.5-1.9-4.6-4.3-4.9v-6.9c0-0.4-0.3-0.7-0.7-0.7c-0.4,0-0.7,0.3-0.7,0.7v6.9c-2.4,0.4-4.3,2.4-4.3,4.9c0,2.2,1.5,4.1,3.5,4.7
				v3.7h-5.4c-0.5-0.6-1.2-1-2-1c-1.4,0-2.6,1.2-2.6,2.6c0,1.4,1.1,2.6,2.6,2.6c0.8,0,1.6-0.4,2-1h5.4v9.4c0,1.5-0.7,2.8-1.8,3.6
				c0.6,0.8,1.3,1.6,1.9,2.4c0.5-0.4,1-0.9,1.5-1.4c1.4,1.8,3.6,3,6,3C103.1,240.6,105.8,238.7,107,236.1z M94.1,214.1
				c-1.1,0-1.9-0.9-1.9-1.9c0-0.8,0.5-1.5,1.2-1.8v0.6c0,0.4,0.3,0.7,0.7,0.7c0.4,0,0.7-0.3,0.7-0.7v-0.6c0.7,0.3,1.2,1,1.2,1.8
				C96,213.2,95.1,214.1,94.1,214.1z"/>
			<path class="st98" d="M97.7,197.3c0,3.5-2.8,6.3-6.3,6.3c-3.5,0-6.3-2.8-6.3-6.3c0-3.5,2.8-6.3,6.3-6.3
				C94.9,191,97.7,193.8,97.7,197.3z"/>
			<path class="st96" d="M95.5,197.3c0,2.3-1.8,4.1-4.1,4.1c-2.3,0-4.1-1.8-4.1-4.1c0-2.3,1.8-4.1,4.1-4.1
				C93.7,193.2,95.5,195.1,95.5,197.3z"/>
			<path class="st88" d="M221.6,29.2c-8.9-7.7-17.9,7.7-26.8,0c0-2.6,0-23.4,0-26c8.9,7.7,17.9-7.7,26.8,0
				C221.6,5.8,221.6,26.7,221.6,29.2z"/>
			<g>
				<rect x="188.8" y="3.1" class="st88" width="6.2" height="3.5"/>
				<rect x="188.8" y="13.7" class="st88" width="6.2" height="4.4"/>
				<rect x="188.8" y="25.3" class="st88" width="6.2" height="3.5"/>
			</g>
			<g>
				<g>
					<g>
						<g>
							<path class="st101" d="M91.4,214.1c-2.8,0-5-2.2-5-5c0-2.8,2.2-5,5-5s5,2.2,5,5C96.4,211.9,94.2,214.1,91.4,214.1z
								 M91.4,207.2c-1.1,0-1.9,0.9-1.9,1.9c0,1.1,0.9,1.9,1.9,1.9s1.9-0.9,1.9-1.9C93.3,208.1,92.5,207.2,91.4,207.2z"/>
						</g>
						<g>
							<path class="st101" d="M82.5,221.7c-1.4,0-2.6-1.2-2.6-2.6c0-1.4,1.1-2.6,2.6-2.6c1.4,0,2.6,1.1,2.6,2.6
								C85,220.5,83.9,221.7,82.5,221.7z M82.5,218.6c-0.3,0-0.5,0.2-0.5,0.5c0,0.3,0.2,0.5,0.5,0.5c0.3,0,0.5-0.2,0.5-0.5
								C83,218.8,82.8,218.6,82.5,218.6z"/>
						</g>
						<g>
							<path class="st101" d="M100.3,221.7c-1.4,0-2.6-1.2-2.6-2.6c0-1.4,1.2-2.6,2.6-2.6c1.4,0,2.6,1.1,2.6,2.6
								C102.9,220.5,101.8,221.7,100.3,221.7z M100.3,218.6c-0.3,0-0.5,0.2-0.5,0.5c0,0.3,0.2,0.5,0.5,0.5c0.3,0,0.5-0.2,0.5-0.5
								C100.9,218.8,100.6,218.6,100.3,218.6z"/>
						</g>
						<g>
							<g>
								<path class="st101" d="M97.4,237.6c-4.2,0-7.5-3.4-7.5-7.5c0-0.9,0.7-1.5,1.5-1.5c0.9,0,1.5,0.7,1.5,1.5
									c0,2.5,2,4.5,4.5,4.5c2.5,0,4.5-2,4.5-4.5c0-0.9,0.7-1.5,1.5-1.5c0.9,0,1.5,0.7,1.5,1.5C104.9,234.2,101.6,237.6,97.4,237.6
									z"/>
							</g>
							<g>
								<path class="st101" d="M85.4,237.6c-4.2,0-7.5-3.4-7.5-7.5c0-0.9,0.7-1.5,1.5-1.5c0.9,0,1.5,0.7,1.5,1.5
									c0,2.5,2,4.5,4.5,4.5c2.5,0,4.5-2,4.5-4.5c0-0.9,0.7-1.5,1.5-1.5c0.9,0,1.5,0.7,1.5,1.5C93,234.2,89.6,237.6,85.4,237.6z"/>
							</g>
						</g>
						<g>
							<path class="st101" d="M91.4,231.6c-0.9,0-1.5-0.7-1.5-1.5v-17.5c0-0.9,0.7-1.5,1.5-1.5c0.9,0,1.5,0.7,1.5,1.5v17.5
								C93,230.9,92.3,231.6,91.4,231.6z"/>
						</g>
						<g>
							<path class="st101" d="M100.3,220.6H82.5c-0.9,0-1.5-0.7-1.5-1.5c0-0.9,0.7-1.5,1.5-1.5h17.9c0.9,0,1.5,0.7,1.5,1.5
								C101.9,219.9,101.2,220.6,100.3,220.6z"/>
						</g>
						<g>
							<g>
								<path class="st101" d="M81.3,233.4c-0.4,0-0.8-0.2-1.1-0.5l-0.8-0.7l-0.8,0.7c-0.6,0.6-1.6,0.6-2.2,0
									c-0.6-0.6-0.6-1.6,0-2.2l1.8-1.8c0.6-0.6,1.6-0.6,2.2,0l1.8,1.8c0.6,0.6,0.6,1.6,0,2.2C82.1,233.3,81.7,233.4,81.3,233.4z"
									/>
							</g>
							<g>
								<path class="st101" d="M105.2,233.4c-0.4,0-0.8-0.2-1.1-0.5l-0.7-0.7l-0.8,0.7c-0.6,0.6-1.6,0.6-2.2,0
									c-0.6-0.6-0.6-1.6,0-2.2l1.8-1.8c0.6-0.6,1.6-0.6,2.2,0l1.8,1.8c0.6,0.6,0.6,1.6,0,2.2C106,233.3,105.6,233.4,105.2,233.4z"
									/>
							</g>
						</g>
					</g>
				</g>
				<path class="st93" d="M92.1,207.9c0,0.4-0.3,0.7-0.7,0.7l0,0c-0.4,0-0.7-0.3-0.7-0.7v-10.6c0-0.4,0.3-0.7,0.7-0.7l0,0
					c0.4,0,0.7,0.3,0.7,0.7V207.9z"/>
				<g>
					<path class="st30" d="M88.1,207.3c-0.1,0.1-0.3,0.1-0.4,0c-0.2-0.1-0.3-0.4-0.2-0.6c0.4-0.7,1-1.2,1.7-1.6
						c0.2-0.1,0.5,0,0.6,0.2c0.1,0.2,0,0.5-0.2,0.6c-0.6,0.3-1,0.8-1.3,1.3C88.3,207.3,88.2,207.3,88.1,207.3z"/>
				</g>
				<path class="st30" d="M82.5,218c0,0.5-0.4,0.9-0.9,0.9c-0.5,0-0.9-0.4-0.9-0.9c0-0.5,0.4-0.9,0.9-0.9
					C82.1,217.1,82.5,217.5,82.5,218z"/>
				<path class="st30" d="M100.5,218c0,0.5-0.4,0.9-0.9,0.9c-0.5,0-0.9-0.4-0.9-0.9c0-0.5,0.4-0.9,0.9-0.9
					C100.1,217.1,100.5,217.5,100.5,218z"/>
				<path class="st30" d="M78.2,230.8c-0.2,0.2-0.5,0.2-0.6,0l0,0c-0.2-0.2-0.2-0.5,0-0.6l1.2-1.2c0.2-0.2,0.5-0.2,0.6,0l0,0
					c0.2,0.2,0.2,0.5,0,0.6L78.2,230.8z"/>
				<path class="st30" d="M102.4,230.8c-0.2,0.2-0.5,0.2-0.6,0l0,0c-0.2-0.2-0.2-0.5,0-0.6l1.2-1.2c0.2-0.2,0.5-0.2,0.6,0l0,0
					c0.2,0.2,0.2,0.5,0,0.6L102.4,230.8z"/>
			</g>
		</g>
		<path class="st86" d="M106.6,53.5c0,0.7-0.6,1.3-1.3,1.3h-6.1c-0.7,0-1.3-0.6-1.3-1.3l0,0c0-0.7,0.6-1.3,1.3-1.3h6.1
			C106,52.2,106.6,52.8,106.6,53.5L106.6,53.5z"/>
		<path class="st86" d="M275.1,51.9c0,0.7-0.6,1.3-1.3,1.3h-6.1c-0.7,0-1.3-0.6-1.3-1.3l0,0c0-0.7,0.6-1.3,1.3-1.3h6.1
			C274.5,50.5,275.1,51.1,275.1,51.9L275.1,51.9z"/>
		<path class="st86" d="M196.3,40c0,0.7-0.6,1.3-1.3,1.3h-6.1c-0.7,0-1.3-0.6-1.3-1.3l0,0c0-0.7,0.6-1.3,1.3-1.3h6.1
			C195.7,38.7,196.3,39.3,196.3,40L196.3,40z"/>
		<g>
			<path class="st86" d="M267.6,52.9c-0.6,0-37-0.1-72.9-11.9l0.6-1.9C231,50.7,267,50.8,267.6,50.8c0,0,0,0,0,0L267.6,52.9
				C267.6,52.9,267.6,52.9,267.6,52.9z"/>
		</g>
		<g>
			<path class="st86" d="M308.3,243.5c0,0.4-0.3,0.8-0.8,0.8s-0.8-0.3-0.8-0.8c0-0.4,0.3-0.8,0.8-0.8S308.3,243.1,308.3,243.5z"/>
			<path class="st86" d="M296.8,243.5c0,0.4-0.3,0.8-0.8,0.8s-0.8-0.3-0.8-0.8c0-0.4,0.3-0.8,0.8-0.8S296.8,243.1,296.8,243.5z"/>
		</g>
		<g>
			<path class="st86" d="M301.9,267.1c0,0.4-0.3,0.8-0.8,0.8c-0.4,0-0.8-0.3-0.8-0.8s0.3-0.8,0.8-0.8
				C301.6,266.3,301.9,266.7,301.9,267.1z"/>
			<path class="st86" d="M290.4,267.1c0,0.4-0.3,0.8-0.8,0.8c-0.4,0-0.8-0.3-0.8-0.8s0.3-0.8,0.8-0.8
				C290.1,266.3,290.4,266.7,290.4,267.1z"/>
		</g>
		<g>
			<g>
				<path class="st102" d="M229.6,214.3h-70.4c-21.7,0-25.3-18.4-25.9-24.3l-67-26.6c-1.3-0.5-2-2-1.4-3.3c0.5-1.3,2-2,3.3-1.4
					l68.5,27.2c1,0.4,1.6,1.3,1.6,2.4c0,0.8,0.3,20.9,20.9,20.9h68.7l20.7-49.9c0.4-1,1.3-1.6,2.4-1.6h88c1.4,0,2.6,1.1,2.6,2.6
					c0,1.4-1.1,2.6-2.6,2.6h-86.3L232,212.7C231.6,213.7,230.6,214.3,229.6,214.3z"/>
			</g>
		</g>
		<g>
			<g>
				<g>
					<path class="st30" d="M201.1,12.3C201.1,12.3,201.2,12.3,201.1,12.3c0.4,0.3,0.8,0.6,1.1,0.9c0.3-0.6,0.7-1.2,1.1-1.8
						c-0.3-0.2-0.6-0.4-0.9-0.7c0,0,0,0,0.1-0.1c0.4-0.5,0.4-1.1,0-1.4c-0.4-0.3-1-0.2-1.4,0.2c-0.4,0.4-0.4,1.1,0,1.4h0l0,0h0
						c-0.4-0.4-1-0.4-1.4,0c-0.4,0.4-0.4,1,0,1.4C200.1,12.7,200.7,12.7,201.1,12.3z"/>
					<path class="st30" d="M213.7,7c-0.3,0.3-0.6,0.7-0.9,1c0.4,0.4,0.8,0.8,1.1,1.3c0.4-0.4,0.7-0.8,1.1-1.2c0,0,0,0,0,0.1
						c0.4,0.4,1,0.4,1.4,0c0.4-0.4,0.4-1,0-1.4c-0.4-0.4-1-0.4-1.4,0c0,0,0,0,0,0h0c0,0,0,0,0,0c0.4-0.4,0.4-1.1,0-1.4
						c-0.4-0.4-1-0.3-1.4,0.2C213.3,6,213.3,6.6,213.7,7C213.7,6.9,213.7,6.9,213.7,7z"/>
					<path class="st30" d="M202.5,24.6c0.4-0.4,0.7-0.9,1.1-1.3c-0.7,0.1-1.3-0.1-1.7-0.7c-0.2,0.3-0.5,0.6-0.7,0.8c0,0,0,0,0,0
						c-0.4-0.4-1-0.4-1.4,0c-0.4,0.4-0.4,1,0,1.4c0.4,0.4,1,0.4,1.4,0c0,0,0,0,0-0.1c0,0,0,0,0,0c0,0,0,0,0,0
						c-0.4,0.4-0.4,1.1,0,1.4c0.4,0.4,1,0.3,1.4-0.2C203,25.6,203,24.9,202.5,24.6C202.6,24.6,202.5,24.6,202.5,24.6z"/>
					<path class="st30" d="M216.5,19.2c-0.4-0.4-1-0.4-1.4,0c0,0,0,0,0,0.1c-0.2-0.2-0.5-0.4-0.7-0.7c-0.4,0.6-1,1.1-1.7,1.4
						c0.4,0.3,0.7,0.5,1.1,0.8c0,0,0,0-0.1,0.1c-0.4,0.5-0.4,1.1,0,1.4c0.4,0.3,1,0.2,1.4-0.2c0.4-0.4,0.4-1.1,0-1.4c0,0,0,0,0,0
						c0,0,0,0,0,0c0,0,0,0,0,0c0.4,0.4,1,0.4,1.4,0C216.9,20.3,216.9,19.7,216.5,19.2z"/>
				</g>
				<g>
					<path class="st30" d="M213.9,12.3c0,3.1-2.6,6.3-5.8,7.7c-3.2,1.4-5.8-0.6-5.8-3.9c0-3.1,2.6-6.3,5.8-7.7
						C211.3,7,213.9,9.1,213.9,12.3z"/>
					<g>
						<path class="st30" d="M205.3,20.5c0,0.8-0.7,1.7-1.5,2c-0.8,0.2-1.5-0.3-1.5-1.1c0-0.8,0.7-1.6,1.5-1.8
							C204.6,19.2,205.3,19.7,205.3,20.5z"/>
					</g>
					<g>
						<path class="st30" d="M213.9,17.5c0,0.8-0.7,1.6-1.5,1.8c-0.8,0.2-1.5-0.2-1.5-1c0-0.8,0.7-1.7,1.5-2
							C213.2,16.1,213.9,16.6,213.9,17.5z"/>
					</g>
					<path class="st30" d="M211.3,20c-2.1,0.7-4.2,1.7-6.3,2.4c0-0.8,0-1.6,0-2.4c2.1-0.7,4.2-1.7,6.3-2.4
						C211.3,18.4,211.3,19.2,211.3,20z"/>
					<g>
						<path class="st30" d="M204.9,23.3c0,0,0-0.3,0-0.6c0-0.3,0.3-0.7,0.7-0.9c0.4-0.1,0.7,0,0.7,0.4c0,0.2,0,0.4,0,0.6
							C205.8,23,205.4,23.1,204.9,23.3z"/>
						<path class="st30" d="M206.6,22.7c0,0,0-0.3,0-0.6c0-0.3,0.3-0.7,0.7-0.9c0.4-0.1,0.7,0,0.7,0.4c0,0.2,0,0.4,0,0.6
							C207.5,22.3,207.1,22.5,206.6,22.7z"/>
						<path class="st30" d="M208.3,22c0,0,0-0.3,0-0.6c0-0.3,0.3-0.8,0.7-0.9c0.4-0.1,0.7,0,0.7,0.4c0,0.2,0,0.4,0,0.6
							C209.2,21.6,208.7,21.8,208.3,22z"/>
						<path class="st30" d="M209.9,21.3c0,0,0-0.3,0-0.6c0-0.3,0.3-0.7,0.7-0.9c0.4-0.1,0.7,0,0.7,0.4c0,0.2,0,0.4,0,0.6
							C210.8,21,210.4,21.2,209.9,21.3z"/>
					</g>
					<g>
						<path class="st103" d="M207.3,16.9c0,0.9-0.7,1.9-1.6,2.2c-0.9,0.3-1.6-0.2-1.6-1.1c0-0.9,0.7-1.8,1.6-2.1
							C206.6,15.6,207.3,16,207.3,16.9z"/>
						<path class="st103" d="M212.2,15c0,0.9-0.7,1.8-1.6,2.1c-0.9,0.3-1.6-0.1-1.6-1c0-0.9,0.7-1.9,1.6-2.2
							C211.4,13.6,212.2,14.1,212.2,15z"/>
					</g>
					<g>
						<path class="st103" d="M207.8,20.1c-0.4,0.1-0.7,0.3-1.1,0.4c0.4-0.8,0.7-1.6,1.1-2.3C207.8,18.8,207.8,19.5,207.8,20.1z"/>
						<path class="st103" d="M208.4,19.9c0.4-0.1,0.7-0.3,1.1-0.4c-0.4-0.5-0.7-1-1.1-1.5C208.4,18.6,208.4,19.2,208.4,19.9z"/>
					</g>
				</g>
			</g>
		</g>
		<path class="st89" d="M85.8,109.3c11.3,0,22.5,0,33.8,0c-25.1,0-40.8-16.9-40.8-16.9C78.7,98.5,81.1,104.6,85.8,109.3z"/>
		<g>
			<path class="st86" d="M174.4,238.2c0,3.1-2.6,5.7-5.7,5.7s-5.7-2.6-5.7-5.7c0-3.1,2.6-5.7,5.7-5.7S174.4,235.1,174.4,238.2z"/>
			<g>
				<path class="st30" d="M166.4,234.6c-0.2,0-0.3-0.1-0.4-0.3c-0.1-0.2-0.1-0.6,0.2-0.7c0.8-0.5,1.7-0.7,2.6-0.7
					c0.3,0,0.5,0.2,0.5,0.5c0,0.3-0.2,0.5-0.5,0.5c-0.7,0-1.5,0.2-2.1,0.6C166.6,234.6,166.5,234.6,166.4,234.6z"/>
			</g>
			<g>
				<path class="st30" d="M164,238.7c-0.3,0-0.5-0.2-0.5-0.5c0-0.8,0.2-1.6,0.6-2.3c0.1-0.2,0.4-0.3,0.7-0.2
					c0.3,0.1,0.3,0.4,0.2,0.7c-0.3,0.6-0.4,1.2-0.4,1.9C164.6,238.5,164.3,238.7,164,238.7z"/>
			</g>
			<path class="st89" d="M172.3,238.2c0,2-1.6,3.6-3.6,3.6s-3.6-1.6-3.6-3.6c0-2,1.6-3.6,3.6-3.6S172.3,236.2,172.3,238.2z"/>
		</g>
		<g>
			<path class="st86" d="M201,238.2c0,3.1-2.6,5.7-5.7,5.7s-5.7-2.6-5.7-5.7c0-3.1,2.6-5.7,5.7-5.7S201,235.1,201,238.2z"/>
			<g>
				<path class="st30" d="M193,234.6c-0.2,0-0.3-0.1-0.4-0.3c-0.1-0.2-0.1-0.6,0.2-0.7c0.8-0.5,1.7-0.7,2.6-0.7
					c0.3,0,0.5,0.2,0.5,0.5c0,0.3-0.2,0.5-0.5,0.5c-0.7,0-1.5,0.2-2.1,0.6C193.1,234.6,193.1,234.6,193,234.6z"/>
			</g>
			<g>
				<path class="st30" d="M190.6,238.7c-0.3,0-0.5-0.2-0.5-0.5c0-0.8,0.2-1.6,0.6-2.3c0.1-0.2,0.4-0.3,0.7-0.2
					c0.3,0.1,0.3,0.4,0.2,0.7c-0.3,0.6-0.4,1.2-0.4,1.9C191.1,238.5,190.9,238.7,190.6,238.7z"/>
			</g>
			<path class="st89" d="M198.9,238.2c0,2-1.6,3.6-3.6,3.6c-2,0-3.6-1.6-3.6-3.6c0-2,1.6-3.6,3.6-3.6
				C197.3,234.6,198.9,236.2,198.9,238.2z"/>
		</g>
		<g>
			<path class="st86" d="M227.6,238.2c0,3.1-2.6,5.7-5.7,5.7c-3.1,0-5.7-2.6-5.7-5.7c0-3.1,2.6-5.7,5.7-5.7
				C225,232.5,227.6,235.1,227.6,238.2z"/>
			<g>
				<path class="st30" d="M219.5,234.6c-0.2,0-0.3-0.1-0.4-0.3c-0.1-0.2-0.1-0.6,0.2-0.7c0.8-0.5,1.7-0.7,2.6-0.7
					c0.3,0,0.5,0.2,0.5,0.5c0,0.3-0.2,0.5-0.5,0.5c-0.7,0-1.5,0.2-2.1,0.6C219.7,234.6,219.6,234.6,219.5,234.6z"/>
			</g>
			<g>
				<path class="st30" d="M217.2,238.7c-0.3,0-0.5-0.2-0.5-0.5c0-0.8,0.2-1.6,0.6-2.3c0.1-0.2,0.4-0.3,0.7-0.2
					c0.3,0.1,0.3,0.4,0.2,0.7c-0.3,0.6-0.4,1.2-0.4,1.9C217.7,238.5,217.5,238.7,217.2,238.7z"/>
			</g>
			<path class="st89" d="M225.5,238.2c0,2-1.6,3.6-3.6,3.6c-2,0-3.6-1.6-3.6-3.6c0-2,1.6-3.6,3.6-3.6
				C223.9,234.6,225.5,236.2,225.5,238.2z"/>
		</g>
		<g>
			<g>
				<rect x="256.6" y="187.7" class="st98" width="14.1" height="1.4"/>
				<rect x="256.6" y="196.5" class="st98" width="14.1" height="1.4"/>
				<rect x="262.9" y="180.4" class="st98" width="1.4" height="23.9"/>
			</g>
			<g>
				<rect x="280.9" y="187.7" class="st98" width="14.1" height="1.4"/>
				<rect x="280.9" y="196.5" class="st98" width="14.1" height="1.4"/>
				<rect x="287.2" y="180.4" class="st98" width="1.4" height="23.9"/>
			</g>
			<g>
				<rect x="305.1" y="187.7" class="st98" width="14.1" height="1.4"/>
				<rect x="305.1" y="196.5" class="st98" width="14.1" height="1.4"/>
				<rect x="311.5" y="180.4" class="st98" width="1.4" height="23.9"/>
			</g>
		</g>
	</g>
	<g>
		<g>
			<path class="st30" d="M173.7,118.6C173.7,118.5,173.7,118.5,173.7,118.6l2,1.9c0.5-1,1.2-2,2-2.8l-1.5-1.5c0,0,0.1,0,0.1-0.1
				c0.7-0.7,0.7-1.9,0-2.6c-0.7-0.7-1.9-0.7-2.6,0c-0.7,0.7-0.7,1.9,0,2.6h0l0,0h0c-0.7-0.7-1.9-0.7-2.6,0c-0.7,0.7-0.7,1.9,0,2.6
				C171.8,119.3,173,119.3,173.7,118.6z"/>
			<path class="st30" d="M196.4,116l-1.5,1.5c0.8,0.8,1.5,1.8,2,2.8l1.9-1.9c0,0,0.1,0.1,0.1,0.1c0.7,0.7,1.9,0.7,2.6,0
				c0.7-0.7,0.7-1.9,0-2.6c-0.7-0.7-1.9-0.7-2.6,0l0,0l0,0l0,0c0.7-0.7,0.7-1.9,0-2.6c-0.7-0.7-1.9-0.7-2.6,0
				C195.6,114.1,195.6,115.2,196.4,116C196.3,116,196.4,116,196.4,116z"/>
			<path class="st30" d="M176.2,141.1l1.9-1.9c-1.3-0.1-2.4-0.8-3-1.8l-1.3,1.3c0,0,0-0.1-0.1-0.1c-0.7-0.7-1.9-0.7-2.6,0
				c-0.7,0.7-0.7,1.9,0,2.6c0.7,0.7,1.9,0.7,2.6,0c0,0,0-0.1,0.1-0.1l0,0c0,0-0.1,0-0.1,0.1c-0.7,0.7-0.7,1.9,0,2.6
				c0.7,0.7,1.9,0.7,2.6,0C177,143,177,141.9,176.2,141.1C176.3,141.1,176.2,141.1,176.2,141.1z"/>
			<path class="st30" d="M201.5,138.5c-0.7-0.7-1.9-0.7-2.6,0c0,0-0.1,0.1-0.1,0.1l-1.3-1.3c-0.7,1-1.8,1.7-3,1.8l1.9,1.9
				c0,0-0.1,0-0.1,0.1c-0.7,0.7-0.7,1.9,0,2.6c0.7,0.7,1.9,0.7,2.6,0c0.7-0.7,0.7-1.9,0-2.6c0,0-0.1,0-0.1-0.1l0,0
				c0,0,0,0.1,0.1,0.1c0.7,0.7,1.9,0.7,2.6,0C202.2,140.4,202.2,139.3,201.5,138.5z"/>
		</g>
		<g>
			<path class="st30" d="M196.7,125.8c0,5.8-4.7,10.4-10.4,10.4c-5.8,0-10.4-4.7-10.4-10.4c0-5.8,4.7-10.4,10.4-10.4
				C192.1,115.3,196.7,120,196.7,125.8z"/>
			<g>
				<path class="st30" d="M181.2,135.1c0,1.5-1.2,2.7-2.7,2.7c-1.5,0-2.7-1.2-2.7-2.7c0-1.5,1.2-2.7,2.7-2.7
					C180,132.4,181.2,133.6,181.2,135.1z"/>
			</g>
			<g>
				<path class="st30" d="M196.7,135.1c0,1.5-1.2,2.7-2.7,2.7c-1.5,0-2.7-1.2-2.7-2.7c0-1.5,1.2-2.7,2.7-2.7
					C195.5,132.4,196.7,133.6,196.7,135.1z"/>
			</g>
			<rect x="180.6" y="134" class="st30" width="11.4" height="4.3"/>
			<g>
				<path class="st30" d="M180.6,139.9c0,0,0-0.5,0-1.1c0-0.6,0.5-1.1,1.2-1.1c0.7,0,1.2,0.5,1.2,1.1v1.1H180.6z"/>
				<path class="st30" d="M183.6,139.9c0,0,0-0.5,0-1.1c0-0.6,0.5-1.1,1.2-1.1c0.7,0,1.2,0.5,1.2,1.1v1.1H183.6z"/>
				<path class="st30" d="M186.6,139.9c0,0,0-0.5,0-1.1c0-0.6,0.5-1.1,1.2-1.1c0.7,0,1.2,0.5,1.2,1.1v1.1H186.6z"/>
				<path class="st30" d="M189.6,139.9c0,0,0-0.5,0-1.1c0-0.6,0.5-1.1,1.2-1.1c0.7,0,1.2,0.5,1.2,1.1v1.1H189.6z"/>
			</g>
			<g>
				<path class="st103" d="M184.8,129.9c0,1.6-1.3,2.9-2.9,2.9c-1.6,0-2.9-1.3-2.9-2.9c0-1.6,1.3-2.9,2.9-2.9
					C183.5,127,184.8,128.3,184.8,129.9z"/>
				<path class="st103" d="M193.6,129.9c0,1.6-1.3,2.9-2.9,2.9c-1.6,0-2.9-1.3-2.9-2.9c0-1.6,1.3-2.9,2.9-2.9
					C192.3,127,193.6,128.3,193.6,129.9z"/>
			</g>
			<g>
				<polygon class="st103" points="185.8,136.2 183.8,136.2 185.8,132.7 				"/>
				<polygon class="st103" points="186.8,136.2 188.8,136.2 186.8,132.7 				"/>
			</g>
		</g>
	</g>
</g>
</svg>
