<?xml version="1.0" encoding="utf-8"?>
<!-- Generator: Adobe Illustrator 22.1.0, SVG Export Plug-In . SVG Version: 6.00 Build 0)  -->
<svg version="1.1" id="Figment.observer_Layer" xmlns="http://www.w3.org/2000/svg" xmlns:xlink="http://www.w3.org/1999/xlink"
	 x="0px" y="0px" viewBox="0 0 139.2 139.2" style="enable-background:new 0 0 139.2 139.2;" xml:space="preserve">
<style type="text/css">
	.st0{display:none;fill:url(#Background_1_);}
	.st1{filter:url(#Adobe_OpacityMaskFilter);}
	.st2{filter:url(#Adobe_OpacityMaskFilter_1_);}
	.st3{mask:url(#SVGID_1_);fill:url(#SVGID_2_);}
	.st4{fill:url(#SVGID_3_);}
	.st5{fill:#1C5371;}
	.st6{fill:#F9ED32;}
	.st7{fill:url(#SVGID_4_);}
	.st8{fill:#0D1E32;}
	.st9{fill:#527E9B;}
	.st10{display:none;}
	.st11{display:inline;}
	.st12{fill:url(#SVGID_5_);}
	.st13{fill:#0E405B;}
	.st14{fill:#2D6C8A;}
	.st15{filter:url(#Adobe_OpacityMaskFilter_2_);}
	.st16{filter:url(#Adobe_OpacityMaskFilter_3_);}
	.st17{mask:url(#SVGID_6_);fill:url(#SVGID_7_);}
	.st18{opacity:0.6;fill:url(#SVGID_8_);}
	.st19{filter:url(#Adobe_OpacityMaskFilter_4_);}
	.st20{filter:url(#Adobe_OpacityMaskFilter_5_);}
	.st21{mask:url(#SVGID_9_);fill:url(#SVGID_10_);}
	.st22{opacity:0.6;fill:url(#SVGID_11_);}
	.st23{filter:url(#Adobe_OpacityMaskFilter_6_);}
	.st24{filter:url(#Adobe_OpacityMaskFilter_7_);}
	.st25{mask:url(#SVGID_12_);fill:url(#SVGID_13_);}
	.st26{opacity:0.6;fill:url(#SVGID_14_);}
	.st27{fill:url(#SVGID_15_);}
	.st28{fill:url(#SVGID_16_);}
	.st29{fill:url(#SVGID_17_);}
	.st30{fill:url(#SVGID_18_);}
	.st31{fill:url(#SVGID_19_);}
	.st32{fill:url(#SVGID_20_);}
	.st33{fill:url(#SVGID_21_);}
	.st34{fill:url(#SVGID_22_);}
	.st35{fill:url(#SVGID_23_);}
	.st36{fill:url(#SVGID_24_);}
	.st37{fill:url(#SVGID_25_);}
	.st38{fill:#FFFFFF;}
	.st39{filter:url(#Adobe_OpacityMaskFilter_8_);}
	.st40{filter:url(#Adobe_OpacityMaskFilter_9_);}
	.st41{mask:url(#SVGID_26_);fill:url(#SVGID_27_);}
	.st42{fill:url(#SVGID_28_);}
	.st43{filter:url(#Adobe_OpacityMaskFilter_10_);}
	.st44{filter:url(#Adobe_OpacityMaskFilter_11_);}
	.st45{mask:url(#SVGID_29_);fill:url(#SVGID_30_);}
	.st46{fill:url(#SVGID_31_);}
	.st47{filter:url(#Adobe_OpacityMaskFilter_12_);}
	.st48{filter:url(#Adobe_OpacityMaskFilter_13_);}
	.st49{mask:url(#SVGID_32_);fill:url(#SVGID_33_);}
	.st50{fill:url(#SVGID_34_);}
	.st51{fill:#F3F4C4;}
	.st52{filter:url(#Adobe_OpacityMaskFilter_14_);}
	.st53{filter:url(#Adobe_OpacityMaskFilter_15_);}
	.st54{mask:url(#SVGID_35_);fill:url(#SVGID_36_);}
	.st55{fill:url(#SVGID_37_);}
	.st56{fill:#EFA139;}
	.st57{fill:#CC7429;}
	.st58{fill:#D88228;}
	.st59{opacity:0.4;fill:#D88228;}
	.st60{fill:#FCC948;}
	.st61{fill:#D68128;}
	.st62{fill:#B25F27;}
	.st63{fill:#F59425;}
	.st64{fill:#FFECDE;}
	.st65{fill:#00A5BD;}
	.st66{fill:#DFF2F8;}
	.st67{fill:#DF4F51;}
	.st68{display:inline;fill:#FFECDE;}
	.st69{display:inline;fill:#E72B4B;}
	.st70{filter:url(#Adobe_OpacityMaskFilter_16_);}
	.st71{filter:url(#Adobe_OpacityMaskFilter_17_);}
	.st72{mask:url(#SVGID_38_);fill:url(#SVGID_39_);}
	.st73{display:none;fill:url(#SVGID_40_);}
	.st74{fill:#56595C;}
	.st75{fill:#F2F3F6;}
	.st76{fill:#AEB2BE;}
	.st77{fill:#6B4C2A;}
	.st78{fill:#AFB4BF;}
	.st79{fill:#F1F2F6;}
	.st80{fill:#110F0D;}
	.st81{fill:#4F4D4B;}
	.st82{fill:#D3D4D9;}
	.st83{fill:#989BA5;}
	.st84{fill:none;}
	.st85{fill:#9B9B9B;}
	.st86{fill:#9E4E34;}
	.st87{fill:#484340;}
	.st88{fill:#393432;}
	.st89{fill:#A65F41;}
	.st90{fill:#8A412F;}
	.st91{fill:#B36952;}
	.st92{fill:#EA8B4A;}
	.st93{fill:#713221;}
	.st94{fill:#5F241A;}
	.st95{fill:#381814;}
	.st96{fill:#B6634D;}
	.st97{fill:#D1732C;}
	.st98{fill:#6ACBDA;}
	.st99{fill:#1FB7BE;}
	.st100{fill:#FDB92E;}
	.st101{fill:#F6B662;}
	.st102{fill:#5E5E5E;}
</style>
<linearGradient id="Background_1_" gradientUnits="userSpaceOnUse" x1="-261.7262" y1="405.6632" x2="-261.7262" y2="-678.4117">
	<stop  offset="0.3265" style="stop-color:#72C4CC"/>
	<stop  offset="0.4304" style="stop-color:#6ABAC5"/>
	<stop  offset="0.5967" style="stop-color:#58A2B6"/>
	<stop  offset="0.8033" style="stop-color:#3E81A0"/>
	<stop  offset="1" style="stop-color:#206188"/>
</linearGradient>
<rect id="Background" x="-1221.7" y="-677.1" class="st0" width="1920" height="1081"/>
<g class="st10">
	<g id="Floating" class="st11">
		<path class="st13" d="M151.2,142.9h-828.1c-13.8,0-25-11.2-25-25v-2.3c0-13.8,11.2-25,25-25h828.1c13.8,0,25,11.2,25,25v2.3
			C176.2,131.6,165,142.9,151.2,142.9z"/>
	</g>
	<g id="Mountains__x26__Trees" class="st11">
		<g id="Mountains">
			<g>
				<polygon class="st14" points="32.5,90.6 -259.9,-415.2 -552.4,90.6 				"/>
				<defs>
					<filter id="Adobe_OpacityMaskFilter" filterUnits="userSpaceOnUse" x="-259.9" y="-415.2" width="292.5" height="505.8">
						<feFlood  style="flood-color:white;flood-opacity:1" result="back"/>
						<feBlend  in="SourceGraphic" in2="back" mode="normal"/>
					</filter>
				</defs>
				<mask maskUnits="userSpaceOnUse" x="-259.9" y="-415.2" width="292.5" height="505.8" id="SVGID_1_">
					<g class="st1">
						<defs>
							<filter id="Adobe_OpacityMaskFilter_1_" filterUnits="userSpaceOnUse" x="-259.9" y="-415.2" width="292.5" height="505.8">
								<feFlood  style="flood-color:white;flood-opacity:1" result="back"/>
								<feBlend  in="SourceGraphic" in2="back" mode="normal"/>
							</filter>
						</defs>
						<mask maskUnits="userSpaceOnUse" x="-259.9" y="-415.2" width="292.5" height="505.8" id="SVGID_1_">
						</mask>
						<linearGradient id="SVGID_2_" gradientUnits="userSpaceOnUse" x1="-113.7016" y1="90.584" x2="-113.7016" y2="-415.2414">
							<stop  offset="0.561" style="stop-color:#000000"/>
							<stop  offset="0.6418" style="stop-color:#2A2A2A"/>
							<stop  offset="0.8224" style="stop-color:#949494"/>
							<stop  offset="0.9949" style="stop-color:#FFFFFF"/>
						</linearGradient>
						<polygon class="st3" points="32.5,90.6 -259.9,-415.2 -259.9,90.6 						"/>
					</g>
				</mask>
				<linearGradient id="SVGID_3_" gradientUnits="userSpaceOnUse" x1="-113.7016" y1="90.584" x2="-113.7016" y2="-415.2414">
					<stop  offset="0.561" style="stop-color:#C6E8EB"/>
					<stop  offset="0.9065" style="stop-color:#CED7D8"/>
					<stop  offset="0.9949" style="stop-color:#D1D3D4"/>
				</linearGradient>
				<polygon style="opacity:0.6;fill:url(#SVGID_3_);" points="32.5,90.6 -259.9,-415.2 -259.9,90.6 				"/>
			</g>
			<g>
				<polygon class="st14" points="128.2,90.6 -109.1,-319.8 -346.5,90.6 				"/>
				<defs>
					<filter id="Adobe_OpacityMaskFilter_2_" filterUnits="userSpaceOnUse" x="-109.1" y="-319.8" width="237.3" height="410.4">
						<feFlood  style="flood-color:white;flood-opacity:1" result="back"/>
						<feBlend  in="SourceGraphic" in2="back" mode="normal"/>
					</filter>
				</defs>
				<mask maskUnits="userSpaceOnUse" x="-109.1" y="-319.8" width="237.3" height="410.4" id="SVGID_4_">
					<g class="st15">
						<defs>
							<filter id="Adobe_OpacityMaskFilter_3_" filterUnits="userSpaceOnUse" x="-109.1" y="-319.8" width="237.3" height="410.4">
								<feFlood  style="flood-color:white;flood-opacity:1" result="back"/>
								<feBlend  in="SourceGraphic" in2="back" mode="normal"/>
							</filter>
						</defs>
						<mask maskUnits="userSpaceOnUse" x="-109.1" y="-319.8" width="237.3" height="410.4" id="SVGID_4_">
						</mask>
						
							<linearGradient id="SVGID_5_" gradientUnits="userSpaceOnUse" x1="3783.3665" y1="396.4012" x2="3783.3665" y2="-319.8235" gradientTransform="matrix(-1 0 0 1 3792.8789 0)">
							<stop  offset="0.561" style="stop-color:#000000"/>
							<stop  offset="0.6418" style="stop-color:#2A2A2A"/>
							<stop  offset="0.8224" style="stop-color:#949494"/>
							<stop  offset="0.9949" style="stop-color:#FFFFFF"/>
						</linearGradient>
						<polygon style="mask:url(#SVGID_4_);fill:url(#SVGID_5_);" points="128.2,90.6 -109.1,-319.8 -109.1,90.6 						"/>
					</g>
				</mask>
				
					<linearGradient id="SVGID_6_" gradientUnits="userSpaceOnUse" x1="3783.3665" y1="396.4012" x2="3783.3665" y2="-319.8235" gradientTransform="matrix(-1 0 0 1 3792.8789 0)">
					<stop  offset="0.561" style="stop-color:#C6E8EB"/>
					<stop  offset="0.9065" style="stop-color:#CED7D8"/>
					<stop  offset="0.9949" style="stop-color:#D1D3D4"/>
				</linearGradient>
				<polygon style="opacity:0.6;fill:url(#SVGID_6_);" points="128.2,90.6 -109.1,-319.8 -109.1,90.6 				"/>
			</g>
		</g>
		<g id="Back_Bushes">
			<g>
				<linearGradient id="SVGID_7_" gradientUnits="userSpaceOnUse" x1="22.9157" y1="-222.9242" x2="22.9157" y2="89.0641">
					<stop  offset="0" style="stop-color:#0E405B"/>
					<stop  offset="0.373" style="stop-color:#0E3E59"/>
					<stop  offset="0.8418" style="stop-color:#0F3851"/>
					<stop  offset="1" style="stop-color:#0F354D"/>
				</linearGradient>
				<path style="fill:url(#SVGID_7_);" d="M-88.6,90.6V74.7c-8.2-2.9-14.1-10.7-14.1-19.9c0-11.7,9.5-21.1,21.1-21.1
					c5.9,0,11.1,2.4,15,6.2c2.4-5.9,8.2-10.1,15-10.1c5.4,0,10.1,2.6,13.1,6.7c3.4-2.3,7.4-3.6,11.7-3.6c10.1,0,18.5,7,20.6,16.5
					c2.9-3.1,7.1-5,11.7-5c4.3,0,8.3,1.7,11.2,4.5c2.6-8.7,10.7-15.1,20.2-15.1c11.7,0,21.1,9.5,21.1,21.1c0,0.6,0,1.1-0.1,1.7
					c0,0,0.1,0,0.1,0c4.5,0,8.5,1.8,11.5,4.8c3-5.2,8.6-8.7,15-8.7c5.9,0,11.1,2.9,14.2,7.4c3.3-2.2,7.3-3.5,11.6-3.5
					c10.7,0,19.5,7.9,20.9,18.3c0.4,0,0.8-0.1,1.2-0.1c8.9,0,16,7.1,16.2,16H-88.6z"/>
			</g>
		</g>
		<g id="Front_Trees">
			<g>
				<g>
					<linearGradient id="SVGID_8_" gradientUnits="userSpaceOnUse" x1="-30.4987" y1="64.5599" x2="-30.4987" y2="-16.7288">
						<stop  offset="0.2755" style="stop-color:#2D6C8A"/>
						<stop  offset="0.4163" style="stop-color:#306F8C"/>
						<stop  offset="0.5876" style="stop-color:#387893"/>
						<stop  offset="0.7746" style="stop-color:#46889F"/>
						<stop  offset="0.9717" style="stop-color:#59A1B2"/>
						<stop  offset="1" style="stop-color:#5CA5B5"/>
					</linearGradient>
					<circle style="fill:url(#SVGID_8_);" cx="-30.5" cy="23.9" r="40.6"/>
				</g>
			</g>
		</g>
	</g>
</g>
<g id="X_Marks_the_Spot" class="st10">
	
		<rect x="5.1" y="126" transform="matrix(6.123234e-17 -1 1 6.123234e-17 -123.1054 136.5789)" class="st68" width="3.2" height="7.7"/>
	
		<rect x="17.4" y="126" transform="matrix(6.123234e-17 -1 1 6.123234e-17 -110.8645 148.8199)" class="st68" width="3.2" height="7.7"/>
	
		<rect x="29.6" y="126" transform="matrix(6.123234e-17 -1 1 6.123234e-17 -98.6236 161.0608)" class="st68" width="3.2" height="7.7"/>
	
		<rect x="41.9" y="126" transform="matrix(6.123234e-17 -1 1 6.123234e-17 -86.3826 173.3017)" class="st68" width="3.2" height="7.7"/>
	<polygon class="st69" points="83.1,132.4 80.8,133.5 58.4,122.5 60.6,121.4 	"/>
	<polygon class="st69" points="60.7,133.5 58.4,132.4 80.8,121.5 83.1,122.6 	"/>
</g>
<g id="Sword">
	<g id="Halo">
		<defs>
			<filter id="Adobe_OpacityMaskFilter_4_" filterUnits="userSpaceOnUse" x="0" y="0" width="139.2" height="139.2">
				<feColorMatrix  type="matrix" values="1 0 0 0 0  0 1 0 0 0  0 0 1 0 0  0 0 0 1 0"/>
			</filter>
		</defs>
		<mask maskUnits="userSpaceOnUse" x="0" y="0" width="139.2" height="139.2" id="SVGID_9_">
			<g class="st19">
				<defs>
					<filter id="Adobe_OpacityMaskFilter_5_" filterUnits="userSpaceOnUse" x="0" y="0" width="139.2" height="139.2">
						<feFlood  style="flood-color:white;flood-opacity:1" result="back"/>
						<feBlend  in="SourceGraphic" in2="back" mode="normal"/>
					</filter>
				</defs>
				<mask maskUnits="userSpaceOnUse" x="0" y="0" width="139.2" height="139.2" id="SVGID_9_">
				</mask>
				<radialGradient id="SVGID_10_" cx="69.6037" cy="69.6037" r="69.6037" gradientUnits="userSpaceOnUse">
					<stop  offset="0" style="stop-color:#FFFFFF"/>
					<stop  offset="0.2735" style="stop-color:#AFAFAF"/>
					<stop  offset="0.5868" style="stop-color:#595959"/>
					<stop  offset="0.7296" style="stop-color:#363636"/>
					<stop  offset="0.8991" style="stop-color:#101010"/>
					<stop  offset="0.9949" style="stop-color:#000000"/>
				</radialGradient>
				<path class="st21" d="M69.6,0C31.2,0,0,31.2,0,69.6c0,38.4,31.2,69.6,69.6,69.6c38.4,0,69.6-31.2,69.6-69.6
					C139.2,31.2,108,0,69.6,0z"/>
			</g>
		</mask>
		<radialGradient id="SVGID_11_" cx="69.6037" cy="69.6037" r="69.6037" gradientUnits="userSpaceOnUse">
			<stop  offset="0" style="stop-color:#F5BE35"/>
			<stop  offset="0.432" style="stop-color:#F6DC6F"/>
			<stop  offset="0.7296" style="stop-color:#F6F190"/>
			<stop  offset="0.8519" style="stop-color:#DEECC1"/>
			<stop  offset="0.9467" style="stop-color:#CDE9E0"/>
			<stop  offset="0.9949" style="stop-color:#C6E8EB"/>
		</radialGradient>
		<path style="display:none;fill:url(#SVGID_11_);" d="M69.6,0C31.2,0,0,31.2,0,69.6c0,38.4,31.2,69.6,69.6,69.6
			c38.4,0,69.6-31.2,69.6-69.6C139.2,31.2,108,0,69.6,0z"/>
	</g>
	<g id="Sword_1_">
		<path class="st74" d="M63.4,61.9L63.4,61.9C63.4,61.9,63.4,61.9,63.4,61.9c0.7,0.6,1.3,1.2,1.9,1.8c0.6,0.6,1.3,1.2,1.9,1.8
			c-0.2,0.2-0.3,0.4-0.5,0.6c-0.9,0.9-1.8,1.8-2.7,2.7c-0.3,0.3-0.3,0.4,0,0.7c1.1,1.1,2.2,2.1,3.2,3.2c0,0.1,0,0.1,0,0.2
			c-1.1,1.1-2.2,2.2-3.3,3.2c-0.1,0.1-0.1,0.4,0,0.5c1.1,1.1,2.2,2.2,3.3,3.3c0,0.1,0,0.2,0,0.3c-1.1,1.1-2.2,2.2-3.3,3.3
			c-0.1,0.1,0,0.4,0.1,0.5c1.1,1.1,2.2,2.2,3.3,3.3c0,0,0,0.1,0,0.1c-1.1,1.1-2.1,2.2-3.2,3.2c-0.3,0.3-0.3,0.4,0,0.7
			c1.1,1,2.2,2.1,3.2,3.2c0,0.1,0,0.1,0,0.2C66,95.9,64.9,97,63.8,98c-0.1,0.1-0.2,0.4-0.1,0.5c1,1,2,2,3,3c0,0,0,0,0,0
			c0,0,0,0.1,0,0.1c0.1,0.1,0.2,0.2,0.3,0.2c0,0.1,0,0.2,0,0.3c-0.1,0.1-0.2,0.2-0.2,0.2c-1,0.9-1.9,1.9-2.9,2.8
			c-0.4,0.4-0.3,0.6,0,1c1.1,1,2.1,2,3.1,3c0,0.1,0,0.2,0,0.2c-1.1,1.1-2.2,2.2-3.3,3.3c-0.2,0.2-0.2,0.4,0,0.6
			c0.4,0.4,0.8,0.9,1.3,1.3c0.7,0.7,1.4,1.3,2.1,2c0.9,0.9,1.8,1.9,2.7,2.8c0.9,0.9,0.9,0.9,1.8,0c0.9-0.9,1.8-1.9,2.7-2.8
			c0.1,0,0.1,0,0.2-0.1c1.1-1.1,2.2-2.2,3.2-3.3c0.1-0.1,0.1-0.5,0-0.6c-1.1-1.1-2.1-2.1-3.2-3.2c0,0,0-0.1,0-0.1c1-1,2-1.9,2.9-2.9
			c0.8-0.8,0.8-0.6,0-1.4c-1-1-2-1.9-3-2.9c1.3-1.3,2.6-2.5,3.8-3.6c1.2,1.1,2.4,2.3,3.8,3.5c-1.1,1-1.9,1.8-2.8,2.6
			c-0.2,0.2-0.5,0.5-0.7,0.7c-0.3,0.2-0.3,0.5,0,0.7c1,1,2,2,3,2.9c0.3,0.3,0.3,0.5,0,0.7c-1,1-1.9,1.9-2.9,2.9
			c-0.3,0.3-0.3,0.5,0,0.8c1.1,1,2.2,2.1,3.2,3.1c-3.7,3.7-7.3,7.3-11.1,11c-1.2-1.2-2.4-2.4-3.6-3.7c-2.1-2.1-4.3-4.3-6.4-6.4
			c-0.3-0.3-0.5-0.6-0.8-0.8c1.1-1.1,2.1-2.2,3.2-3.2c0.3-0.3,0.4-0.5,0-0.8c-1-0.9-1.9-1.9-2.8-2.8c-0.3-0.3-0.4-0.5,0-0.8
			c1-0.9,1.9-1.9,2.9-2.8c0.3-0.3,0.3-0.5,0-0.8c-1.1-1-2.2-2.1-3.3-3.2c0.3-0.3,0.5-0.6,0.8-0.8c0.8-0.8,1.6-1.7,2.5-2.5
			c0.3-0.3,0.3-0.6,0-0.9c-1.1-1-2.1-2.1-3.3-3.2c1-1,2-1.9,3-2.9c0.8-0.8,0.9-0.6,0-1.5c-0.8-0.9-1.7-1.7-2.6-2.5
			c-0.1-0.1-0.2-0.2-0.3-0.5c1.1-1,2.1-2.1,3.2-3.1c0.4-0.3,0.4-0.6,0-0.9c-0.9-0.9-1.8-1.8-2.7-2.7c-0.2-0.2-0.3-0.3-0.5-0.5
			c1.1-1.1,2.1-2.1,3.1-3.1c0.4-0.4,0.4-0.6,0-1c-1.1-1-2.1-2-3.2-3.1c0.8-0.8,1.5-1.5,2.2-2.2c0.4-0.4,0.7-0.7,1.1-1.1
			c0.3-0.3,0.3-0.5,0-0.8c-0.9-0.9-1.9-1.9-2.8-2.8c-0.3-0.3-0.4-0.5,0-0.8C61.3,64.1,62.3,63,63.4,61.9z"/>
		<path class="st74" d="M77.9,61.8c0.1,0,0.2,0,0.3-0.1c0.1,0.2,0.2,0.4,0.3,0.6c1,1.1,2.1,2.1,3.3,3.3c-0.9,0.9-1.8,1.7-2.6,2.5
			c-1.1,1.1-1.1,1.1,0,2.2c0.8,0.8,1.7,1.6,2.6,2.5c-1.2,1.2-2.2,2.2-3.3,3.3c-0.3,0.3-0.4,0.5,0,0.8c1.1,1,2.1,2.1,3.3,3.2
			c-1.3,1.2-2.5,2.4-3.7,3.6c1.3,1.3,2.5,2.4,3.8,3.6c-0.8,0.8-1.5,1.6-2.2,2.3c-0.4,0.4-0.7,0.8-1.1,1.1c-0.3,0.3-0.3,0.4,0,0.7
			c1,0.9,1.9,1.9,2.8,2.8c0.1,0.1,0.3,0.3,0.4,0.4c-1.2,1.2-2.4,2.4-3.5,3.6c-1.2-1.2-2.5-2.4-3.7-3.6c0,0,0-0.1,0-0.1
			c1.1-1.1,2.1-2.1,3.2-3.2c0.3-0.3,0.4-0.5,0-0.8c-1.1-1-2.1-2.1-3.2-3.2c0-0.1,0-0.1,0-0.2c1.2-1.2,2.3-2.3,3.6-3.6
			c-1.3-1.2-2.5-2.4-3.8-3.6c1.1-1.1,2.2-2.2,3.3-3.2c0.4-0.3,0.4-0.5,0-0.9c-1.1-1-2.1-2.1-3.2-3.2c0.1-0.2,0.2-0.3,0.3-0.3
			c1-1,2-2,3-3c0.2-0.2,0.4-0.4,0.1-0.7c-1.1-1.1-2.2-2.2-3.3-3.3c0,0,0-0.1,0-0.1c1.1-1.1,2.1-2.1,3.2-3.2
			C77.8,62.2,77.8,62,77.9,61.8z"/>
		<path class="st75" d="M74.5,94.7c1.2,1.2,2.5,2.4,3.7,3.6c0,0,0,0,0,0.1c-1.2,1.2-2.5,2.4-3.8,3.6c1.1,1,2.1,2,3,2.9
			c0.8,0.8,0.8,0.6,0,1.4c-0.9,1-1.9,1.9-2.9,2.9c-0.1,0-0.2-0.1-0.3-0.1c-1.1-1.1-2.2-2.3-3.4-3.4c0,0,0-0.1,0-0.1
			c0.4-0.4,0.8-0.9,1.1-1.3c0.8-0.7,1.6-1.5,2.6-2.4c-1.3-1.2-2.6-2.4-3.8-3.6C72,97.1,73.3,95.9,74.5,94.7z"/>
		<path class="st76" d="M85.3,54.6c-1.2,1.2-2.4,2.4-3.5,3.5c-1.4-1.4-2.8-2.7-4.2-4.1c-0.9-0.9-1.8-1.8-2.7-2.7
			c-0.3-0.3-0.3-0.5,0-0.8c1.1-1.1,2.1-2.1,3.2-3.2C80.5,49.8,82.9,52.2,85.3,54.6z"/>
		<path class="st77" d="M70.5,32.9c0.2,0.1,0.4,0.1,0.5,0.2c1.1,1,2.2,2.1,3.3,3.2c-1.3,1.2-2.5,2.4-3.8,3.6
			c1.4,1.3,2.6,2.5,3.9,3.8c-0.8,0.8-1.6,1.5-2.3,2.2c-0.4,0.4-0.7,0.8-1.1,1.1c-0.1,0.1-0.5,0.1-0.6,0c-1.1-1.1-2.2-2.2-3.4-3.3
			c1.3-1.2,2.5-2.3,3.7-3.5c-1.1-1.1-2-2-3-3c-0.1-0.1-0.2-0.2-0.3-0.2c-0.4-0.3-0.3-0.5,0-0.8c0.6-0.5,1.1-1.1,1.7-1.7
			c0.1-0.1,0.2-0.3,0.4-0.5c0,0,0,0,0,0c0,0,0.1-0.1,0.1-0.1C70.2,33.6,70.5,33.4,70.5,32.9z"/>
		<path class="st76" d="M56.3,54.6c2.4-2.4,4.8-4.8,7.3-7.3c1.1,1.1,2.1,2.2,3.2,3.4c0.1,0.1,0.1,0.5,0,0.6
			c-2.2,2.2-4.5,4.5-6.7,6.7c-0.1,0.1-0.4,0.1-0.4,0C58.5,56.9,57.4,55.7,56.3,54.6z"/>
		<path class="st78" d="M74.5,65.5C74.5,65.5,74.5,65.6,74.5,65.5c-0.2,0.3-0.5,0.5-0.8,0.7c-0.8,0.8-1.6,1.5-2.4,2.3
			c0-0.2-0.1-0.4,0-0.6c0.1-0.7,0.2-1.5,0.3-2.2c0.1-0.4,0-0.6-0.4-0.6c-0.2,0-0.4,0-0.5,0c-1,0-2,0-3.1,0.1
			c0.1-0.1,0.1-0.3,0.3-0.4c1-0.9,2-1.9,3-2.8c0-0.1,0-0.2,0-0.3c-0.5-0.4-1-0.8-1.5-1.3c-0.8-0.7-1.5-1.4-2.2-2.1
			c1.2-1.2,2.5-2.4,3.7-3.7c0,0,0,0,0,0c0.9,0.8,1.7,1.7,2.6,2.5c0.4,0.4,0.7,0.8,1,1.2c-1.2,1.2-2.4,2.4-3.6,3.6
			C72,63.2,73.3,64.3,74.5,65.5z"/>
		<path class="st75" d="M67,58.3c0.7,0.7,1.5,1.4,2.2,2.1c0.5,0.4,1,0.9,1.5,1.3c0,0.1,0,0.2,0,0.3c-1,0.9-2,1.9-3,2.8
			c-0.1,0.1-0.2,0.2-0.3,0.4c-0.1,0.1-0.3,0.2-0.4,0.3l0,0c-0.6-0.6-1.3-1.2-1.9-1.8c-0.6-0.6-1.2-1.2-1.8-1.8
			c0.3-0.3,0.6-0.6,0.9-0.9C65.2,60.1,66.1,59.2,67,58.3z"/>
		<path class="st79" d="M74.5,65.5c-1.2-1.2-2.4-2.3-3.7-3.6c1.2-1.2,2.4-2.4,3.6-3.6c1.1,1.1,2.1,2.1,3.2,3.2
			c0.1,0.1,0.2,0.2,0.3,0.3c-0.1,0.2-0.1,0.4-0.3,0.5C76.6,63.4,75.5,64.5,74.5,65.5z"/>
		<path class="st76" d="M70.7,54.6C70.7,54.6,70.8,54.6,70.7,54.6c-0.7-0.7-1.3-1.4-2-2.1c-0.5-0.5-1-1-1.5-1.5
			c1.2-1.1,2.3-2.3,3.5-3.5c1.1,1.1,2.3,2.3,3.5,3.5c-1.1,1.1-2.2,2.1-3.3,3.2C70.9,54.4,70.8,54.5,70.7,54.6z"/>
		<path class="st76" d="M67.1,21.8c1.2-1.1,2.2-2.2,3.4-3.3c0.1-0.1,0.5-0.1,0.6,0c1.1,1,2.3,2.1,3.5,3.3c-1.2,1.2-2.3,2.2-3.4,3.3
			c-0.2,0.2-0.4,0.2-0.7,0C69.3,24,68.3,22.9,67.1,21.8z"/>
		<path class="st76" d="M52.5,51c1.2,1.2,2.4,2.4,3.6,3.6c-1.1,1.1-2.2,2.2-3.4,3.3c-0.1,0.1-0.4,0.1-0.5,0
			c-1.1-1.1-2.2-2.2-3.3-3.2C50.2,53.5,51.3,52.3,52.5,51z"/>
		<path class="st76" d="M89.6,51.6c1,1,2,1.9,3,3c-1.2,1.2-2.3,2.3-3.5,3.4c-0.1,0.1-0.4,0.1-0.5,0c-1-1-2-2-3.1-3
			c-0.3-0.3-0.2-0.4,0-0.6c0.9-0.9,1.9-1.9,2.8-2.8c0.1-0.2,0.3-0.4,0.4-0.6c0.1,0,0.2,0,0.3-0.1C89.3,51.1,89.5,51.4,89.6,51.6z"/>
		<path class="st77" d="M70.1,32.1c-0.2-0.2-0.4-0.4-0.6-0.6c0-0.5-0.4-0.6-0.8-0.7c-0.5-0.5-1-1.1-1.4-1.6c1.2-1.2,2.3-2.4,3.4-3.6
			c1.2,1.1,2.3,2.3,3.6,3.5c-0.2,0.2-0.4,0.5-0.7,0.7c-0.8,0.8-1.6,1.7-2.5,2.5c-0.2,0.1-0.4,0.2-0.6,0.3
			C70.6,32.2,70.4,32,70.1,32.1z"/>
		<path class="st80" d="M42.4,54.6c0.2-0.1,0.3-0.2,0.4-0.2c0.7-0.6,0.9-0.5,1.1,0.4c0,0.1,0.1,0.2,0.1,0.2c0.5,0.1,0.5,0.5,0.2,0.7
			c-0.2,0.2-0.6,0.2-0.8,0.1C43,55.4,42.7,55,42.4,54.6z M44,55.1c-0.1,0-0.1-0.1-0.2-0.1c-0.1,0.1-0.2,0.2-0.3,0.4
			c0.1,0,0.1,0.1,0.2,0.1C43.8,55.3,43.9,55.2,44,55.1z"/>
		<path class="st81" d="M70.1,32.1c0.4,0,0.5,0.2,0.5,0.5c0,0.1,0,0.2,0,0.3c0,0.5-0.4,0.8-0.9,0.8c0,0-0.1,0.1-0.1,0.1c0,0,0,0,0,0
			c-0.2-0.1-0.4-0.2-0.6-0.2c0.2-0.1,0.3-0.3,0.5-0.4c0.1-0.1,0.3-0.3,0.4-0.5C70,32.4,70,32.3,70.1,32.1z"/>
		<path class="st80" d="M68.7,30.8c0.4,0.1,0.8,0.2,0.8,0.7c-0.4-0.2-0.7-0.1-0.7,0.5c0,0.4-0.3,0.4-0.6,0.4
			C68.1,31.7,68.1,31.1,68.7,30.8z"/>
		<path class="st78" d="M74.5,94.7c-1.2,1.2-2.4,2.3-3.7,3.6c1.3,1.2,2.5,2.3,3.8,3.6c-1,0.9-1.8,1.6-2.6,2.4
			c-0.1-0.2-0.1-0.4-0.2-0.7c-0.1-0.8-0.1-1.7-0.2-2.5c0-0.5-0.3-0.7-0.8-0.6c-0.8,0.1-1.5,0.1-2.3,0.1c0.7-0.7,1.4-1.4,2.2-2.3
			c-0.8-0.7-1.6-1.4-2.3-2.1c-0.5-0.4-1-0.9-1.4-1.3c0-0.1,0-0.1,0-0.2c0,0,0.1,0,0.1,0c1.1-1.1,2.2-2.2,3.3-3.3
			c0.1-0.1,0-0.4-0.1-0.5c-1.1-1.1-2.2-2.2-3.4-3.3c0,0,0-0.1,0-0.1c1.2-1.2,2.4-2.3,3.8-3.6c-1-0.9-1.8-1.7-2.7-2.5
			c-0.4-0.3-0.8-0.6-1.1-0.9c0-0.1,0-0.2,0-0.3c0.1,0,0.3,0,0.3-0.1c1.1-1.1,2.2-2.2,3.4-3.3c-0.8-0.9-1.6-1.6-2.3-2.4
			C68,73.8,67.5,73.4,67,73c0-0.1,0-0.1,0-0.2c0.9-0.9,1.7-1.7,2.6-2.6c0.1,0,0.1-0.1,0.2-0.1c0.5,0.2,1,0.1,1.4-0.3
			c1,0.9,2,1.9,2.9,2.9c0.1,0.1,0,0.3,0,0.4c-0.1,0.2-0.3,0.3-0.4,0.4c-1,1-2,1.9-3.1,3c1.3,1.3,2.5,2.4,3.9,3.7
			c-1.3,1.2-2.5,2.4-3.8,3.6c1.1,1.1,2.1,2.1,3.1,3c0.2,0.2,0.5,0.3,0.7,0.5c0,0.1,0,0.1,0,0.2c-0.2,0.2-0.5,0.3-0.7,0.5
			c-1,1-2.1,2-3.1,3c1.2,1.2,2.3,2.3,3.5,3.4C74.3,94.5,74.4,94.6,74.5,94.7C74.5,94.7,74.5,94.7,74.5,94.7z"/>
		<path class="st78" d="M70.9,105.7c1.1,1.1,2.2,2.3,3.4,3.4c0.1,0.1,0.2,0.1,0.3,0.1c0,0,0,0.1,0,0.1c-0.1,0-0.1,0-0.2,0.1
			c-1.1,1.1-2.2,2.1-3.2,3.2c-0.1,0.1-0.1,0.5,0.1,0.7c1,1.1,2.1,2.1,3.2,3.2c-0.9,0.9-1.8,1.9-2.7,2.8c-0.9,0.9-0.9,0.9-1.8,0
			c-0.9-0.9-1.8-1.8-2.7-2.8c1.1-1.1,2.2-2.2,3.3-3.2c0.3-0.3,0.2-0.5,0-0.7c-0.6-0.6-1.3-1.3-1.9-1.9c-0.5-0.4-0.9-0.8-1.4-1.3
			c0-0.1,0-0.2,0-0.2c0.8-0.7,1.5-1.4,2.3-2.1C69.8,106.6,70.4,106.1,70.9,105.7z"/>
		<path class="st75" d="M67.1,87.5c1.1,1.1,2.3,2.2,3.4,3.3c0.1,0.1,0.1,0.4,0.1,0.5c-1.1,1.1-2.2,2.2-3.3,3.3c0,0-0.1,0-0.1,0
			c-1.1-1.1-2.1-2.2-3.2-3.2c-0.3-0.3-0.3-0.4,0-0.7C64.9,89.6,66,88.5,67.1,87.5z"/>
		<path class="st75" d="M74.4,116.5c-1.1-1.1-2.1-2.1-3.2-3.2c-0.1-0.1-0.2-0.6-0.1-0.7c1.1-1.1,2.1-2.2,3.2-3.2c0,0,0.1,0,0.2-0.1
			c1.1,1.1,2.2,2.1,3.2,3.2c0.1,0.1,0.1,0.5,0,0.6c-1.1,1.1-2.2,2.2-3.2,3.3C74.5,116.4,74.4,116.4,74.4,116.5z"/>
		<path class="st79" d="M67.1,109.4c0.5,0.4,1,0.8,1.4,1.3c0.6,0.6,1.3,1.3,1.9,1.9c0.3,0.2,0.3,0.4,0,0.7c-1.1,1.1-2.2,2.1-3.3,3.2
			c-0.7-0.7-1.4-1.3-2.1-2c-0.4-0.4-0.8-0.9-1.3-1.3c-0.2-0.2-0.3-0.4,0-0.6C64.9,111.6,66,110.5,67.1,109.4z"/>
		<path class="st75" d="M67,73c0.5,0.4,1,0.8,1.4,1.2c0.8,0.7,1.5,1.5,2.3,2.4c-1.2,1.1-2.3,2.2-3.4,3.3c-0.1,0.1-0.2,0.1-0.3,0.1
			c-1.1-1.1-2.2-2.2-3.3-3.3c-0.1-0.1-0.1-0.4,0-0.5C64.8,75.1,65.9,74.1,67,73z"/>
		<path class="st79" d="M67,80.3c0.4,0.3,0.8,0.6,1.1,0.9c0.9,0.8,1.7,1.6,2.7,2.5c-1.4,1.3-2.6,2.5-3.8,3.6
			c-1.1-1.1-2.2-2.2-3.3-3.3c-0.1-0.1-0.1-0.4-0.1-0.5C64.8,82.4,65.9,81.4,67,80.3z"/>
		<path class="st75" d="M67,94.8c0.5,0.4,1,0.8,1.4,1.3c0.8,0.7,1.5,1.4,2.3,2.1c-0.8,0.9-1.5,1.6-2.2,2.3c-0.1,0-0.2,0.1-0.3,0.1
			c-1-0.3-1.3-0.2-1.5,0.8c0,0,0,0,0,0.1c-1-1-2-2-3-3c-0.1-0.1,0-0.4,0.1-0.5C64.9,97,66,95.9,67,94.8z"/>
		<path class="st79" d="M70.9,105.7c-0.5,0.4-1.1,0.9-1.6,1.3c-0.8,0.7-1.5,1.4-2.3,2.1c-1-1-2-2-3.1-3c-0.4-0.4-0.5-0.6,0-1
			c1-0.9,1.9-1.9,2.9-2.8c0.1,0.8,0.3,1.6,0.3,2.4c0,0.5,0.1,0.7,0.6,0.7c0.9-0.1,1.7-0.1,2.6-0.1c0.2,0.1,0.4,0.2,0.6,0.2
			C70.9,105.6,70.9,105.6,70.9,105.7z"/>
		<path class="st79" d="M69.7,70.1c-0.9,0.9-1.7,1.7-2.6,2.6c-1.1-1.1-2.1-2.2-3.2-3.2c-0.3-0.3-0.3-0.4,0-0.7
			c0.9-0.9,1.8-1.8,2.7-2.7c0,0.3,0.1,0.6,0.1,0.9c0,0.8-0.1,1.6-0.2,2.4c-0.1,0.6,0.2,0.7,0.7,0.7C68,70.1,68.9,70.1,69.7,70.1z"/>
		<path class="st82" d="M69.7,70.1c-0.8,0-1.7,0-2.5,0c-0.5,0-0.8-0.1-0.7-0.7c0.1-0.8,0.2-1.6,0.2-2.4c0-0.3-0.1-0.6-0.1-0.9
			c0.2-0.2,0.3-0.4,0.5-0.6c0,0,0,0,0,0c0.5,0.8,0.7,0.9,1.5,0.8c0.2,0,0.4,0.1,0.6,0.2c-0.2,0.2-0.3,0.3-0.5,0.5
			c-0.1,0-0.1,0.1-0.2,0.1c0.3,0.7,0.8,0.8,1.6,0.6c-0.4,0.8,0,1.2,0.5,1.6c-0.3,0.3-0.5,0.6-0.8,0.8C69.8,70.1,69.8,70.1,69.7,70.1
			z"/>
		<path class="st83" d="M70.9,105.6c-0.2-0.1-0.4-0.2-0.6-0.2c-0.2-0.2-0.4-0.5-0.6-0.7c0.8-0.4,1-0.8,0.9-1.4
			c0-0.1-0.2-0.2-0.3-0.3c-0.1,0.1-0.3,0.3-0.2,0.4c0.1,0.4-0.1,0.5-0.5,0.6c-0.7,0.2-0.8-0.3-1.1-0.6c0.2-0.2,0.4-0.3,0.4-0.5
			c0-0.3,0.1-0.5,0.5-0.5c0.1,0,0.3-0.2,0.2-0.4c0-0.1-0.2-0.3-0.3-0.3c-0.6-0.1-1,0.2-1.1,0.9c0,0.1,0,0.3-0.1,0.5
			c-0.4-0.3-0.7-0.5-1-0.7c0-0.1,0-0.2,0-0.3c0.4-0.4,0.8-0.7,1.2-1.1c0.1,0,0.2-0.1,0.3-0.1c0.8,0,1.5,0,2.3-0.1
			c0.5,0,0.7,0.2,0.8,0.6c0.1,0.8,0.1,1.7,0.2,2.5c0,0.2,0.1,0.4,0.2,0.7C71.6,104.7,71.3,105.1,70.9,105.6z"/>
		<path class="st82" d="M67.1,102.1c0.3,0.2,0.6,0.5,1,0.7c0-0.2,0.1-0.3,0.1-0.5c0.1-0.7,0.4-1,1.1-0.9c0.1,0,0.3,0.2,0.3,0.3
			c0,0.1-0.2,0.3-0.2,0.4c-0.4,0-0.4,0.2-0.5,0.5c0,0.2-0.3,0.3-0.4,0.5c0.3,0.3,0.5,0.8,1.1,0.6c0.4-0.1,0.6-0.2,0.5-0.6
			c0-0.1,0.2-0.2,0.2-0.4c0.1,0.1,0.3,0.2,0.3,0.3c0.2,0.6-0.1,1-0.9,1.4c0.2,0.3,0.4,0.5,0.6,0.7c-0.9,0-1.7,0.1-2.6,0.1
			c-0.5,0-0.6-0.2-0.6-0.7c0-0.8-0.2-1.6-0.3-2.4C66.9,102.3,67,102.2,67.1,102.1z"/>
		<path class="st82" d="M68.3,100.7c-0.4,0.4-0.8,0.7-1.2,1.1c-0.1-0.1-0.2-0.2-0.3-0.2c0,0,0-0.1,0.1-0.1c0,0-0.1,0-0.1,0
			c0,0,0,0,0,0c0,0,0,0,0-0.1C67,100.5,67.3,100.3,68.3,100.7z"/>
		<path class="st75" d="M66.7,101.5C66.8,101.5,66.8,101.5,66.7,101.5C66.8,101.5,66.8,101.5,66.7,101.5
			C66.7,101.6,66.7,101.5,66.7,101.5z"/>
		<path class="st75" d="M74.5,87.3c-0.2-0.2-0.5-0.3-0.7-0.5c-1-1-2-2-3.1-3c1.3-1.2,2.5-2.4,3.8-3.6c-1.3-1.2-2.5-2.4-3.9-3.7
			c1.1-1.1,2.1-2,3.1-3c0.1-0.1,0.3-0.3,0.4-0.4c0.1-0.1,0.1-0.4,0-0.4c-1-1-2-1.9-2.9-2.9c-0.2-0.4-0.2-0.8,0-1.2
			c0.8-0.8,1.6-1.5,2.4-2.3c0.2-0.2,0.5-0.4,0.8-0.6c1.1,1.1,2.2,2.2,3.3,3.3c0.3,0.3,0.1,0.5-0.1,0.7c-1,1-2,2-3,3
			c-0.1,0.1-0.1,0.2-0.3,0.3c1.1,1,2.1,2.1,3.2,3.2c0.3,0.3,0.4,0.5,0,0.9c-1.1,1-2.1,2.1-3.3,3.2c1.3,1.2,2.5,2.4,3.8,3.6
			C76.9,85,75.7,86.1,74.5,87.3z"/>
		<path class="st75" d="M74.5,94.6c-0.1-0.1-0.2-0.1-0.3-0.2c-1.1-1.1-2.2-2.2-3.5-3.4c1.1-1,2.1-2,3.1-3c0.2-0.2,0.5-0.4,0.7-0.5
			c1.1,1.1,2.1,2.1,3.2,3.2c0.4,0.3,0.3,0.5,0,0.8C76.6,92.5,75.6,93.6,74.5,94.6z"/>
		<path class="st80" d="M69.6,33.8C69.6,33.7,69.6,33.7,69.6,33.8C69.6,33.7,69.6,33.7,69.6,33.8z"/>
		<path class="st83" d="M71.3,68.5c-0.2,0.4-0.2,0.8,0,1.2c-0.4,0.4-0.9,0.4-1.4,0.3c0.2-0.3,0.5-0.5,0.8-0.8
			c-0.4-0.4-0.8-0.8-0.5-1.6c-0.8,0.2-1.3,0.1-1.6-0.6c0.1,0,0.1-0.1,0.2-0.1c0.2-0.1,0.3-0.3,0.5-0.5c-0.2-0.1-0.4-0.2-0.6-0.2
			c-0.9,0.1-1,0.1-1.5-0.8c0.1-0.1,0.3-0.2,0.4-0.3c1,0,2,0,3.1-0.1c0.2,0,0.4,0,0.5,0c0.4,0,0.5,0.2,0.4,0.6
			c-0.1,0.7-0.2,1.5-0.3,2.2C71.2,68.1,71.3,68.3,71.3,68.5z"/>
		<path class="st80" d="M49.4,51.9c-0.2,0-0.5,0-0.6-0.1c-0.3-0.3,0-0.5,0.3-0.7c0.1,0.2,0.3,0.4,0.4,0.6
			C49.5,51.8,49.4,51.8,49.4,51.9z"/>
		<path class="st80" d="M47.2,52.4c0.1-0.1,0.2-0.2,0.4-0.3c0,0,0.1,0.1,0.1,0.1c-0.1,0.1-0.2,0.2-0.3,0.3
			C47.3,52.5,47.3,52.4,47.2,52.4z"/>
		<polygon class="st77" points="70.6,39.9 67.1,36.4 70.8,32.7 74.4,36.3 		"/>
		<polygon class="st77" points="70.8,32.7 67.3,29.2 70.7,25.6 74.3,29.1 		"/>
		<path class="st84" d="M49.7,49.1c0,0,0.1,0,0.1,0C49.8,49.1,49.8,49.1,49.7,49.1z"/>
		<path class="st84" d="M70.7,54.6c0.1-0.1,0.2-0.3,0.3-0.4c1.1-1.1,2.2-2.2,3.3-3.2c-1.2-1.2-2.4-2.4-3.5-3.5
			c-1.2,1.2-2.4,2.3-3.5,3.5c0.5,0.5,1,1,1.5,1.5C69.4,53.2,70.1,53.9,70.7,54.6z"/>
		<path class="st84" d="M71.1,46.9c0.4-0.3,0.7-0.7,1.1-1.1c0.7-0.7,1.5-1.4,2.3-2.2c-1.3-1.3-2.6-2.4-3.9-3.8
			c1.3-1.2,2.5-2.3,3.8-3.6c-1.2-1.1-2.2-2.2-3.3-3.2c-0.1-0.1-0.3-0.1-0.5-0.2l-3.3,3.3c-0.1,0.2-0.1,0.4,0.2,0.6
			c0.1,0.1,0.2,0.2,0.3,0.2c1,1,1.9,2,3,3c-1.2,1.2-2.4,2.3-3.7,3.5c0,0,0,0,0,0c0,0,0,0,0,0c1.2,1.2,2.3,2.3,3.4,3.3
			C70.6,47,71,47,71.1,46.9z"/>
		<path class="st84" d="M52.2,57.9c0.1,0.1,0.4,0.1,0.5,0c1.1-1.1,2.2-2.2,3.4-3.3c-1.2-1.2-2.4-2.4-3.6-3.6
			c-1.2,1.2-2.4,2.4-3.6,3.6C50,55.7,51.1,56.8,52.2,57.9z"/>
		<path class="st84" d="M49.4,51.9c0-0.1,0.1-0.2,0.1-0.3c-0.1-0.2-0.3-0.4-0.4-0.6c-0.3,0.2-0.6,0.4-0.3,0.7
			C48.9,51.9,49.2,51.9,49.4,51.9z"/>
		<path class="st84" d="M59.6,57.9c0.1,0.1,0.3,0,0.4,0c2.2-2.2,4.5-4.4,6.7-6.7c0.1-0.1,0.1-0.5,0-0.6c-1-1.1-2.1-2.2-3.2-3.4
			c-2.5,2.5-4.9,4.9-7.3,7.3C57.4,55.7,58.5,56.9,59.6,57.9z"/>
		<path class="st84" d="M71,18.5c-0.1-0.1-0.5-0.1-0.6,0c-1.1,1-2.2,2.1-3.4,3.3c1.2,1.2,2.3,2.2,3.3,3.3c0.3,0.3,0.4,0.3,0.7,0
			c1.1-1.1,2.2-2.1,3.4-3.3C73.3,20.6,72.2,19.5,71,18.5z"/>
		<path class="st84" d="M67.3,29.2l3.3,3.4c0.2-0.1,0.4-0.2,0.5-0.3c0.8-0.8,1.7-1.6,2.5-2.5c0.2-0.2,0.4-0.5,0.7-0.7
			c-1.2-1.2-2.4-2.3-3.6-3.5C69.6,26.8,68.4,28,67.3,29.2z"/>
		<path class="st84" d="M77.6,54c1.4,1.4,2.8,2.7,4.2,4.1c1.1-1.1,2.3-2.3,3.5-3.5c-2.4-2.4-4.8-4.8-7.2-7.3
			c-1.1,1.1-2.1,2.2-3.2,3.2c-0.3,0.3-0.3,0.5,0,0.8C75.7,52.2,76.6,53.1,77.6,54z"/>
		<path class="st84" d="M43.4,55.7c0.2,0.1,0.6,0.1,0.8-0.1c0.2-0.2,0.3-0.6-0.2-0.7c0,0-0.1-0.1-0.1-0.2c-0.2-0.9-0.4-1-1.1-0.4
			c-0.1,0.1-0.2,0.1-0.4,0.2C42.7,55,43,55.4,43.4,55.7z M43.8,55c0.1,0,0.1,0.1,0.2,0.1c-0.1,0.1-0.2,0.2-0.2,0.4
			c-0.1,0-0.1-0.1-0.2-0.1C43.6,55.2,43.7,55.1,43.8,55z"/>
		<path class="st84" d="M45.8,54.1c-0.1-0.3-0.2-0.5-0.2-0.8C45.7,53.6,45.8,53.9,45.8,54.1C45.8,54.1,45.8,54.1,45.8,54.1z"/>
		<path class="st84" d="M46,55c0.1-0.1,0.2-0.1,0.2-0.2C46.1,54.9,46.1,55,46,55L46,55z"/>
		<path class="st84" d="M47.7,52.2c0,0-0.1-0.1-0.1-0.1c-0.1,0.1-0.2,0.2-0.4,0.3c0,0.1,0.1,0.1,0.1,0.2
			C47.5,52.4,47.6,52.3,47.7,52.2z"/>
		<path class="st84" d="M47.5,51.1c0.2,0.2,0.1,0.6,0.3,0.8C47.6,51.6,47.7,51.3,47.5,51.1z"/>
		<path class="st84" d="M46.2,53.9c0,0.1-0.1,0.2-0.4,0.2C46.1,54.1,46.2,54.1,46.2,53.9z"/>
		<path class="st80" d="M67.1,43.6C67.1,43.6,67,43.6,67.1,43.6C67.1,43.6,67.1,43.6,67.1,43.6C67.1,43.6,67.1,43.6,67.1,43.6
			C67.1,43.6,67.1,43.6,67.1,43.6z"/>
		<path class="st80" d="M44,55.1c-0.1,0-0.1-0.1-0.2-0.1c-0.1,0.1-0.2,0.2-0.3,0.4c0.1,0,0.1,0.1,0.2,0.1
			C43.8,55.3,43.9,55.2,44,55.1z"/>
		<path class="st80" d="M55.1,48.3l-2.2,2.2c0.2-0.1,0.3-0.3,0.6-0.5C54,49.4,54.5,48.8,55.1,48.3z"/>
		<path class="st84" d="M77.6,54c1.4,1.4,2.8,2.7,4.2,4.1c1.1-1.1,2.3-2.3,3.5-3.5c-2.4-2.4-4.8-4.8-7.2-7.3
			c-1.1,1.1-2.1,2.2-3.2,3.2c-0.3,0.3-0.3,0.5,0,0.8C75.7,52.2,76.6,53.1,77.6,54z"/>
		<path class="st84" d="M70.7,54.6c0.1-0.1,0.2-0.3,0.3-0.4c1.1-1.1,2.2-2.2,3.3-3.2c-1.2-1.2-2.4-2.4-3.5-3.5
			c-1.2,1.2-2.4,2.3-3.5,3.5c0.5,0.5,1,1,1.5,1.5C69.4,53.2,70.1,53.9,70.7,54.6z"/>
		<path class="st84" d="M71,18.5c-0.1-0.1-0.5-0.1-0.6,0c-1.1,1-2.2,2.1-3.4,3.3c1.2,1.2,2.3,2.2,3.3,3.3c0.3,0.3,0.4,0.3,0.7,0
			c1.1-1.1,2.2-2.1,3.4-3.3C73.3,20.6,72.2,19.5,71,18.5z"/>
		<path class="st84" d="M52.2,57.9c0.1,0.1,0.4,0.1,0.5,0c1.1-1.1,2.2-2.2,3.4-3.3c-1.2-1.2-2.4-2.4-3.6-3.6
			c-1.2,1.2-2.4,2.4-3.6,3.6C50,55.7,51.1,56.8,52.2,57.9z"/>
		<path class="st84" d="M59.6,57.9c0.1,0.1,0.3,0,0.4,0c2.2-2.2,4.5-4.4,6.7-6.7c0.1-0.1,0.1-0.5,0-0.6c-1-1.1-2.1-2.2-3.2-3.4
			c-2.5,2.5-4.9,4.9-7.3,7.3C57.4,55.7,58.5,56.9,59.6,57.9z"/>
		<path class="st84" d="M67.3,29.2l3.3,3.4c0.2-0.1,0.4-0.2,0.5-0.3c0.8-0.8,1.7-1.6,2.5-2.5c0.2-0.2,0.4-0.5,0.7-0.7
			c-1.2-1.2-2.4-2.3-3.6-3.5C69.6,26.8,68.4,28,67.3,29.2z"/>
		<path class="st80" d="M49.1,47.5L49.1,47.5C49.2,47.5,49.2,47.5,49.1,47.5z"/>
		<path class="st80" d="M43.6,52.5c-0.7,0.7-1.4,1.4-2,2.1L43.6,52.5z"/>
		<path class="st80" d="M46.2,53.9c0,0.1-0.1,0.2-0.4,0.2C46.1,54.1,46.2,54.1,46.2,53.9z"/>
		<path class="st80" d="M47.7,52.2c0,0-0.1-0.1-0.1-0.1c-0.1,0.1-0.2,0.2-0.4,0.3c0,0.1,0.1,0.1,0.1,0.2
			C47.5,52.4,47.6,52.3,47.7,52.2z"/>
		<path class="st80" d="M43.4,55.7c0.2,0.1,0.6,0.1,0.8-0.1c0.2-0.2,0.3-0.6-0.2-0.7c0,0-0.1-0.1-0.1-0.2c-0.2-0.9-0.4-1-1.1-0.4
			c-0.1,0.1-0.2,0.1-0.4,0.2C42.7,55,43,55.4,43.4,55.7z"/>
		<path class="st80" d="M45.8,54.1c-0.1-0.3-0.2-0.5-0.2-0.8C45.7,53.6,45.8,53.9,45.8,54.1C45.8,54.1,45.8,54.1,45.8,54.1z"/>
		<path class="st80" d="M49.7,49.1c0,0,0.1,0,0.1,0C49.8,49.1,49.8,49.1,49.7,49.1z"/>
		<path class="st80" d="M47.5,51.1c0.2,0.2,0.1,0.6,0.3,0.8C47.6,51.6,47.7,51.3,47.5,51.1z"/>
		<path class="st80" d="M46,55c0.1-0.1,0.2-0.1,0.2-0.2C46.1,54.9,46.1,55,46,55L46,55z"/>
		<path class="st80" d="M42.1,55.1l1,1l5.7,5.7c1-1,2-2,3-3c0.6-0.6,0.6-0.6,1.3,0c0,0,0,0.1,0.1,0.1c0.9,1,1.9,2,3,3.1
			c0.2-0.3,0.4-0.6,0.5-0.7c0.9-0.9,1.9-1.8,2.8-2.8c0.2-0.2,0.3-0.3,0.6,0c1.1,1.1,2.2,2.2,3.3,3.3c0,0,0,0,0,0s0,0,0,0
			c0.3-0.3,0.6-0.6,0.9-0.9c0.9-0.9,1.8-1.8,2.7-2.7c1.2-1.2,2.5-2.4,3.7-3.7c0.9,0.8,1.7,1.7,2.6,2.5c0.4,0.4,0.7,0.8,1,1.2
			c1.1,1.1,2.1,2.1,3.2,3.2c0.1,0.1,0.2,0.2,0.3,0.3c0.1,0,0.2,0,0.3-0.1c1.2-1.1,2.3-2.3,3.5-3.5c1.2,1.2,2.4,2.4,3.7,3.7
			c0.8-0.8,1.6-1.7,2.4-2.6c1.1-1.1,1.1-1.1,2.2,0c0.8,0.8,1.6,1.7,2.4,2.6c0.2-0.2,0.2-0.2,0.2-0.2c2.3-2.3,4.6-4.6,6.9-6.9
			c0.3-0.3,0.2-0.5-0.1-0.7c-1.4-1.4-2.8-2.8-4.2-4.2c-0.9-0.9-1.8-1.8-2.8-2.7c-0.8,0.8-1.7,1.7-2.5,2.5l-0.9,1l0.5,0.7
			c1,1,2,1.9,3,3c-1.2,1.2-2.3,2.3-3.5,3.4c-0.1,0.1-0.4,0.1-0.5,0c-1-1-2-2-3.1-3c-0.3-0.3-0.2-0.4,0-0.6c0.8-0.8,1.7-1.7,2.5-2.5
			l1-1l-0.8-0.8c-0.2-0.2-0.4-0.3-0.6-0.5c-1.8-1.8-3.7-3.6-5.5-5.5c-0.4-0.4-0.6-0.4-1,0c-1,1.1-2,2.1-3.1,3.2
			c-1.2-1.2-2.4-2.4-3.7-3.7c0.9-0.9,1.9-1.8,2.8-2.7c0.8-0.8,0.8-0.8,0-1.6c-0.9-0.9-1.9-1.8-2.8-2.7c1.2-1.3,2.4-2.5,3.5-3.7
			c-0.6-0.6-1.2-1.3-1.8-1.9c-0.6-0.6-1.2-1.2-1.9-1.9c2.5-2.4,4.9-4.8,7.3-7.2c0-0.1-0.1-0.1-0.1-0.2C78.1,18.1,74.5,14.6,71,11
			c-0.1-0.1-0.3-0.1-0.5-0.2c-0.1,0.1-0.1,0.2-0.2,0.3c-2.7,2.7-5.4,5.3-8,8c-0.9,0.9-1.7,1.7-2.5,2.6c0,0.1,0.1,0.1,0.1,0.2
			c2.3,2.3,4.5,4.5,6.8,6.8c0.3,0.3,0.3,0.5,0,0.8c-0.4,0.4-0.8,0.8-1.2,1.2c-0.7,0.7-1.4,1.4-2.1,2.2c0.8,0.7,1.5,1.5,2.3,2.2
			l0.1,0.1c0.4,0.4,0.9,0.9,1.4,1.3c-1.3,1.2-2.5,2.4-3.8,3.6c1.3,1.2,2.5,2.4,3.8,3.5c1.3-1.2,2.5-2.3,3.7-3.5c-1.1-1.1-2-2-3-3
			c-0.1-0.1-0.2-0.2-0.3-0.2c-0.3-0.2-0.3-0.4-0.2-0.6l3.3-3.3c0.2,0.1,0.4,0.1,0.5,0.2c1.1,1,2.2,2.1,3.3,3.2
			c-1.3,1.2-2.5,2.4-3.8,3.6c1.4,1.3,2.6,2.5,3.9,3.8c-0.8,0.8-1.6,1.5-2.3,2.2c-0.4,0.4-0.7,0.8-1.1,1.1c-0.1,0.1-0.5,0.1-0.6,0
			c-1.1-1.1-2.2-2.1-3.4-3.3c-1.2,1.2-2.3,2.3-3.4,3.4c-0.1,0.1-0.2,0.1-0.3,0.1L60,43.5l-0.7,0.7l-1,1l-3.2,3.1
			c-0.5,0.5-1.1,1.1-1.6,1.6c-0.2,0.2-0.4,0.4-0.6,0.5c-0.1,0.1-0.2,0.2-0.3,0.2l-3.3-3.1l-0.1-0.1L49,47.3l-0.1,0.1l-5.3,5.1
			l-2,2.1L42.1,55.1z M73.6,29.8c-0.8,0.8-1.6,1.7-2.5,2.5c-0.1,0.1-0.3,0.2-0.5,0.3l-3.3-3.4c1.2-1.2,2.3-2.4,3.4-3.6
			c1.2,1.1,2.3,2.3,3.6,3.5C74,29.3,73.8,29.6,73.6,29.8z M71.1,25.1c-0.2,0.2-0.4,0.2-0.7,0c-1.1-1.1-2.1-2.1-3.3-3.3
			c1.2-1.1,2.2-2.2,3.4-3.3c0.1-0.1,0.5-0.1,0.6,0c1.1,1,2.3,2.1,3.5,3.3C73.3,23,72.2,24,71.1,25.1z M74.8,50.6
			c1.1-1.1,2.1-2.1,3.2-3.2c2.4,2.5,4.8,4.9,7.2,7.3c-1.2,1.2-2.4,2.4-3.5,3.5c-1.4-1.4-2.8-2.7-4.2-4.1c-0.9-0.9-1.8-1.8-2.7-2.7
			C74.5,51,74.5,50.9,74.8,50.6z M70.8,47.5c1.1,1.1,2.3,2.3,3.5,3.5c-1.1,1.1-2.2,2.1-3.3,3.2c-0.1,0.1-0.2,0.3-0.3,0.4
			c-0.7-0.7-1.3-1.4-2-2.1c-0.5-0.5-1-1-1.5-1.5C68.4,49.9,69.6,48.7,70.8,47.5z M63.6,47.3c1.1,1.1,2.1,2.2,3.2,3.4
			c0.1,0.1,0.1,0.5,0,0.6c-2.2,2.2-4.5,4.5-6.7,6.7c-0.1,0.1-0.4,0.1-0.4,0c-1.1-1.1-2.2-2.2-3.4-3.3C58.7,52.2,61.1,49.8,63.6,47.3
			z M52.5,51c1.2,1.2,2.4,2.4,3.6,3.6c-1.1,1.1-2.2,2.2-3.4,3.3c-0.1,0.1-0.4,0.1-0.5,0c-1.1-1.1-2.2-2.2-3.3-3.2
			C50.2,53.5,51.3,52.3,52.5,51z"/>
		<polygon class="st78" points="74.5,65.6 70.7,69.2 67.1,65.5 70.8,61.9 		"/>
		<polygon class="st78" points="70.7,69.2 74.5,72.9 70.7,76.5 67.1,72.8 		"/>
		<polygon class="st79" points="74.5,65.6 70.7,69.2 74.5,72.9 		"/>
		<polygon class="st79" points="67.1,65.5 70.7,69.2 67.1,72.8 63.4,69.2 		"/>
		<polygon class="st79" points="70.9,105.6 67.1,102.1 63.5,105.6 67.1,109.2 		"/>
		<polygon class="st79" points="67.1,102.1 69.8,99.3 66.4,99.3 66.1,100.9 		"/>
		<polyline class="st78" points="69,100.1 71.8,100.4 72.1,102.4 72,104.3 70.9,105.6 67.1,102.1 		"/>
	</g>
</g>
</svg>
