<svg xmlns="http://www.w3.org/2000/svg" xmlns:xlink="http://www.w3.org/1999/xlink" viewBox="0 0 250 250"><defs><style>.cls-1{fill:url(#linear-gradient);}.cls-2{isolation:isolate;}.cls-3{clip-path:url(#clip-path);}.cls-4{mix-blend-mode:multiply;}.cls-5{opacity:0;fill:url(#linear-gradient-4);}.cls-6{opacity:0.04;fill:url(#linear-gradient-5);}.cls-7{opacity:0.08;fill:url(#linear-gradient-6);}.cls-8{opacity:0.12;fill:url(#linear-gradient-7);}.cls-9{opacity:0.15;fill:url(#linear-gradient-8);}.cls-10{opacity:0.19;fill:url(#linear-gradient-9);}.cls-11{opacity:0.23;fill:url(#linear-gradient-10);}.cls-12{opacity:0.27;fill:url(#linear-gradient-11);}.cls-13{opacity:0.31;fill:url(#linear-gradient-12);}.cls-14{opacity:0.35;fill:url(#linear-gradient-13);}.cls-15{opacity:0.38;fill:url(#linear-gradient-14);}.cls-16{opacity:0.42;fill:url(#linear-gradient-15);}.cls-17{opacity:0.46;fill:url(#linear-gradient-16);}.cls-18{opacity:0.5;fill:url(#linear-gradient-17);}.cls-19{opacity:0.54;fill:url(#linear-gradient-18);}.cls-20{opacity:0.58;fill:url(#linear-gradient-19);}.cls-21{opacity:0.62;fill:url(#linear-gradient-20);}.cls-22{opacity:0.65;fill:url(#linear-gradient-21);}.cls-23{opacity:0.69;fill:url(#linear-gradient-22);}.cls-24{opacity:0.73;fill:url(#linear-gradient-23);}.cls-25{opacity:0.77;fill:url(#linear-gradient-24);}.cls-26{opacity:0.81;fill:url(#linear-gradient-25);}.cls-27{opacity:0.85;fill:url(#linear-gradient-26);}.cls-28{opacity:0.88;fill:url(#linear-gradient-27);}.cls-29{opacity:0.92;fill:url(#linear-gradient-28);}.cls-30{opacity:0.96;fill:url(#linear-gradient-29);}.cls-31{fill:url(#linear-gradient-30);}.cls-32{fill:#989798;}.cls-33{fill:#706f6e;}.cls-34{fill:#b1742a;}.cls-35{fill:#985e25;}.cls-36{fill:#efeeed;}.cls-37{fill:#99928f;opacity:0.5;}.cls-38{fill:#bbb;}.cls-39{fill:#f7b237;}</style><linearGradient id="linear-gradient" x1="4.49" y1="125" x2="245.51" y2="125" gradientTransform="translate(229.85 -17.32) rotate(81.38)" gradientUnits="userSpaceOnUse"><stop offset="0.33" stop-color="#72c4cc"/><stop offset="0.44" stop-color="#6bbbc6"/><stop offset="0.62" stop-color="#58a4b6"/><stop offset="0.85" stop-color="#387e9c"/><stop offset="1" stop-color="#206188"/></linearGradient><clipPath id="clip-path"><circle class="cls-1" cx="125" cy="125" r="120.51" transform="translate(-17.32 229.85) rotate(-81.38)"/></clipPath><linearGradient id="linear-gradient-4" x1="125.34" y1="169.99" x2="225.14" y2="169.99" gradientTransform="matrix(1, 0, 0, 1, 0, 0)" xlink:href="#linear-gradient"/><linearGradient id="linear-gradient-5" x1="124.11" y1="168.04" x2="223.2" y2="168.04" gradientTransform="matrix(1, 0, 0, 1, 0, 0)" xlink:href="#linear-gradient"/><linearGradient id="linear-gradient-6" x1="122.86" y1="166.09" x2="221.28" y2="166.09" gradientTransform="matrix(1, 0, 0, 1, 0, 0)" xlink:href="#linear-gradient"/><linearGradient id="linear-gradient-7" x1="121.59" y1="164.14" x2="219.4" y2="164.14" gradientTransform="matrix(1, 0, 0, 1, 0, 0)" xlink:href="#linear-gradient"/><linearGradient id="linear-gradient-8" x1="120.29" y1="162.19" x2="217.53" y2="162.19" gradientTransform="matrix(1, 0, 0, 1, 0, 0)" xlink:href="#linear-gradient"/><linearGradient id="linear-gradient-9" x1="118.97" y1="160.24" x2="215.69" y2="160.24" gradientTransform="matrix(1, 0, 0, 1, 0, 0)" xlink:href="#linear-gradient"/><linearGradient id="linear-gradient-10" x1="117.62" y1="158.3" x2="213.87" y2="158.3" gradientTransform="matrix(1, 0, 0, 1, 0, 0)" xlink:href="#linear-gradient"/><linearGradient id="linear-gradient-11" x1="116.25" y1="156.35" x2="212.08" y2="156.35" gradientTransform="matrix(1, 0, 0, 1, 0, 0)" xlink:href="#linear-gradient"/><linearGradient id="linear-gradient-12" x1="114.87" y1="154.4" x2="210.3" y2="154.4" gradientTransform="matrix(1, 0, 0, 1, 0, 0)" xlink:href="#linear-gradient"/><linearGradient id="linear-gradient-13" x1="113.47" y1="152.45" x2="208.54" y2="152.45" gradientTransform="matrix(1, 0, 0, 1, 0, 0)" xlink:href="#linear-gradient"/><linearGradient id="linear-gradient-14" x1="112.05" y1="150.5" x2="206.79" y2="150.5" gradientTransform="matrix(1, 0, 0, 1, 0, 0)" xlink:href="#linear-gradient"/><linearGradient id="linear-gradient-15" x1="110.63" y1="148.55" x2="205.05" y2="148.55" gradientTransform="matrix(1, 0, 0, 1, 0, 0)" xlink:href="#linear-gradient"/><linearGradient id="linear-gradient-16" x1="109.19" y1="146.6" x2="203.32" y2="146.6" gradientTransform="matrix(1, 0, 0, 1, 0, 0)" xlink:href="#linear-gradient"/><linearGradient id="linear-gradient-17" x1="107.75" y1="144.65" x2="201.6" y2="144.65" gradientTransform="matrix(1, 0, 0, 1, 0, 0)" xlink:href="#linear-gradient"/><linearGradient id="linear-gradient-18" x1="106.3" y1="142.7" x2="199.89" y2="142.7" gradientTransform="matrix(1, 0, 0, 1, 0, 0)" xlink:href="#linear-gradient"/><linearGradient id="linear-gradient-19" x1="104.84" y1="140.75" x2="198.18" y2="140.75" gradientTransform="matrix(1, 0, 0, 1, 0, 0)" xlink:href="#linear-gradient"/><linearGradient id="linear-gradient-20" x1="103.38" y1="138.8" x2="196.48" y2="138.8" gradientTransform="matrix(1, 0, 0, 1, 0, 0)" xlink:href="#linear-gradient"/><linearGradient id="linear-gradient-21" x1="101.91" y1="136.85" x2="194.79" y2="136.85" gradientTransform="matrix(1, 0, 0, 1, 0, 0)" xlink:href="#linear-gradient"/><linearGradient id="linear-gradient-22" x1="100.44" y1="134.9" x2="193.1" y2="134.9" gradientTransform="matrix(1, 0, 0, 1, 0, 0)" xlink:href="#linear-gradient"/><linearGradient id="linear-gradient-23" x1="98.96" y1="132.95" x2="191.41" y2="132.95" gradientTransform="matrix(1, 0, 0, 1, 0, 0)" xlink:href="#linear-gradient"/><linearGradient id="linear-gradient-24" x1="97.48" y1="131" x2="189.72" y2="131" gradientTransform="matrix(1, 0, 0, 1, 0, 0)" xlink:href="#linear-gradient"/><linearGradient id="linear-gradient-25" x1="96" y1="129.05" x2="188.05" y2="129.05" gradientTransform="matrix(1, 0, 0, 1, 0, 0)" xlink:href="#linear-gradient"/><linearGradient id="linear-gradient-26" x1="94.51" y1="127.1" x2="186.37" y2="127.1" gradientTransform="matrix(1, 0, 0, 1, 0, 0)" xlink:href="#linear-gradient"/><linearGradient id="linear-gradient-27" x1="93.02" y1="125.15" x2="184.69" y2="125.15" gradientTransform="matrix(1, 0, 0, 1, 0, 0)" xlink:href="#linear-gradient"/><linearGradient id="linear-gradient-28" x1="91.53" y1="123.2" x2="183.02" y2="123.2" gradientTransform="matrix(1, 0, 0, 1, 0, 0)" xlink:href="#linear-gradient"/><linearGradient id="linear-gradient-29" x1="90.04" y1="121.25" x2="181.35" y2="121.25" gradientTransform="matrix(1, 0, 0, 1, 0, 0)" xlink:href="#linear-gradient"/><linearGradient id="linear-gradient-30" x1="88.54" y1="119.3" x2="179.68" y2="119.3" gradientTransform="matrix(1, 0, 0, 1, 0, 0)" xlink:href="#linear-gradient"/></defs><title>writer</title><g class="cls-2"><g id="Layer_1" data-name="Layer 1"><circle class="cls-1" cx="125" cy="125" r="120.51" transform="translate(-17.32 229.85) rotate(-81.38)"/><g class="cls-3"><circle class="cls-1" cx="125" cy="125" r="120.51" transform="translate(-17.32 229.85) rotate(-81.38)"/><g class="cls-4"><path class="cls-5" d="M130.39,153.24c-6.86-11.57-11.53-47.78,19.25-59.22s69.05.73,74.82,53.61-26.73,81.71-36.79,92.83-36.23,15.2-43-3.42c-5.42-14.9.16-29.65,2-46.46S137.24,164.81,130.39,153.24Z"/><path class="cls-6" d="M128.64,150.87c-6.85-11.57-9.72-48.23,19.89-59.23,29.34-10.92,68.49,3.4,74,54.24s-26.94,81.1-37,92.21-36.35,15.88-43.12-2.74c-5.41-14.9.93-29.7,2.77-46.5S135.49,162.44,128.64,150.87Z"/><path class="cls-7" d="M126.91,148.52C120.06,137,119,99.83,147.43,89.27c27.9-10.39,67.95,6.07,73.27,54.88s-27.15,80.48-37.21,91.59-36.46,16.55-43.23-2.06c-5.42-14.91,1.68-29.75,3.52-46.55S133.77,160.09,126.91,148.52Z"/><path class="cls-8" d="M125.21,146.19c-6.85-11.57-6.08-49.15,21.15-59.26,26.45-9.88,67.39,8.73,72.5,55.51s-27.36,79.85-37.42,91-36.58,17.22-43.35-1.39c-5.42-14.9,2.45-29.79,4.28-46.6S132.06,157.75,125.21,146.19Z"/><path class="cls-9" d="M123.53,143.87c-6.85-11.57-4.26-49.6,21.79-59.28,25-9.36,66.84,11.41,71.72,56.15S189.47,220,179.41,231.1s-36.7,17.89-43.47-.72c-5.41-14.9,3.21-29.84,5.05-46.64S130.39,155.44,123.53,143.87Z"/><path class="cls-10" d="M121.88,141.57c-6.86-11.57-2.45-50,22.41-59.29,23.56-8.84,66.29,14.07,71,56.78s-27.78,78.62-37.84,89.73-36.81,18.58-43.58,0c-5.41-14.9,4-29.88,5.81-46.68S128.73,153.14,121.88,141.57Z"/><path class="cls-11" d="M120.24,139.28c-6.85-11.57-.61-50.46,23-59.31,22.13-8.28,65.73,16.74,70.17,57.41s-28,78-38.05,89.12-36.92,19.25-43.69.63c-5.42-14.9,4.73-29.92,6.57-46.73S127.09,150.84,120.24,139.28Z"/><path class="cls-12" d="M118.62,137c-6.85-11.57,1.21-50.9,23.69-59.32,20.68-7.75,65.18,19.41,69.39,58s-28.19,77.38-38.26,88.49-37,19.93-43.8,1.31c-5.42-14.9,5.49-30,7.32-46.77S125.48,148.57,118.62,137Z"/><path class="cls-13" d="M117,134.73c-6.85-11.56,3-51.34,24.32-59.33C160.58,68.18,206,97.48,210,134.08s-28.4,76.76-38.47,87.88-37.15,20.6-43.92,2c-5.42-14.9,6.25-30,8.09-46.82S123.88,146.3,117,134.73Z"/><path class="cls-14" d="M115.44,132.48c-6.86-11.57,4.85-51.79,24.95-59.35,17.8-6.7,64.07,24.74,67.84,59.32s-28.61,76.13-38.68,87.25-37.26,21.28-44,2.66c-5.42-14.9,7-30.06,8.85-46.86S122.29,144.05,115.44,132.48Z"/><path class="cls-15" d="M113.86,130.23C107,118.67,120.53,78,139.45,70.87,155.8,64.7,203,98.28,206.52,130.82s-28.83,75.52-38.89,86.64-37.38,21.94-44.15,3.33c-5.42-14.9,7.77-30.1,9.61-46.91S120.72,141.8,113.86,130.23Z"/><path class="cls-16" d="M112.3,128c-6.86-11.56,8.49-52.68,26.21-59.38,14.92-5.64,63,30.08,66.3,60.59s-29,74.9-39.1,86-37.5,22.62-44.27,4c-5.41-14.9,8.54-30.14,10.38-46.95S119.15,139.56,112.3,128Z"/><path class="cls-17" d="M110.74,125.76c-6.85-11.57,10.32-53.12,26.85-59.4,13.47-5.11,62.42,32.76,65.52,61.23S173.87,201.86,163.8,213s-37.61,23.3-44.38,4.69c-5.41-14.91,9.3-30.19,11.13-47S117.59,137.33,110.74,125.76Z"/><path class="cls-18" d="M109.19,123.53C102.34,112,121.33,70,136.67,64.12c12-4.59,61.87,35.42,64.75,61.86S172,199.64,161.9,210.75s-37.73,24-44.5,5.36c-5.41-14.9,10.06-30.23,11.9-47S116,135.1,109.19,123.53Z"/><path class="cls-19" d="M107.65,121.31c-6.86-11.57,14-54,28.11-59.43,10.58-4.06,61.31,38.09,64,62.5s-29.67,73-39.74,84.15-37.84,24.65-44.61,6c-5.41-14.9,10.82-30.27,12.66-47.08S114.5,132.87,107.65,121.31Z"/><path class="cls-20" d="M106.11,119.09c-6.86-11.57,15.78-54.43,28.74-59.44,9.14-3.54,60.76,40.76,63.2,63.13s-29.87,72.41-39.94,83.53-38,25.33-44.72,6.71C108,198.12,125,182.7,126.8,165.89S113,130.65,106.11,119.09Z"/><path class="cls-21" d="M104.57,116.87C97.71,105.3,122.18,62,134,57.42c7.7-3,60.21,43.42,62.42,63.76s-30.08,71.8-40.15,82.91-38.07,26-44.84,7.39c-5.41-14.9,12.34-30.37,14.18-47.17S111.42,128.44,104.57,116.87Z"/><path class="cls-22" d="M103,114.66c-6.85-11.57,19.45-55.28,30-59.47,6.25-2.48,59.65,46.09,61.65,64.4s-30.3,71.17-40.36,82.29-38.19,26.68-45,8.06c-5.41-14.9,13.1-30.41,14.94-47.22S109.89,126.23,103,114.66Z"/><path class="cls-23" d="M101.5,112.45C94.65,100.88,122.78,56.76,132.15,53c4.81-2,59.1,48.77,60.88,65s-30.51,70.55-40.57,81.67S114.15,227,107.38,208.4c-5.41-14.9,13.86-30.45,15.7-47.26S108.36,124,101.5,112.45Z"/><path class="cls-24" d="M100,110.24c-6.85-11.57,23.14-56.06,31.28-59.5,3.38-1.43,58.55,51.43,60.1,65.67s-30.71,69.93-40.78,81.05-38.41,28-45.18,9.41C100,192,120,176.37,121.85,159.56S106.83,121.8,100,110.24Z"/><path class="cls-25" d="M98.44,108c-6.85-11.57,25-56.31,31.91-59.51,2-.91,58,54.1,59.33,66.3s-30.92,69.32-41,80.43-38.53,28.7-45.3,10.09C98,190.44,118.77,174.79,120.61,158S105.3,119.6,98.44,108Z"/><path class="cls-26" d="M96.92,105.83c-6.86-11.57,26.62-57.34,32.54-59.54.42-.53,57.45,56.77,58.56,66.94s-31.14,68.7-41.2,79.82-38.65,29.37-45.42,10.76c-5.42-14.9,16.14-30.59,18-47.4S103.77,117.39,96.92,105.83Z"/><path class="cls-27" d="M95.39,103.62c-6.85-11.57,28.44-57.79,33.18-59.55-1,0,56.89,59.44,57.78,67.58S155,179.72,144.94,190.84s-38.76,30-45.53,11.44c-5.42-14.9,16.9-30.64,18.74-47.44S102.25,115.19,95.39,103.62Z"/><path class="cls-28" d="M93.87,101.41C87,89.85,124.12,43.17,127.68,41.85c-2.48.5,56.34,62.11,57,68.21s-31.55,67.46-41.62,78.58-38.87,30.72-45.65,12.1c-5.41-14.9,17.67-30.67,19.51-47.48S100.72,113,93.87,101.41Z"/><path class="cls-29" d="M92.34,99.2c-6.85-11.56,32.08-58.69,34.44-59.57-3.92,1,55.79,64.77,56.24,68.84s-31.77,66.84-41.84,78-39,31.4-45.76,12.78c-5.41-14.9,18.43-30.72,20.27-47.53S99.2,110.77,92.34,99.2Z"/><path class="cls-30" d="M90.82,97C84,85.42,124.71,37.84,125.89,37.4c-5.37,1.54,55.24,67.45,55.46,69.48s-32,66.22-42,77.33-39.11,32.08-45.88,13.46c-5.41-14.9,19.19-30.76,21-47.57S97.67,108.56,90.82,97Z"/><path class="cls-31" d="M89.29,94.78C82.44,83.21,125,35.17,125,35.17c-6.82,2.06,54.68,70.12,54.68,70.12S147.5,170.88,137.43,182s-39.22,32.75-46,14.14c-5.42-14.91,20-30.82,21.79-47.62S96.15,106.34,89.29,94.78Z"/></g><g id="_Group_" data-name="&lt;Group&gt;"><rect id="_Path_" data-name="&lt;Path&gt;" class="cls-32" x="96.28" y="136.21" width="51.31" height="12.31"/><rect id="_Path_2" data-name="&lt;Path&gt;" class="cls-33" x="96.28" y="136.21" width="7.07" height="12.31"/><path id="_Path_3" data-name="&lt;Path&gt;" class="cls-34" d="M154,159.77H89.87a5.5,5.5,0,0,0-5.5,5.5v26.64a4.23,4.23,0,0,0,4.23,4.23h66.66a4.23,4.23,0,0,0,4.23-4.23V165.27A5.5,5.5,0,0,0,154,159.77Z"/><path id="_Path_4" data-name="&lt;Path&gt;" class="cls-35" d="M96.94,159.77H89.87a5.5,5.5,0,0,0-5.5,5.5v26.64a4.23,4.23,0,0,0,4.23,4.23h2.84V165.27A5.5,5.5,0,0,1,96.94,159.77Z"/><path id="_Path_5" data-name="&lt;Path&gt;" class="cls-36" d="M78.2,81.55c-.77,1.06-1.64-2.53,17.67,54.52a1.76,1.76,0,0,0,1.67,1.19h48.78a1.76,1.76,0,0,0,1.67-1.19c19.29-57,18.43-53.48,17.66-54.53l-9-12.25H87.18Z"/><path id="_Path_6" data-name="&lt;Path&gt;" class="cls-37" d="M102.36,135.81,82.16,76.14c-4.23,5.79-4.58,5.9-4.2,7l17.91,52.91a1.76,1.76,0,0,0,1.67,1.19h6.85A2.14,2.14,0,0,1,102.36,135.81Z"/><path id="_Path_7" data-name="&lt;Path&gt;" class="cls-36" d="M121.93,23c-1.28,0,1.24-2.92-35.22,46.89l14.81,43.73h40.82l14.81-43.73C120.73,20.18,123.21,23,121.93,23Z"/><path id="_Path_8" data-name="&lt;Path&gt;" class="cls-38" d="M121.93,23c-1.1,0-1.41.7-2.64,2.39v59a2.64,2.64,0,1,0,5.28,0v-59C123.34,23.74,123,23,121.93,23Z"/><path id="_Path_9" data-name="&lt;Path&gt;" class="cls-39" d="M157.2,154.63a5.49,5.49,0,0,1-5.49,5.49H92.15a5.49,5.49,0,0,1-5.49-5.49V154a5.49,5.49,0,0,1,5.49-5.5h59.56a5.49,5.49,0,0,1,5.49,5.5v.61Z"/><path id="_Path_10" data-name="&lt;Path&gt;" class="cls-35" d="M151.71,154.32H92.15a5.48,5.48,0,0,1-4.84-2.9c-2,3.64.28,8.7,4.84,8.7h59.56c4.53,0,6.81-5,4.84-8.7A5.48,5.48,0,0,1,151.71,154.32Z"/><path id="_Path_11" data-name="&lt;Path&gt;" class="cls-32" d="M121.93,78.54a8.7,8.7,0,1,1-8.7,8.7A8.69,8.69,0,0,1,121.93,78.54Z"/><path id="_Path_12" data-name="&lt;Path&gt;" class="cls-33" d="M126.28,79.7a8.7,8.7,0,1,0,0,15.08A8.71,8.71,0,0,1,126.28,79.7Z"/></g></g></g></g></svg>